%TF.GenerationSoftware,KiCad,Pcbnew,7.0.6-0*%
%TF.CreationDate,2023-08-01T13:46:46-04:00*%
%TF.ProjectId,Power Selector,506f7765-7220-4536-956c-6563746f722e,rev?*%
%TF.SameCoordinates,Original*%
%TF.FileFunction,Paste,Top*%
%TF.FilePolarity,Positive*%
%FSLAX46Y46*%
G04 Gerber Fmt 4.6, Leading zero omitted, Abs format (unit mm)*
G04 Created by KiCad (PCBNEW 7.0.6-0) date 2023-08-01 13:46:46*
%MOMM*%
%LPD*%
G01*
G04 APERTURE LIST*
%ADD10R,2.800000X1.600000*%
%ADD11R,1.600000X3.000000*%
%ADD12R,3.000000X1.700000*%
%ADD13R,1.630000X2.180400*%
%ADD14R,2.200000X1.000000*%
%ADD15R,2.180400X1.630000*%
%ADD16R,1.600000X1.900000*%
G04 APERTURE END LIST*
D10*
%TO.C,F204*%
X72120000Y-82650000D03*
X66120000Y-82650000D03*
X72120000Y-96150000D03*
X66120000Y-96150000D03*
%TD*%
D11*
%TO.C,C204*%
X80470000Y-112000000D03*
X77370000Y-112000000D03*
%TD*%
D12*
%TO.C,J204*%
X139720000Y-85800000D03*
X139720000Y-88500000D03*
X139720000Y-91200000D03*
X139720000Y-93900000D03*
X139720000Y-96600000D03*
X139720000Y-99300000D03*
X139720000Y-102000000D03*
X139720000Y-104700000D03*
X139720000Y-107400000D03*
X139720000Y-110100000D03*
X139720000Y-112800000D03*
X139720000Y-115500000D03*
%TD*%
D11*
%TO.C,C201*%
X83370000Y-87200000D03*
X86470000Y-87200000D03*
%TD*%
D12*
%TO.C,J206*%
X62120000Y-85400000D03*
X62120000Y-88100000D03*
X62120000Y-90800000D03*
X62120000Y-93500000D03*
X62120000Y-96200000D03*
X62120000Y-98900000D03*
X62120000Y-101600000D03*
X62120000Y-104300000D03*
X62120000Y-107000000D03*
X62120000Y-109700000D03*
X62120000Y-112400000D03*
X62120000Y-115100000D03*
%TD*%
D10*
%TO.C,F203*%
X84400000Y-124750000D03*
X90400000Y-124750000D03*
X84400000Y-111250000D03*
X90400000Y-111250000D03*
%TD*%
D13*
%TO.C,D202*%
X135000000Y-76342800D03*
X135000000Y-80057200D03*
%TD*%
D11*
%TO.C,C203*%
X74070000Y-112000000D03*
X70970000Y-112000000D03*
%TD*%
D14*
%TO.C,K202*%
X90269998Y-77850000D03*
X90269998Y-82930000D03*
X90269998Y-85470000D03*
X90269998Y-88010000D03*
X90269998Y-90550000D03*
X96370002Y-90550000D03*
X96370002Y-88010000D03*
X96370002Y-85470000D03*
X96370002Y-82930000D03*
X96370002Y-77850000D03*
%TD*%
D15*
%TO.C,D201*%
X92342800Y-74200000D03*
X96057200Y-74200000D03*
%TD*%
D16*
%TO.C,R201*%
X71050000Y-106600000D03*
X74150000Y-106600000D03*
%TD*%
D15*
%TO.C,D203*%
X132742800Y-108400000D03*
X136457200Y-108400000D03*
%TD*%
D11*
%TO.C,C202*%
X76920000Y-87200000D03*
X80020000Y-87200000D03*
%TD*%
M02*
