%TF.GenerationSoftware,KiCad,Pcbnew,7.0.6-0*%
%TF.CreationDate,2023-08-01T13:46:46-04:00*%
%TF.ProjectId,Power Selector,506f7765-7220-4536-956c-6563746f722e,rev?*%
%TF.SameCoordinates,Original*%
%TF.FileFunction,Copper,L2,Bot*%
%TF.FilePolarity,Positive*%
%FSLAX46Y46*%
G04 Gerber Fmt 4.6, Leading zero omitted, Abs format (unit mm)*
G04 Created by KiCad (PCBNEW 7.0.6-0) date 2023-08-01 13:46:46*
%MOMM*%
%LPD*%
G01*
G04 APERTURE LIST*
%TA.AperFunction,ComponentPad*%
%ADD10C,2.209800*%
%TD*%
%TA.AperFunction,ComponentPad*%
%ADD11C,2.489200*%
%TD*%
%TA.AperFunction,ComponentPad*%
%ADD12C,2.514600*%
%TD*%
%TA.AperFunction,ComponentPad*%
%ADD13R,2.000000X4.000000*%
%TD*%
%TA.AperFunction,ComponentPad*%
%ADD14C,5.000000*%
%TD*%
%TA.AperFunction,ComponentPad*%
%ADD15R,2.500000X2.500000*%
%TD*%
%TA.AperFunction,ComponentPad*%
%ADD16C,2.500000*%
%TD*%
%TA.AperFunction,ComponentPad*%
%ADD17R,2.000000X2.000000*%
%TD*%
%TA.AperFunction,ComponentPad*%
%ADD18C,2.000000*%
%TD*%
%TA.AperFunction,ComponentPad*%
%ADD19C,2.540000*%
%TD*%
%TA.AperFunction,ComponentPad*%
%ADD20C,1.524000*%
%TD*%
%TA.AperFunction,ComponentPad*%
%ADD21R,4.000000X2.000000*%
%TD*%
%TA.AperFunction,ViaPad*%
%ADD22C,1.000000*%
%TD*%
%TA.AperFunction,ViaPad*%
%ADD23C,3.500000*%
%TD*%
%TA.AperFunction,Conductor*%
%ADD24C,1.500000*%
%TD*%
%TA.AperFunction,Conductor*%
%ADD25C,5.500000*%
%TD*%
%TA.AperFunction,Conductor*%
%ADD26C,4.500000*%
%TD*%
G04 APERTURE END LIST*
D10*
%TO.P,J205,1,1*%
%TO.N,GND_G*%
X105720000Y-104880000D03*
%TO.P,J205,2,2*%
X105720000Y-99800000D03*
%TO.P,J205,3,3*%
X105720000Y-94720000D03*
%TO.P,J205,4,4*%
%TO.N,Net-(F203-Pad2)*%
X95560000Y-104880000D03*
%TO.P,J205,5,5*%
X95560000Y-99800000D03*
%TO.P,J205,6,6*%
X95560000Y-94720000D03*
D11*
%TO.P,J205,7*%
%TO.N,N/C*%
X115880000Y-99800000D03*
%TO.P,J205,8*%
X85400000Y-99800000D03*
D12*
%TO.P,J205,9*%
X100640000Y-103999999D03*
%TO.P,J205,10*%
X100640000Y-95600001D03*
%TD*%
D13*
%TO.P,TP1,1,TP*%
%TO.N,Vin_Bat_G*%
X136600000Y-124800000D03*
%TD*%
D14*
%TO.P,H2,1*%
%TO.N,unconnected-(H2-Pad1)*%
X135720000Y-130200000D03*
%TD*%
D15*
%TO.P,J201,1,1*%
%TO.N,24V_Bat_G*%
X77800000Y-96740000D03*
D16*
%TO.P,J201,2,2*%
%TO.N,Net-(J201-Pad2)*%
X77800000Y-102240000D03*
%TD*%
D13*
%TO.P,TP2,1,TP*%
%TO.N,24V_Bat_G*%
X136400000Y-118300000D03*
%TD*%
D16*
%TO.P,F202,1,1*%
%TO.N,+Vin_Tether_G*%
X89940000Y-131000000D03*
%TO.P,F202,2,2*%
%TO.N,Net-(U202-Vin)*%
X84860000Y-131000000D03*
%TD*%
D13*
%TO.P,TP4,1,TP*%
%TO.N,24V_Tether_G*%
X131200000Y-118100000D03*
%TD*%
D17*
%TO.P,U201,1,Vin*%
%TO.N,Net-(U201-Vin)*%
X84260000Y-81951800D03*
D18*
%TO.P,U201,2,GND*%
%TO.N,GND_G*%
X81720000Y-81951800D03*
%TO.P,U201,3,Vout*%
%TO.N,24V_Bat_G*%
X79180000Y-81951800D03*
%TD*%
D19*
%TO.P,K203,1,1*%
%TO.N,Vin_Bat_G*%
X102700000Y-70437989D03*
%TO.P,K203,2,2*%
%TO.N,+Vin_Tether_G*%
X110300000Y-70437989D03*
%TO.P,K203,3,3*%
%TO.N,+Vin_Drone_G*%
X112800000Y-88238106D03*
D20*
%TO.P,K203,4,4*%
%TO.N,/PCB_Gauche/Relay_Active*%
X125600000Y-73400000D03*
%TO.P,K203,5,5*%
%TO.N,GND_G*%
X125600000Y-83600000D03*
%TD*%
D14*
%TO.P,H3,1*%
%TO.N,unconnected-(H3-Pad1)*%
X65720000Y-70200000D03*
%TD*%
D15*
%TO.P,J203,1,1*%
%TO.N,24V_Tether_G*%
X131823200Y-103131500D03*
D16*
%TO.P,J203,2,2*%
%TO.N,Net-(D201-Pad1)*%
X131823200Y-97631500D03*
%TD*%
D13*
%TO.P,TP6,1,TP*%
%TO.N,+Vin_Drone_G*%
X131200000Y-131200000D03*
%TD*%
D16*
%TO.P,F201,1,1*%
%TO.N,Vin_Bat_G*%
X72320000Y-73340000D03*
%TO.P,F201,2,2*%
%TO.N,Net-(U201-Vin)*%
X72320000Y-68260000D03*
%TD*%
D17*
%TO.P,U202,1,Vin*%
%TO.N,Net-(U202-Vin)*%
X73180000Y-117248200D03*
D18*
%TO.P,U202,2,GND*%
%TO.N,GND_G*%
X75720000Y-117248200D03*
%TO.P,U202,3,Vout*%
%TO.N,24V_Tether_G*%
X78260000Y-117248200D03*
%TD*%
D19*
%TO.P,K201,1,1*%
%TO.N,Net-(K201-Pad1)*%
X97150000Y-112787989D03*
%TO.P,K201,2,2*%
%TO.N,unconnected-(K201-Pad2)*%
X104750000Y-112787989D03*
%TO.P,K201,3,3*%
%TO.N,+Vin_Tether_G*%
X107250000Y-130588106D03*
D20*
%TO.P,K201,4,4*%
%TO.N,/PCB_Gauche/Relay_Active*%
X120050000Y-115750000D03*
%TO.P,K201,5,5*%
%TO.N,GND_G*%
X120050000Y-125950000D03*
%TD*%
D15*
%TO.P,J202,1,1*%
%TO.N,+Vin_Tether_G*%
X125120000Y-103131500D03*
D16*
%TO.P,J202,2,2*%
%TO.N,GND_G*%
X125120000Y-97631500D03*
%TD*%
D14*
%TO.P,H4,1*%
%TO.N,unconnected-(H4-Pad1)*%
X65720000Y-130200000D03*
%TD*%
D21*
%TO.P,TP5,1,TP*%
%TO.N,GND_G*%
X134000000Y-113400000D03*
%TD*%
D14*
%TO.P,H1,1*%
%TO.N,unconnected-(H1-Pad1)*%
X135720000Y-70200000D03*
%TD*%
D13*
%TO.P,TP3,1,TP*%
%TO.N,+Vin_Tether_G*%
X131200000Y-124600000D03*
%TD*%
D22*
%TO.N,24V_Tether_G*%
X129100000Y-115500000D03*
%TO.N,Net-(K201-Pad1)*%
X75400000Y-109200000D03*
%TO.N,/PCB_Gauche/Relay_Active*%
X131000000Y-110350000D03*
%TO.N,/PCB_Gauche/SCL*%
X136500000Y-99300000D03*
%TO.N,+Vin_Drone_G*%
X114850000Y-86500000D03*
X115400000Y-88200000D03*
X124150000Y-89000000D03*
X119200000Y-85800000D03*
X127500000Y-85800000D03*
X131300000Y-89200000D03*
X134300000Y-85900000D03*
X136700000Y-89200000D03*
X139800000Y-96700000D03*
X139800000Y-94000000D03*
X139700000Y-91400000D03*
X139700000Y-88700000D03*
X139700000Y-85900000D03*
%TO.N,/PCB_Gauche/SDA*%
X132200000Y-92400000D03*
%TO.N,Net-(D201-Pad1)*%
X129450000Y-87400000D03*
%TO.N,/PCB_Gauche/Relay_Active*%
X120900000Y-87600000D03*
X122250000Y-83650000D03*
X100930000Y-85470000D03*
%TO.N,Net-(D201-Pad1)*%
X93200000Y-80200000D03*
%TO.N,24V_Bat_G*%
X88000000Y-90600000D03*
X80020000Y-89520000D03*
%TO.N,24V_Tether_G*%
X87300000Y-103500000D03*
X79200000Y-107600000D03*
%TO.N,24V_Bat_G*%
X68800000Y-118800000D03*
%TO.N,/PCB_Gauche/SCL*%
X65200000Y-101600000D03*
%TO.N,/PCB_Gauche/SDA*%
X65100000Y-98900000D03*
D23*
%TO.N,+Vin_Tether_G*%
X123000000Y-128600000D03*
%TD*%
D24*
%TO.N,24V_Tether_G*%
X129100000Y-115500000D02*
X125400000Y-119200000D01*
X125400000Y-119200000D02*
X80211800Y-119200000D01*
X80211800Y-119200000D02*
X78260000Y-117248200D01*
D25*
%TO.N,Vin_Bat_G*%
X102700000Y-70437989D02*
X99797989Y-73340000D01*
X99797989Y-73340000D02*
X72320000Y-73340000D01*
D24*
%TO.N,/PCB_Gauche/Relay_Active*%
X122250000Y-83650000D02*
X102750000Y-83650000D01*
X102750000Y-83650000D02*
X100930000Y-85470000D01*
%TO.N,24V_Tether_G*%
X79200000Y-107600000D02*
X83200000Y-107600000D01*
X83200000Y-107600000D02*
X87300000Y-103500000D01*
%TO.N,Net-(K201-Pad1)*%
X97150000Y-112787989D02*
X96933400Y-113004589D01*
X79204589Y-113004589D02*
X75400000Y-109200000D01*
X96933400Y-113004589D02*
X79204589Y-113004589D01*
%TO.N,/PCB_Gauche/Relay_Active*%
X130992800Y-110350000D02*
X125376200Y-115966600D01*
X131000000Y-110350000D02*
X130992800Y-110350000D01*
X125376200Y-115966600D02*
X120266600Y-115966600D01*
X120266600Y-115966600D02*
X119960000Y-115660000D01*
D26*
%TO.N,+Vin_Tether_G*%
X123000000Y-128600000D02*
X120795294Y-130804706D01*
X120795294Y-130804706D02*
X107466600Y-130804706D01*
X107466600Y-130804706D02*
X107250000Y-130588106D01*
D24*
%TO.N,/PCB_Gauche/SCL*%
X129500000Y-109300000D02*
X77904164Y-109300000D01*
X136500000Y-99300000D02*
X136500000Y-102300000D01*
X136500000Y-102300000D02*
X129500000Y-109300000D01*
X77904164Y-109300000D02*
X70204164Y-101600000D01*
X70204164Y-101600000D02*
X65200000Y-101600000D01*
D25*
%TO.N,+Vin_Drone_G*%
X115400000Y-88200000D02*
X112838106Y-88200000D01*
X112838106Y-88200000D02*
X112800000Y-88238106D01*
D24*
%TO.N,/PCB_Gauche/Relay_Active*%
X122250000Y-83650000D02*
X123650000Y-85050000D01*
X123650000Y-85050000D02*
X123650000Y-86100000D01*
X123650000Y-86100000D02*
X122150000Y-87600000D01*
X122150000Y-87600000D02*
X120900000Y-87600000D01*
D25*
%TO.N,+Vin_Drone_G*%
X115400000Y-88200000D02*
X115361894Y-88238106D01*
D24*
X139800000Y-96700000D02*
X139800000Y-94000000D01*
%TO.N,/PCB_Gauche/SDA*%
X132200000Y-92400000D02*
X71800000Y-92400000D01*
X71800000Y-92400000D02*
X65300000Y-98900000D01*
%TO.N,24V_Bat_G*%
X88000000Y-90600000D02*
X81200000Y-90600000D01*
X81200000Y-90600000D02*
X80020000Y-89420000D01*
X136400000Y-119000000D02*
X134350000Y-121050000D01*
X68800000Y-119400000D02*
X68800000Y-118800000D01*
X134350000Y-121050000D02*
X70450000Y-121050000D01*
X70450000Y-121050000D02*
X68800000Y-119400000D01*
%TO.N,Net-(D201-Pad1)*%
X129450000Y-87400000D02*
X129450000Y-85028866D01*
X125421134Y-81000000D02*
X94000000Y-81000000D01*
X94000000Y-81000000D02*
X93200000Y-80200000D01*
X129450000Y-85028866D02*
X125421134Y-81000000D01*
%TO.N,Vin_Bat_G*%
X124450000Y-122750000D02*
X69745836Y-122750000D01*
X69745836Y-122750000D02*
X62200000Y-115204164D01*
X129250000Y-127550000D02*
X124450000Y-122750000D01*
X62200000Y-83460000D02*
X72320000Y-73340000D01*
X62200000Y-115204164D02*
X62200000Y-83460000D01*
X135200000Y-125500000D02*
X133150000Y-127550000D01*
X136600000Y-125500000D02*
X135200000Y-125500000D01*
X133150000Y-127550000D02*
X129250000Y-127550000D01*
%TO.N,+Vin_Drone_G*%
X137293005Y-133650000D02*
X139800000Y-131143005D01*
X139800000Y-131143005D02*
X139800000Y-96700000D01*
X132950000Y-133650000D02*
X137293005Y-133650000D01*
X131200000Y-131900000D02*
X132950000Y-133650000D01*
%TD*%
%TA.AperFunction,Conductor*%
%TO.N,GND_G*%
G36*
X136537318Y-64609488D02*
G01*
X136735934Y-64618160D01*
X136740865Y-64618574D01*
X136956792Y-64645489D01*
X137152940Y-64671313D01*
X137157265Y-64671883D01*
X137161894Y-64672671D01*
X137374183Y-64717183D01*
X137572534Y-64761157D01*
X137576778Y-64762257D01*
X137784544Y-64824112D01*
X137978658Y-64885317D01*
X137982530Y-64886680D01*
X138184457Y-64965472D01*
X138372817Y-65043494D01*
X138376252Y-65045045D01*
X138451343Y-65081755D01*
X138570992Y-65140249D01*
X138708629Y-65211897D01*
X138752009Y-65234479D01*
X138755107Y-65236207D01*
X138941382Y-65347202D01*
X139113662Y-65456957D01*
X139116377Y-65458789D01*
X139292918Y-65584837D01*
X139455098Y-65709282D01*
X139457426Y-65711159D01*
X139623055Y-65851439D01*
X139774895Y-65990574D01*
X139929424Y-66145103D01*
X140068555Y-66296938D01*
X140083008Y-66314003D01*
X140208839Y-66462572D01*
X140210716Y-66464900D01*
X140335162Y-66627081D01*
X140461209Y-66803621D01*
X140463040Y-66806335D01*
X140572797Y-66978617D01*
X140683791Y-67164891D01*
X140685525Y-67168000D01*
X140779750Y-67349007D01*
X140845992Y-67484503D01*
X140874953Y-67543744D01*
X140876524Y-67547229D01*
X140954536Y-67735566D01*
X141033309Y-67937445D01*
X141034681Y-67941340D01*
X141095899Y-68135496D01*
X141157735Y-68343200D01*
X141158843Y-68347472D01*
X141202818Y-68545826D01*
X141247326Y-68758101D01*
X141248115Y-68762733D01*
X141274524Y-68963319D01*
X141301422Y-69179114D01*
X141301839Y-69184080D01*
X141310513Y-69382728D01*
X141319500Y-69600000D01*
X141319500Y-83986406D01*
X141299815Y-84053445D01*
X141247011Y-84099200D01*
X141177854Y-84109144D01*
X141076000Y-84094500D01*
X130783750Y-84094500D01*
X130767766Y-84095006D01*
X130744143Y-84096502D01*
X130712341Y-84099527D01*
X130712341Y-84099528D01*
X130573644Y-84137806D01*
X130509623Y-84165790D01*
X130509617Y-84165792D01*
X130509607Y-84165797D01*
X130498532Y-84172662D01*
X130431180Y-84191247D01*
X130364471Y-84170469D01*
X130347516Y-84156890D01*
X130346424Y-84155846D01*
X130324320Y-84134712D01*
X126357490Y-80167882D01*
X126352853Y-80162693D01*
X126328641Y-80132332D01*
X126277165Y-80087359D01*
X126274131Y-80084523D01*
X126265663Y-80076055D01*
X126233315Y-80049049D01*
X126159130Y-79984235D01*
X126155375Y-79981991D01*
X126139507Y-79970732D01*
X126136153Y-79967932D01*
X126136152Y-79967931D01*
X126136147Y-79967927D01*
X126068748Y-79929685D01*
X126050474Y-79919316D01*
X125965898Y-79868785D01*
X125965895Y-79868783D01*
X125961803Y-79867248D01*
X125944178Y-79859002D01*
X125940379Y-79856846D01*
X125847387Y-79824307D01*
X125755163Y-79789694D01*
X125755153Y-79789691D01*
X125750857Y-79788912D01*
X125732052Y-79783949D01*
X125727918Y-79782502D01*
X125727913Y-79782501D01*
X125630606Y-79767089D01*
X125533684Y-79749500D01*
X125533681Y-79749500D01*
X125529306Y-79749500D01*
X125509903Y-79747972D01*
X125505594Y-79747289D01*
X125407112Y-79749500D01*
X94569336Y-79749500D01*
X94502297Y-79729815D01*
X94481655Y-79713181D01*
X94044533Y-79276059D01*
X94044529Y-79276055D01*
X93915019Y-79167932D01*
X93915013Y-79167928D01*
X93719245Y-79056847D01*
X93506786Y-78982502D01*
X93506783Y-78982501D01*
X93284460Y-78947289D01*
X93059421Y-78952340D01*
X92838911Y-78997490D01*
X92838898Y-78997494D01*
X92629991Y-79081292D01*
X92439395Y-79201051D01*
X92273254Y-79352911D01*
X92136889Y-79532009D01*
X92034701Y-79732563D01*
X91969963Y-79948150D01*
X91944762Y-80171820D01*
X91944761Y-80171831D01*
X91959903Y-80396407D01*
X91959903Y-80396412D01*
X92014902Y-80614678D01*
X92014903Y-80614681D01*
X92107991Y-80819622D01*
X92107997Y-80819632D01*
X92236180Y-81004654D01*
X93063642Y-81832116D01*
X93068279Y-81837304D01*
X93092492Y-81867666D01*
X93143967Y-81912639D01*
X93147000Y-81915474D01*
X93155471Y-81923945D01*
X93155475Y-81923949D01*
X93155479Y-81923952D01*
X93187811Y-81950944D01*
X93262002Y-82015764D01*
X93265755Y-82018006D01*
X93281626Y-82029266D01*
X93284982Y-82032068D01*
X93284986Y-82032071D01*
X93370648Y-82080676D01*
X93455227Y-82131210D01*
X93455230Y-82131211D01*
X93455236Y-82131215D01*
X93459327Y-82132750D01*
X93476955Y-82140996D01*
X93480755Y-82143153D01*
X93573740Y-82175690D01*
X93665976Y-82210307D01*
X93665980Y-82210307D01*
X93665981Y-82210308D01*
X93670264Y-82211085D01*
X93689086Y-82216052D01*
X93693218Y-82217498D01*
X93790523Y-82232909D01*
X93822833Y-82238772D01*
X93887451Y-82250500D01*
X93887453Y-82250500D01*
X93891828Y-82250500D01*
X93911231Y-82252028D01*
X93912938Y-82252297D01*
X93915540Y-82252710D01*
X94014022Y-82250500D01*
X102230705Y-82250500D01*
X102297744Y-82270185D01*
X102343499Y-82322989D01*
X102353443Y-82392147D01*
X102324418Y-82455703D01*
X102284507Y-82486219D01*
X102241676Y-82506846D01*
X102220055Y-82517258D01*
X102130376Y-82557991D01*
X102126772Y-82560488D01*
X102109980Y-82570267D01*
X102106029Y-82572170D01*
X102106018Y-82572176D01*
X102026314Y-82630085D01*
X101945347Y-82686178D01*
X101942239Y-82689286D01*
X101927465Y-82701903D01*
X101923928Y-82704473D01*
X101923921Y-82704478D01*
X101855846Y-82775679D01*
X100006059Y-84625466D01*
X99897932Y-84754980D01*
X99897928Y-84754986D01*
X99786847Y-84950754D01*
X99712502Y-85163213D01*
X99712501Y-85163216D01*
X99677289Y-85385536D01*
X99682340Y-85610578D01*
X99727490Y-85831088D01*
X99727494Y-85831101D01*
X99811292Y-86040008D01*
X99931051Y-86230604D01*
X100082911Y-86396745D01*
X100082914Y-86396748D01*
X100262005Y-86533108D01*
X100462565Y-86635299D01*
X100678149Y-86700036D01*
X100901827Y-86725238D01*
X100901829Y-86725237D01*
X100901831Y-86725238D01*
X101001642Y-86718508D01*
X101126412Y-86710096D01*
X101344683Y-86655096D01*
X101549626Y-86562007D01*
X101734654Y-86433820D01*
X103231655Y-84936818D01*
X103292978Y-84903334D01*
X103319336Y-84900500D01*
X110770500Y-84900500D01*
X110837539Y-84920185D01*
X110883294Y-84972989D01*
X110894500Y-85024500D01*
X110894500Y-85527305D01*
X110874815Y-85594344D01*
X110841167Y-85629198D01*
X110838578Y-85630993D01*
X110838571Y-85630998D01*
X110754018Y-85704635D01*
X110666467Y-85774737D01*
X110666454Y-85774748D01*
X110620365Y-85820838D01*
X110617244Y-85823750D01*
X110568096Y-85866555D01*
X110492146Y-85949057D01*
X110438196Y-86003009D01*
X110360323Y-86089975D01*
X110258801Y-86203354D01*
X110258790Y-86203367D01*
X110050376Y-86495267D01*
X110050371Y-86495276D01*
X109875343Y-86808318D01*
X109875340Y-86808324D01*
X109735799Y-87138750D01*
X109633460Y-87482501D01*
X109633460Y-87482502D01*
X109569556Y-87835431D01*
X109569556Y-87835434D01*
X109544866Y-88193251D01*
X109549334Y-88301292D01*
X109559688Y-88551615D01*
X109613843Y-88906173D01*
X109684040Y-89168150D01*
X109706675Y-89252624D01*
X109706679Y-89252637D01*
X109837052Y-89586755D01*
X109837055Y-89586761D01*
X110003397Y-89904515D01*
X110003398Y-89904518D01*
X110203687Y-90202048D01*
X110203693Y-90202057D01*
X110435501Y-90475752D01*
X110435504Y-90475754D01*
X110696009Y-90722282D01*
X110696013Y-90722285D01*
X110966123Y-90926606D01*
X111007713Y-90982749D01*
X111012349Y-91052465D01*
X110978557Y-91113619D01*
X110917067Y-91146797D01*
X110891316Y-91149500D01*
X89312296Y-91149500D01*
X89245257Y-91129815D01*
X89199502Y-91077011D01*
X89189558Y-91007853D01*
X89192912Y-90993429D01*
X89192864Y-90993418D01*
X89212930Y-90905500D01*
X89244191Y-90768537D01*
X89254290Y-90543670D01*
X89224075Y-90320613D01*
X89154517Y-90106536D01*
X89047852Y-89908319D01*
X88907508Y-89732334D01*
X88737996Y-89584235D01*
X88544764Y-89468785D01*
X88439394Y-89429239D01*
X88334023Y-89389692D01*
X88112550Y-89349500D01*
X88112547Y-89349500D01*
X81769336Y-89349500D01*
X81702297Y-89329815D01*
X81681655Y-89313181D01*
X80864533Y-88496059D01*
X80864532Y-88496058D01*
X80864529Y-88496055D01*
X80735019Y-88387932D01*
X80735013Y-88387928D01*
X80539245Y-88276847D01*
X80326786Y-88202502D01*
X80326783Y-88202501D01*
X80104460Y-88167289D01*
X79879421Y-88172340D01*
X79658911Y-88217490D01*
X79658898Y-88217494D01*
X79449991Y-88301292D01*
X79259395Y-88421051D01*
X79093254Y-88572911D01*
X78956889Y-88752009D01*
X78854701Y-88952563D01*
X78789963Y-89168150D01*
X78764762Y-89391820D01*
X78764761Y-89391831D01*
X78779903Y-89616407D01*
X78779903Y-89616412D01*
X78834902Y-89834678D01*
X78834903Y-89834681D01*
X78927991Y-90039622D01*
X78927997Y-90039632D01*
X79056180Y-90224654D01*
X79769345Y-90937819D01*
X79802830Y-90999142D01*
X79797846Y-91068834D01*
X79755974Y-91124767D01*
X79690510Y-91149184D01*
X79681664Y-91149500D01*
X71873697Y-91149500D01*
X71866758Y-91149110D01*
X71839907Y-91146085D01*
X71828174Y-91144763D01*
X71828168Y-91144762D01*
X71782704Y-91147828D01*
X71759976Y-91149360D01*
X71755823Y-91149500D01*
X71743838Y-91149500D01*
X71701856Y-91153278D01*
X71603590Y-91159903D01*
X71599349Y-91160972D01*
X71580176Y-91164230D01*
X71575813Y-91164622D01*
X71575804Y-91164624D01*
X71480840Y-91190833D01*
X71385315Y-91214903D01*
X71385312Y-91214904D01*
X71381319Y-91216718D01*
X71363059Y-91223338D01*
X71358850Y-91224500D01*
X71358835Y-91224505D01*
X71358830Y-91224507D01*
X71358825Y-91224509D01*
X71358826Y-91224509D01*
X71270070Y-91267250D01*
X71180375Y-91307991D01*
X71176775Y-91310486D01*
X71159971Y-91320271D01*
X71156031Y-91322168D01*
X71156028Y-91322170D01*
X71076323Y-91380078D01*
X70995349Y-91436177D01*
X70995343Y-91436182D01*
X70992239Y-91439286D01*
X70977465Y-91451903D01*
X70973928Y-91454473D01*
X70973921Y-91454478D01*
X70905846Y-91525679D01*
X64376059Y-98055466D01*
X64267932Y-98184980D01*
X64267928Y-98184986D01*
X64156847Y-98380754D01*
X64082502Y-98593213D01*
X64082501Y-98593216D01*
X64047289Y-98815536D01*
X64052340Y-99040578D01*
X64097490Y-99261088D01*
X64097494Y-99261101D01*
X64181292Y-99470008D01*
X64301051Y-99660604D01*
X64428464Y-99799999D01*
X64452914Y-99826748D01*
X64632005Y-99963108D01*
X64832565Y-100065299D01*
X65017462Y-100120821D01*
X65076008Y-100158954D01*
X65104644Y-100222687D01*
X65094277Y-100291783D01*
X65048200Y-100344306D01*
X64992918Y-100363083D01*
X64975812Y-100364622D01*
X64975807Y-100364623D01*
X64758839Y-100424503D01*
X64758826Y-100424508D01*
X64556033Y-100522167D01*
X64556025Y-100522171D01*
X64373927Y-100654473D01*
X64373925Y-100654474D01*
X64218366Y-100817176D01*
X64094363Y-101005033D01*
X64005899Y-101212004D01*
X64005895Y-101212017D01*
X63955810Y-101431457D01*
X63955808Y-101431468D01*
X63945710Y-101656325D01*
X63945710Y-101656330D01*
X63975925Y-101879387D01*
X63975926Y-101879390D01*
X64045483Y-102093465D01*
X64152146Y-102291678D01*
X64152148Y-102291681D01*
X64292489Y-102467663D01*
X64292491Y-102467664D01*
X64292492Y-102467666D01*
X64462004Y-102615765D01*
X64655236Y-102731215D01*
X64865976Y-102810307D01*
X65087450Y-102850500D01*
X65087453Y-102850500D01*
X69634828Y-102850500D01*
X69701867Y-102870185D01*
X69722509Y-102886819D01*
X74773465Y-107937775D01*
X74806950Y-107999098D01*
X74801966Y-108068790D01*
X74760094Y-108124723D01*
X74751757Y-108130449D01*
X74639397Y-108201050D01*
X74473254Y-108352911D01*
X74336889Y-108532009D01*
X74234701Y-108732563D01*
X74169963Y-108948150D01*
X74144762Y-109171820D01*
X74144761Y-109171831D01*
X74159903Y-109396407D01*
X74159903Y-109396412D01*
X74214902Y-109614678D01*
X74214903Y-109614681D01*
X74307991Y-109819622D01*
X74307997Y-109819632D01*
X74436180Y-110004654D01*
X78268231Y-113836705D01*
X78272868Y-113841893D01*
X78297081Y-113872255D01*
X78348556Y-113917228D01*
X78351589Y-113920063D01*
X78360059Y-113928533D01*
X78367307Y-113934584D01*
X78392403Y-113955536D01*
X78466593Y-114020354D01*
X78470339Y-114022592D01*
X78486213Y-114033854D01*
X78489570Y-114036657D01*
X78575248Y-114085272D01*
X78659825Y-114135804D01*
X78663916Y-114137339D01*
X78681544Y-114145585D01*
X78685344Y-114147742D01*
X78778335Y-114180281D01*
X78870565Y-114214896D01*
X78873154Y-114215365D01*
X78874863Y-114215676D01*
X78893678Y-114220642D01*
X78897806Y-114222087D01*
X78995116Y-114237499D01*
X79092039Y-114255089D01*
X79092042Y-114255089D01*
X79096417Y-114255089D01*
X79115820Y-114256617D01*
X79117527Y-114256886D01*
X79120129Y-114257299D01*
X79218591Y-114255089D01*
X96120618Y-114255089D01*
X96187657Y-114274774D01*
X96190436Y-114276612D01*
X96262268Y-114325587D01*
X96501350Y-114440723D01*
X96754922Y-114518939D01*
X96754923Y-114518939D01*
X96754926Y-114518940D01*
X97017311Y-114558488D01*
X97017316Y-114558488D01*
X97017319Y-114558489D01*
X97017320Y-114558489D01*
X97282680Y-114558489D01*
X97282681Y-114558489D01*
X97282688Y-114558488D01*
X97545073Y-114518940D01*
X97545074Y-114518939D01*
X97545078Y-114518939D01*
X97798650Y-114440723D01*
X97990071Y-114348539D01*
X98037725Y-114325591D01*
X98037725Y-114325590D01*
X98037733Y-114325587D01*
X98256984Y-114176103D01*
X98451508Y-113995612D01*
X98616958Y-113788144D01*
X98749639Y-113558334D01*
X98846586Y-113311316D01*
X98905635Y-113052608D01*
X98907999Y-113021066D01*
X98925465Y-112787993D01*
X102974535Y-112787993D01*
X102994363Y-113052598D01*
X102994364Y-113052603D01*
X103053410Y-113311302D01*
X103053412Y-113311311D01*
X103053414Y-113311316D01*
X103150361Y-113558334D01*
X103283042Y-113788144D01*
X103448492Y-113995612D01*
X103643016Y-114176103D01*
X103862268Y-114325587D01*
X104101350Y-114440723D01*
X104354922Y-114518939D01*
X104354923Y-114518939D01*
X104354926Y-114518940D01*
X104617311Y-114558488D01*
X104617316Y-114558488D01*
X104617319Y-114558489D01*
X104617320Y-114558489D01*
X104882680Y-114558489D01*
X104882681Y-114558489D01*
X104882688Y-114558488D01*
X105145073Y-114518940D01*
X105145074Y-114518939D01*
X105145078Y-114518939D01*
X105398650Y-114440723D01*
X105590071Y-114348539D01*
X105637725Y-114325591D01*
X105637725Y-114325590D01*
X105637733Y-114325587D01*
X105856984Y-114176103D01*
X106051508Y-113995612D01*
X106216958Y-113788144D01*
X106349639Y-113558334D01*
X106446586Y-113311316D01*
X106505635Y-113052608D01*
X106507999Y-113021066D01*
X106525465Y-112787993D01*
X106525465Y-112787984D01*
X106505636Y-112523379D01*
X106505635Y-112523374D01*
X106505635Y-112523370D01*
X106446586Y-112264662D01*
X106349639Y-112017644D01*
X106216958Y-111787834D01*
X106051508Y-111580366D01*
X105856984Y-111399875D01*
X105744165Y-111322956D01*
X105637736Y-111250393D01*
X105637725Y-111250386D01*
X105398655Y-111135257D01*
X105398636Y-111135250D01*
X105145083Y-111057040D01*
X105145073Y-111057037D01*
X104882688Y-111017489D01*
X104882681Y-111017489D01*
X104617319Y-111017489D01*
X104617311Y-111017489D01*
X104354926Y-111057037D01*
X104354916Y-111057040D01*
X104101363Y-111135250D01*
X104101344Y-111135257D01*
X103862276Y-111250386D01*
X103862274Y-111250387D01*
X103643015Y-111399875D01*
X103448494Y-111580364D01*
X103448492Y-111580366D01*
X103283042Y-111787834D01*
X103150361Y-112017643D01*
X103053416Y-112264656D01*
X103053410Y-112264675D01*
X102994364Y-112523374D01*
X102994363Y-112523379D01*
X102974535Y-112787984D01*
X102974535Y-112787993D01*
X98925465Y-112787993D01*
X98925465Y-112787984D01*
X98905636Y-112523379D01*
X98905635Y-112523374D01*
X98905635Y-112523370D01*
X98846586Y-112264662D01*
X98749639Y-112017644D01*
X98616958Y-111787834D01*
X98451508Y-111580366D01*
X98256984Y-111399875D01*
X98144165Y-111322956D01*
X98037736Y-111250393D01*
X98037725Y-111250386D01*
X97798655Y-111135257D01*
X97798636Y-111135250D01*
X97545083Y-111057040D01*
X97545073Y-111057037D01*
X97282688Y-111017489D01*
X97282681Y-111017489D01*
X97017319Y-111017489D01*
X97017311Y-111017489D01*
X96754926Y-111057037D01*
X96754916Y-111057040D01*
X96501363Y-111135250D01*
X96501344Y-111135257D01*
X96262276Y-111250386D01*
X96262274Y-111250387D01*
X96043015Y-111399875D01*
X95848494Y-111580364D01*
X95848492Y-111580366D01*
X95747185Y-111707402D01*
X95689997Y-111747542D01*
X95650238Y-111754089D01*
X79773926Y-111754089D01*
X79706887Y-111734404D01*
X79686245Y-111717770D01*
X78730656Y-110762181D01*
X78697171Y-110700858D01*
X78702155Y-110631166D01*
X78744027Y-110575233D01*
X78809491Y-110550816D01*
X78818337Y-110550500D01*
X128724464Y-110550500D01*
X128791503Y-110570185D01*
X128837258Y-110622989D01*
X128847202Y-110692147D01*
X128818177Y-110755703D01*
X128812145Y-110762181D01*
X124894545Y-114679781D01*
X124833222Y-114713266D01*
X124806864Y-114716100D01*
X120825585Y-114716100D01*
X120758546Y-114696415D01*
X120746116Y-114687288D01*
X120675019Y-114627932D01*
X120675013Y-114627928D01*
X120479245Y-114516847D01*
X120266786Y-114442502D01*
X120266783Y-114442501D01*
X120044460Y-114407289D01*
X119819421Y-114412340D01*
X119598911Y-114457490D01*
X119598898Y-114457494D01*
X119389991Y-114541292D01*
X119199395Y-114661051D01*
X119033254Y-114812911D01*
X118896889Y-114992009D01*
X118794701Y-115192563D01*
X118729963Y-115408150D01*
X118704762Y-115631820D01*
X118704761Y-115631831D01*
X118719903Y-115856407D01*
X118719903Y-115856412D01*
X118774902Y-116074678D01*
X118774903Y-116074681D01*
X118867991Y-116279622D01*
X118867997Y-116279632D01*
X118996180Y-116464654D01*
X119031859Y-116500333D01*
X119045752Y-116516889D01*
X119079174Y-116564620D01*
X119183527Y-116668973D01*
X119235381Y-116720827D01*
X119283106Y-116754244D01*
X119299664Y-116768138D01*
X119330242Y-116798716D01*
X119334879Y-116803904D01*
X119359092Y-116834266D01*
X119410567Y-116879239D01*
X119413600Y-116882074D01*
X119422071Y-116890545D01*
X119422075Y-116890549D01*
X119422079Y-116890552D01*
X119454417Y-116917549D01*
X119528601Y-116982363D01*
X119532350Y-116984603D01*
X119548224Y-116995865D01*
X119551581Y-116998668D01*
X119637259Y-117047283D01*
X119721836Y-117097815D01*
X119725927Y-117099350D01*
X119743555Y-117107596D01*
X119747355Y-117109753D01*
X119840340Y-117142290D01*
X119932576Y-117176907D01*
X119932580Y-117176907D01*
X119932581Y-117176908D01*
X119936864Y-117177685D01*
X119955686Y-117182652D01*
X119959818Y-117184098D01*
X120057123Y-117199509D01*
X120077698Y-117203243D01*
X120154051Y-117217100D01*
X120154053Y-117217100D01*
X120158428Y-117217100D01*
X120177831Y-117218628D01*
X120179538Y-117218897D01*
X120182140Y-117219310D01*
X120280622Y-117217100D01*
X125302493Y-117217100D01*
X125309433Y-117217489D01*
X125324319Y-117219166D01*
X125327320Y-117219505D01*
X125391734Y-117246570D01*
X125431290Y-117304165D01*
X125433429Y-117374002D01*
X125401119Y-117430406D01*
X124918345Y-117913181D01*
X124857022Y-117946666D01*
X124830664Y-117949500D01*
X80781136Y-117949500D01*
X80714097Y-117929815D01*
X80693455Y-117913181D01*
X79757197Y-116976923D01*
X79724672Y-116919682D01*
X79684063Y-116759319D01*
X79584173Y-116531593D01*
X79540440Y-116464654D01*
X79448166Y-116323417D01*
X79382546Y-116252135D01*
X79279744Y-116140462D01*
X79083509Y-115987726D01*
X79083507Y-115987725D01*
X79083506Y-115987724D01*
X78864811Y-115869372D01*
X78864802Y-115869369D01*
X78629616Y-115788629D01*
X78384335Y-115747700D01*
X78135665Y-115747700D01*
X77890383Y-115788629D01*
X77655197Y-115869369D01*
X77655188Y-115869372D01*
X77436493Y-115987724D01*
X77240257Y-116140461D01*
X77071833Y-116323417D01*
X76935826Y-116531593D01*
X76835936Y-116759318D01*
X76774892Y-117000375D01*
X76774890Y-117000387D01*
X76754357Y-117248194D01*
X76754357Y-117248205D01*
X76774890Y-117496012D01*
X76774892Y-117496024D01*
X76835936Y-117737081D01*
X76935826Y-117964806D01*
X77071833Y-118172982D01*
X77071836Y-118172985D01*
X77240256Y-118355938D01*
X77436491Y-118508674D01*
X77436493Y-118508675D01*
X77604640Y-118599672D01*
X77655190Y-118627028D01*
X77811423Y-118680663D01*
X77890380Y-118707769D01*
X77890385Y-118707771D01*
X77924073Y-118713392D01*
X77986959Y-118743841D01*
X77991346Y-118748020D01*
X78831145Y-119587819D01*
X78864630Y-119649142D01*
X78859646Y-119718834D01*
X78817774Y-119774767D01*
X78752310Y-119799184D01*
X78743464Y-119799500D01*
X71019337Y-119799500D01*
X70952298Y-119779815D01*
X70931656Y-119763181D01*
X70086819Y-118918344D01*
X70053334Y-118857021D01*
X70050500Y-118830663D01*
X70050500Y-118743850D01*
X70050499Y-118743841D01*
X70035377Y-118575812D01*
X70024728Y-118537225D01*
X69975496Y-118358839D01*
X69975491Y-118358826D01*
X69945272Y-118296076D01*
X69945269Y-118296070D01*
X71679500Y-118296070D01*
X71679501Y-118296076D01*
X71685908Y-118355683D01*
X71736202Y-118490528D01*
X71736206Y-118490535D01*
X71822452Y-118605744D01*
X71822455Y-118605747D01*
X71937664Y-118691993D01*
X71937671Y-118691997D01*
X72072517Y-118742291D01*
X72072516Y-118742291D01*
X72079444Y-118743035D01*
X72132127Y-118748700D01*
X74227872Y-118748699D01*
X74287483Y-118742291D01*
X74422331Y-118691996D01*
X74537546Y-118605746D01*
X74623796Y-118490531D01*
X74674091Y-118355683D01*
X74680500Y-118296073D01*
X74680499Y-116200328D01*
X74674091Y-116140717D01*
X74649461Y-116074681D01*
X74623797Y-116005871D01*
X74623793Y-116005864D01*
X74537547Y-115890655D01*
X74537544Y-115890652D01*
X74422335Y-115804406D01*
X74422328Y-115804402D01*
X74287482Y-115754108D01*
X74287483Y-115754108D01*
X74227883Y-115747701D01*
X74227881Y-115747700D01*
X74227873Y-115747700D01*
X74227864Y-115747700D01*
X72132129Y-115747700D01*
X72132123Y-115747701D01*
X72072516Y-115754108D01*
X71937671Y-115804402D01*
X71937664Y-115804406D01*
X71822455Y-115890652D01*
X71822452Y-115890655D01*
X71736206Y-116005864D01*
X71736202Y-116005871D01*
X71685908Y-116140717D01*
X71679501Y-116200316D01*
X71679501Y-116200323D01*
X71679500Y-116200335D01*
X71679500Y-118296070D01*
X69945269Y-118296070D01*
X69925603Y-118255232D01*
X69877832Y-118156033D01*
X69877828Y-118156025D01*
X69745526Y-117973927D01*
X69745525Y-117973925D01*
X69719978Y-117949500D01*
X69582825Y-117818368D01*
X69582823Y-117818366D01*
X69394966Y-117694363D01*
X69187995Y-117605899D01*
X69187982Y-117605895D01*
X68968542Y-117555810D01*
X68968538Y-117555809D01*
X68968537Y-117555809D01*
X68968536Y-117555808D01*
X68968531Y-117555808D01*
X68743674Y-117545710D01*
X68743673Y-117545710D01*
X68743670Y-117545710D01*
X68520613Y-117575925D01*
X68520610Y-117575925D01*
X68520609Y-117575926D01*
X68306534Y-117645483D01*
X68108321Y-117752146D01*
X68108318Y-117752148D01*
X67932336Y-117892489D01*
X67784236Y-118062003D01*
X67668787Y-118255232D01*
X67668786Y-118255234D01*
X67589692Y-118465977D01*
X67576762Y-118537225D01*
X67545423Y-118599672D01*
X67485297Y-118635263D01*
X67415474Y-118632697D01*
X67367074Y-118602764D01*
X63486819Y-114722508D01*
X63453334Y-114661185D01*
X63450500Y-114634827D01*
X63450500Y-84029335D01*
X63470185Y-83962296D01*
X63486814Y-83941659D01*
X65476668Y-81951805D01*
X77674357Y-81951805D01*
X77694890Y-82199612D01*
X77694892Y-82199624D01*
X77755936Y-82440681D01*
X77855826Y-82668406D01*
X77991833Y-82876582D01*
X77991836Y-82876585D01*
X78160256Y-83059538D01*
X78356491Y-83212274D01*
X78575190Y-83330628D01*
X78810386Y-83411371D01*
X79055665Y-83452300D01*
X79304335Y-83452300D01*
X79549614Y-83411371D01*
X79784810Y-83330628D01*
X80003509Y-83212274D01*
X80199744Y-83059538D01*
X80254856Y-82999670D01*
X82759500Y-82999670D01*
X82759501Y-82999676D01*
X82765908Y-83059283D01*
X82816202Y-83194128D01*
X82816206Y-83194135D01*
X82902452Y-83309344D01*
X82902455Y-83309347D01*
X83017664Y-83395593D01*
X83017671Y-83395597D01*
X83152517Y-83445891D01*
X83152516Y-83445891D01*
X83159444Y-83446635D01*
X83212127Y-83452300D01*
X85307872Y-83452299D01*
X85367483Y-83445891D01*
X85502331Y-83395596D01*
X85617546Y-83309346D01*
X85703796Y-83194131D01*
X85754091Y-83059283D01*
X85760500Y-82999673D01*
X85760499Y-80903928D01*
X85754091Y-80844317D01*
X85744880Y-80819622D01*
X85703797Y-80709471D01*
X85703793Y-80709464D01*
X85617547Y-80594255D01*
X85617544Y-80594252D01*
X85502335Y-80508006D01*
X85502328Y-80508002D01*
X85367482Y-80457708D01*
X85367483Y-80457708D01*
X85307883Y-80451301D01*
X85307881Y-80451300D01*
X85307873Y-80451300D01*
X85307864Y-80451300D01*
X83212129Y-80451300D01*
X83212123Y-80451301D01*
X83152516Y-80457708D01*
X83017671Y-80508002D01*
X83017664Y-80508006D01*
X82902455Y-80594252D01*
X82902452Y-80594255D01*
X82816206Y-80709464D01*
X82816202Y-80709471D01*
X82765908Y-80844317D01*
X82759501Y-80903916D01*
X82759501Y-80903923D01*
X82759500Y-80903935D01*
X82759500Y-82999670D01*
X80254856Y-82999670D01*
X80368164Y-82876585D01*
X80504173Y-82668407D01*
X80604063Y-82440681D01*
X80665108Y-82199621D01*
X80670365Y-82136180D01*
X80685643Y-81951805D01*
X80685643Y-81951794D01*
X80665109Y-81703987D01*
X80665107Y-81703975D01*
X80604063Y-81462918D01*
X80504173Y-81235193D01*
X80368166Y-81027017D01*
X80346557Y-81003544D01*
X80199744Y-80844062D01*
X80003509Y-80691326D01*
X80003507Y-80691325D01*
X80003506Y-80691324D01*
X79784811Y-80572972D01*
X79784802Y-80572969D01*
X79549616Y-80492229D01*
X79304335Y-80451300D01*
X79055665Y-80451300D01*
X78810383Y-80492229D01*
X78575197Y-80572969D01*
X78575188Y-80572972D01*
X78356493Y-80691324D01*
X78160257Y-80844061D01*
X77991833Y-81027017D01*
X77855826Y-81235193D01*
X77755936Y-81462918D01*
X77694892Y-81703975D01*
X77694890Y-81703987D01*
X77674357Y-81951794D01*
X77674357Y-81951805D01*
X65476668Y-81951805D01*
X71023374Y-76405098D01*
X71084695Y-76371615D01*
X71151313Y-76375499D01*
X71434183Y-76472609D01*
X71784172Y-76551043D01*
X72140665Y-76590500D01*
X99638115Y-76590500D01*
X99644088Y-76590787D01*
X99663458Y-76592662D01*
X99820352Y-76590500D01*
X99887584Y-76590500D01*
X99887587Y-76590500D01*
X99909967Y-76589265D01*
X99909967Y-76589264D01*
X100022094Y-76587720D01*
X100086778Y-76579656D01*
X100091023Y-76579275D01*
X100156114Y-76575685D01*
X100266724Y-76557227D01*
X100378010Y-76543356D01*
X100441436Y-76528220D01*
X100445589Y-76527379D01*
X100509893Y-76516650D01*
X100617791Y-76486138D01*
X100726885Y-76460107D01*
X100788262Y-76438085D01*
X100792269Y-76436800D01*
X100855030Y-76419054D01*
X100958921Y-76376856D01*
X101064484Y-76338983D01*
X101123074Y-76310339D01*
X101126910Y-76308625D01*
X101187335Y-76284083D01*
X101285955Y-76230712D01*
X101386711Y-76181456D01*
X101441773Y-76146553D01*
X101445445Y-76144400D01*
X101502776Y-76113375D01*
X101594924Y-76049480D01*
X101689652Y-75989438D01*
X101740545Y-75948686D01*
X101743950Y-75946147D01*
X101797523Y-75909002D01*
X101882076Y-75835364D01*
X101969631Y-75765260D01*
X102015755Y-75719134D01*
X102018834Y-75716261D01*
X102067999Y-75673445D01*
X102143939Y-75590951D01*
X104334889Y-73400002D01*
X124332677Y-73400002D01*
X124351929Y-73620062D01*
X124351930Y-73620070D01*
X124409104Y-73833445D01*
X124409105Y-73833447D01*
X124409106Y-73833450D01*
X124470030Y-73964103D01*
X124502466Y-74033662D01*
X124502468Y-74033666D01*
X124629170Y-74214615D01*
X124629175Y-74214621D01*
X124785378Y-74370824D01*
X124785384Y-74370829D01*
X124966333Y-74497531D01*
X124966335Y-74497532D01*
X124966338Y-74497534D01*
X125166550Y-74590894D01*
X125379932Y-74648070D01*
X125537123Y-74661822D01*
X125599998Y-74667323D01*
X125600000Y-74667323D01*
X125600002Y-74667323D01*
X125655017Y-74662509D01*
X125820068Y-74648070D01*
X126033450Y-74590894D01*
X126233662Y-74497534D01*
X126414620Y-74370826D01*
X126570826Y-74214620D01*
X126697534Y-74033662D01*
X126790894Y-73833450D01*
X126848070Y-73620068D01*
X126867323Y-73400000D01*
X126848070Y-73179932D01*
X126790894Y-72966550D01*
X126697534Y-72766339D01*
X126588662Y-72610853D01*
X126570827Y-72585381D01*
X126526278Y-72540832D01*
X126414620Y-72429174D01*
X126414616Y-72429171D01*
X126414615Y-72429170D01*
X126233666Y-72302468D01*
X126233662Y-72302466D01*
X126233662Y-72302465D01*
X126033450Y-72209106D01*
X126033447Y-72209105D01*
X126033445Y-72209104D01*
X125820070Y-72151930D01*
X125820062Y-72151929D01*
X125600002Y-72132677D01*
X125599998Y-72132677D01*
X125379937Y-72151929D01*
X125379929Y-72151930D01*
X125166554Y-72209104D01*
X125166548Y-72209107D01*
X124966340Y-72302465D01*
X124966338Y-72302466D01*
X124785377Y-72429175D01*
X124629175Y-72585377D01*
X124502466Y-72766338D01*
X124502465Y-72766340D01*
X124409107Y-72966548D01*
X124409104Y-72966554D01*
X124351930Y-73179929D01*
X124351929Y-73179937D01*
X124332677Y-73399997D01*
X124332677Y-73400002D01*
X104334889Y-73400002D01*
X105061804Y-72673087D01*
X105061806Y-72673085D01*
X105061806Y-72673086D01*
X105180224Y-72540836D01*
X105241207Y-72472731D01*
X105449623Y-72180828D01*
X105624661Y-71867768D01*
X105764197Y-71537354D01*
X105866538Y-71193595D01*
X105930443Y-70840664D01*
X105955134Y-70482845D01*
X105953279Y-70437993D01*
X108524535Y-70437993D01*
X108544363Y-70702598D01*
X108544364Y-70702603D01*
X108603410Y-70961302D01*
X108603412Y-70961311D01*
X108603414Y-70961316D01*
X108700361Y-71208334D01*
X108833042Y-71438144D01*
X108998492Y-71645612D01*
X109193016Y-71826103D01*
X109412268Y-71975587D01*
X109651350Y-72090723D01*
X109904922Y-72168939D01*
X109904923Y-72168939D01*
X109904926Y-72168940D01*
X110167311Y-72208488D01*
X110167316Y-72208488D01*
X110167319Y-72208489D01*
X110167320Y-72208489D01*
X110432680Y-72208489D01*
X110432681Y-72208489D01*
X110432688Y-72208488D01*
X110695073Y-72168940D01*
X110695074Y-72168939D01*
X110695078Y-72168939D01*
X110948650Y-72090723D01*
X111187733Y-71975587D01*
X111406984Y-71826103D01*
X111601508Y-71645612D01*
X111766958Y-71438144D01*
X111899639Y-71208334D01*
X111996586Y-70961316D01*
X112055635Y-70702608D01*
X112055636Y-70702598D01*
X112075465Y-70437993D01*
X112075465Y-70437984D01*
X112057631Y-70200003D01*
X132714415Y-70200003D01*
X132734738Y-70548927D01*
X132734739Y-70548938D01*
X132795428Y-70893127D01*
X132795430Y-70893134D01*
X132895674Y-71227972D01*
X133034107Y-71548895D01*
X133034113Y-71548908D01*
X133208870Y-71851597D01*
X133417584Y-72131949D01*
X133417589Y-72131955D01*
X133489795Y-72208488D01*
X133657442Y-72386183D01*
X133833903Y-72534251D01*
X133925186Y-72610847D01*
X133925194Y-72610853D01*
X134217203Y-72802911D01*
X134217207Y-72802913D01*
X134529549Y-72959777D01*
X134857989Y-73079319D01*
X135198086Y-73159923D01*
X135545241Y-73200500D01*
X135545248Y-73200500D01*
X135894752Y-73200500D01*
X135894759Y-73200500D01*
X136241914Y-73159923D01*
X136582011Y-73079319D01*
X136910451Y-72959777D01*
X137222793Y-72802913D01*
X137514811Y-72610849D01*
X137782558Y-72386183D01*
X138022412Y-72131953D01*
X138231130Y-71851596D01*
X138405889Y-71548904D01*
X138544326Y-71227971D01*
X138644569Y-70893136D01*
X138653822Y-70840664D01*
X138705260Y-70548938D01*
X138705259Y-70548938D01*
X138705262Y-70548927D01*
X138725585Y-70200000D01*
X138724034Y-70173379D01*
X138718002Y-70069815D01*
X138705262Y-69851073D01*
X138666710Y-69632432D01*
X138644571Y-69506872D01*
X138644569Y-69506865D01*
X138628737Y-69453981D01*
X138544326Y-69172029D01*
X138405889Y-68851096D01*
X138231130Y-68548404D01*
X138231129Y-68548402D01*
X138022415Y-68268050D01*
X138022410Y-68268044D01*
X137897356Y-68135496D01*
X137782558Y-68013817D01*
X137634488Y-67889572D01*
X137514813Y-67789152D01*
X137514805Y-67789146D01*
X137222796Y-67597088D01*
X136910458Y-67440226D01*
X136910452Y-67440223D01*
X136582012Y-67320681D01*
X136582009Y-67320680D01*
X136241915Y-67240077D01*
X136195338Y-67234633D01*
X135894759Y-67199500D01*
X135545241Y-67199500D01*
X135244662Y-67234633D01*
X135198085Y-67240077D01*
X135198083Y-67240077D01*
X134857990Y-67320680D01*
X134857987Y-67320681D01*
X134529547Y-67440223D01*
X134529541Y-67440226D01*
X134217203Y-67597088D01*
X133925194Y-67789146D01*
X133925186Y-67789152D01*
X133657442Y-68013817D01*
X133657440Y-68013819D01*
X133417589Y-68268044D01*
X133417584Y-68268050D01*
X133208870Y-68548402D01*
X133034113Y-68851091D01*
X133034107Y-68851104D01*
X132895674Y-69172027D01*
X132795430Y-69506865D01*
X132795428Y-69506872D01*
X132734739Y-69851061D01*
X132734738Y-69851072D01*
X132714415Y-70199996D01*
X132714415Y-70200003D01*
X112057631Y-70200003D01*
X112055636Y-70173379D01*
X112055635Y-70173374D01*
X112055635Y-70173370D01*
X111996586Y-69914662D01*
X111899639Y-69667644D01*
X111766958Y-69437834D01*
X111601508Y-69230366D01*
X111406984Y-69049875D01*
X111187733Y-68900391D01*
X111187732Y-68900390D01*
X111187725Y-68900386D01*
X110948655Y-68785257D01*
X110948636Y-68785250D01*
X110695083Y-68707040D01*
X110695073Y-68707037D01*
X110432688Y-68667489D01*
X110432681Y-68667489D01*
X110167319Y-68667489D01*
X110167311Y-68667489D01*
X109904926Y-68707037D01*
X109904916Y-68707040D01*
X109651363Y-68785250D01*
X109651344Y-68785257D01*
X109412276Y-68900386D01*
X109412274Y-68900387D01*
X109193015Y-69049875D01*
X108998494Y-69230364D01*
X108998492Y-69230366D01*
X108833042Y-69437834D01*
X108700361Y-69667643D01*
X108603416Y-69914656D01*
X108603410Y-69914675D01*
X108544364Y-70173374D01*
X108544363Y-70173379D01*
X108524535Y-70437984D01*
X108524535Y-70437993D01*
X105953279Y-70437993D01*
X105940312Y-70124480D01*
X105886157Y-69769923D01*
X105793326Y-69423473D01*
X105777518Y-69382961D01*
X105662947Y-69089339D01*
X105662944Y-69089333D01*
X105496602Y-68771579D01*
X105496601Y-68771576D01*
X105296312Y-68474047D01*
X105189109Y-68347472D01*
X105064501Y-68200346D01*
X104803990Y-67953813D01*
X104517940Y-67737434D01*
X104209823Y-67553836D01*
X104187607Y-67543724D01*
X103960226Y-67440226D01*
X103883379Y-67405247D01*
X103542571Y-67293473D01*
X103191535Y-67219868D01*
X102981017Y-67199500D01*
X102834530Y-67185327D01*
X102834528Y-67185327D01*
X102475901Y-67190268D01*
X102475887Y-67190269D01*
X102119985Y-67234633D01*
X102119976Y-67234634D01*
X101826978Y-67304550D01*
X101771104Y-67317883D01*
X101771102Y-67317883D01*
X101771092Y-67317886D01*
X101433504Y-67439005D01*
X101433496Y-67439009D01*
X101111276Y-67596533D01*
X100808338Y-67788550D01*
X100528363Y-68012725D01*
X100528353Y-68012734D01*
X98487907Y-70053181D01*
X98426584Y-70086666D01*
X98400226Y-70089500D01*
X73098773Y-70089500D01*
X73031734Y-70069815D01*
X72985979Y-70017011D01*
X72976035Y-69947853D01*
X73005060Y-69884297D01*
X73044972Y-69853780D01*
X73197696Y-69780232D01*
X73197696Y-69780231D01*
X73197704Y-69780228D01*
X73414479Y-69632433D01*
X73606805Y-69453981D01*
X73770386Y-69248857D01*
X73901568Y-69021643D01*
X73997420Y-68777416D01*
X74055802Y-68521630D01*
X74069173Y-68343200D01*
X74075408Y-68260004D01*
X74075408Y-68259995D01*
X74055803Y-67998379D01*
X74055802Y-67998374D01*
X74055802Y-67998370D01*
X73997420Y-67742584D01*
X73901568Y-67498357D01*
X73770386Y-67271143D01*
X73606805Y-67066019D01*
X73606804Y-67066018D01*
X73606801Y-67066014D01*
X73414479Y-66887567D01*
X73382161Y-66865533D01*
X73197704Y-66739772D01*
X73197700Y-66739770D01*
X73197697Y-66739768D01*
X73197696Y-66739767D01*
X72963723Y-66627093D01*
X72961325Y-66625938D01*
X72961327Y-66625938D01*
X72710623Y-66548606D01*
X72710619Y-66548605D01*
X72710615Y-66548604D01*
X72582172Y-66529244D01*
X72451187Y-66509500D01*
X72451182Y-66509500D01*
X72188818Y-66509500D01*
X72188812Y-66509500D01*
X72027247Y-66533853D01*
X71929385Y-66548604D01*
X71929381Y-66548605D01*
X71929382Y-66548605D01*
X71929376Y-66548606D01*
X71678673Y-66625938D01*
X71442303Y-66739767D01*
X71442302Y-66739768D01*
X71225520Y-66887567D01*
X71033198Y-67066014D01*
X70869614Y-67271143D01*
X70738432Y-67498356D01*
X70642582Y-67742578D01*
X70642576Y-67742597D01*
X70584197Y-67998374D01*
X70584196Y-67998379D01*
X70564592Y-68259995D01*
X70564592Y-68260004D01*
X70584196Y-68521620D01*
X70584197Y-68521625D01*
X70642576Y-68777402D01*
X70642578Y-68777411D01*
X70642580Y-68777416D01*
X70738432Y-69021643D01*
X70869614Y-69248857D01*
X70984706Y-69393178D01*
X71033198Y-69453985D01*
X71190460Y-69599901D01*
X71225521Y-69632433D01*
X71442296Y-69780228D01*
X71442301Y-69780230D01*
X71442302Y-69780231D01*
X71442303Y-69780232D01*
X71589382Y-69851061D01*
X71678677Y-69894063D01*
X71719499Y-69906655D01*
X71777757Y-69945224D01*
X71805914Y-70009169D01*
X71795031Y-70078186D01*
X71748563Y-70130362D01*
X71703359Y-70147453D01*
X71655105Y-70155505D01*
X71608094Y-70163350D01*
X71608090Y-70163351D01*
X71262960Y-70260945D01*
X71262957Y-70260946D01*
X70930661Y-70395913D01*
X70930648Y-70395919D01*
X70615220Y-70566620D01*
X70615219Y-70566621D01*
X70320460Y-70771002D01*
X70049996Y-71006548D01*
X70049992Y-71006551D01*
X69807067Y-71270440D01*
X69594652Y-71559441D01*
X69594651Y-71559442D01*
X69415317Y-71870058D01*
X69271240Y-72198520D01*
X69271239Y-72198521D01*
X69164173Y-72540832D01*
X69095412Y-72892849D01*
X69095410Y-72892863D01*
X69065793Y-73250287D01*
X69065792Y-73250291D01*
X69075675Y-73608822D01*
X69075675Y-73608827D01*
X69075676Y-73608832D01*
X69106823Y-73833445D01*
X69124942Y-73964107D01*
X69212987Y-74311793D01*
X69212990Y-74311801D01*
X69284912Y-74503900D01*
X69289983Y-74573585D01*
X69256574Y-74634950D01*
X61367885Y-82523639D01*
X61362699Y-82528274D01*
X61332337Y-82552488D01*
X61332333Y-82552492D01*
X61287365Y-82603960D01*
X61284521Y-82607003D01*
X61276064Y-82615461D01*
X61276054Y-82615472D01*
X61249049Y-82647818D01*
X61184234Y-82722004D01*
X61184230Y-82722010D01*
X61181981Y-82725774D01*
X61170746Y-82741608D01*
X61167934Y-82744977D01*
X61167932Y-82744981D01*
X61119316Y-82830659D01*
X61091879Y-82876582D01*
X61068783Y-82915238D01*
X61067247Y-82919332D01*
X61059008Y-82936945D01*
X61056850Y-82940747D01*
X61056846Y-82940757D01*
X61024307Y-83033746D01*
X60989694Y-83125970D01*
X60989689Y-83125988D01*
X60988909Y-83130288D01*
X60983952Y-83149069D01*
X60982503Y-83153209D01*
X60982502Y-83153215D01*
X60967089Y-83250527D01*
X60949500Y-83347448D01*
X60949500Y-83351827D01*
X60947973Y-83371229D01*
X60947289Y-83375540D01*
X60949500Y-83474021D01*
X60949500Y-115130457D01*
X60949110Y-115137395D01*
X60946792Y-115157968D01*
X60944762Y-115175987D01*
X60944761Y-115175995D01*
X60949359Y-115244177D01*
X60949500Y-115248350D01*
X60949500Y-115260320D01*
X60953277Y-115302288D01*
X60959903Y-115400571D01*
X60959903Y-115400576D01*
X60960972Y-115404816D01*
X60964230Y-115423988D01*
X60964623Y-115428354D01*
X60990835Y-115523329D01*
X61014903Y-115618845D01*
X61016715Y-115622834D01*
X61023340Y-115641108D01*
X61024504Y-115645326D01*
X61024507Y-115645334D01*
X61067253Y-115734099D01*
X61107993Y-115823790D01*
X61107994Y-115823793D01*
X61110483Y-115827385D01*
X61120269Y-115844190D01*
X61122166Y-115848129D01*
X61122174Y-115848143D01*
X61180078Y-115927840D01*
X61236180Y-116008819D01*
X61239273Y-116011912D01*
X61251907Y-116026703D01*
X61254478Y-116030242D01*
X61254481Y-116030245D01*
X61325679Y-116098317D01*
X68809478Y-123582116D01*
X68814115Y-123587304D01*
X68838328Y-123617666D01*
X68889803Y-123662639D01*
X68892836Y-123665474D01*
X68901307Y-123673945D01*
X68933655Y-123700951D01*
X69007840Y-123765765D01*
X69011589Y-123768005D01*
X69027458Y-123779264D01*
X69030816Y-123782067D01*
X69030819Y-123782070D01*
X69116509Y-123830690D01*
X69116509Y-123830691D01*
X69201072Y-123881215D01*
X69205158Y-123882748D01*
X69222792Y-123890997D01*
X69226592Y-123893154D01*
X69319591Y-123925695D01*
X69411812Y-123960307D01*
X69416102Y-123961085D01*
X69434930Y-123966055D01*
X69439054Y-123967498D01*
X69536375Y-123982912D01*
X69568679Y-123988774D01*
X69633287Y-124000500D01*
X69633289Y-124000500D01*
X69637658Y-124000500D01*
X69657056Y-124002026D01*
X69661377Y-124002711D01*
X69759884Y-124000500D01*
X123880664Y-124000500D01*
X123947703Y-124020185D01*
X123968345Y-124036819D01*
X128313646Y-128382121D01*
X128318283Y-128387309D01*
X128342492Y-128417666D01*
X128393959Y-128462632D01*
X128396992Y-128465467D01*
X128405469Y-128473944D01*
X128405475Y-128473950D01*
X128437833Y-128500964D01*
X128489563Y-128546158D01*
X128512004Y-128565765D01*
X128515766Y-128568013D01*
X128531622Y-128579264D01*
X128534981Y-128582068D01*
X128620659Y-128630683D01*
X128705232Y-128681213D01*
X128705233Y-128681213D01*
X128705236Y-128681215D01*
X128709327Y-128682750D01*
X128726955Y-128690996D01*
X128730755Y-128693153D01*
X128823746Y-128725691D01*
X128823746Y-128725692D01*
X128914627Y-128759801D01*
X128915976Y-128760307D01*
X128918565Y-128760776D01*
X128920274Y-128761087D01*
X128939089Y-128766053D01*
X128943217Y-128767498D01*
X129040526Y-128782910D01*
X129040527Y-128782910D01*
X129137450Y-128800500D01*
X129137453Y-128800500D01*
X129141828Y-128800500D01*
X129161231Y-128802028D01*
X129162938Y-128802297D01*
X129165540Y-128802710D01*
X129264002Y-128800500D01*
X129636231Y-128800500D01*
X129703270Y-128820185D01*
X129749025Y-128872989D01*
X129758969Y-128942147D01*
X129752413Y-128967833D01*
X129705908Y-129092517D01*
X129699501Y-129152116D01*
X129699500Y-129152135D01*
X129699500Y-133247870D01*
X129699501Y-133247876D01*
X129705908Y-133307483D01*
X129756202Y-133442328D01*
X129756206Y-133442335D01*
X129842452Y-133557544D01*
X129842455Y-133557547D01*
X129957664Y-133643793D01*
X129957671Y-133643797D01*
X130092517Y-133694091D01*
X130092516Y-133694091D01*
X130099444Y-133694835D01*
X130152127Y-133700500D01*
X131180663Y-133700499D01*
X131247702Y-133720183D01*
X131268344Y-133736818D01*
X132013642Y-134482116D01*
X132018279Y-134487304D01*
X132042492Y-134517666D01*
X132093967Y-134562639D01*
X132097000Y-134565474D01*
X132105471Y-134573945D01*
X132105475Y-134573949D01*
X132105479Y-134573952D01*
X132134381Y-134598081D01*
X132137811Y-134600944D01*
X132212002Y-134665764D01*
X132215755Y-134668006D01*
X132231626Y-134679266D01*
X132234982Y-134682068D01*
X132234984Y-134682069D01*
X132320663Y-134730685D01*
X132405227Y-134781210D01*
X132405230Y-134781211D01*
X132405236Y-134781215D01*
X132409327Y-134782750D01*
X132426946Y-134790992D01*
X132430755Y-134793154D01*
X132523762Y-134825698D01*
X132615976Y-134860307D01*
X132620266Y-134861085D01*
X132639094Y-134866055D01*
X132643218Y-134867498D01*
X132740539Y-134882912D01*
X132761098Y-134886643D01*
X132837451Y-134900500D01*
X132837453Y-134900500D01*
X132841822Y-134900500D01*
X132861220Y-134902026D01*
X132865541Y-134902711D01*
X132964048Y-134900500D01*
X137219298Y-134900500D01*
X137226236Y-134900889D01*
X137264832Y-134905238D01*
X137264834Y-134905237D01*
X137264835Y-134905238D01*
X137282591Y-134904040D01*
X137333037Y-134900639D01*
X137337193Y-134900500D01*
X137349152Y-134900500D01*
X137349160Y-134900500D01*
X137391128Y-134896722D01*
X137489417Y-134890096D01*
X137493651Y-134889028D01*
X137512846Y-134885767D01*
X137517193Y-134885377D01*
X137612170Y-134859164D01*
X137707688Y-134835096D01*
X137711660Y-134833291D01*
X137729967Y-134826654D01*
X137734175Y-134825493D01*
X137822940Y-134782746D01*
X137912631Y-134742007D01*
X137916225Y-134739516D01*
X137933040Y-134729724D01*
X137936978Y-134727829D01*
X138016681Y-134669921D01*
X138097659Y-134613820D01*
X138100748Y-134610730D01*
X138115550Y-134598088D01*
X138119083Y-134595522D01*
X138187158Y-134524320D01*
X140632127Y-132079350D01*
X140637287Y-132074738D01*
X140667666Y-132050513D01*
X140712632Y-131999044D01*
X140715478Y-131996000D01*
X140723929Y-131987550D01*
X140723929Y-131987549D01*
X140723944Y-131987535D01*
X140750947Y-131955190D01*
X140815765Y-131881001D01*
X140818006Y-131877248D01*
X140829274Y-131861369D01*
X140832068Y-131858024D01*
X140851678Y-131823462D01*
X140901880Y-131774870D01*
X140970386Y-131761132D01*
X141035444Y-131786613D01*
X141076398Y-131843221D01*
X141080247Y-131912985D01*
X141077787Y-131921944D01*
X141034681Y-132058658D01*
X141033309Y-132062552D01*
X140954536Y-132264433D01*
X140876524Y-132452769D01*
X140874944Y-132456274D01*
X140779750Y-132650992D01*
X140685525Y-132831998D01*
X140683791Y-132835107D01*
X140572797Y-133021382D01*
X140463040Y-133193663D01*
X140461209Y-133196377D01*
X140335162Y-133372918D01*
X140210716Y-133535099D01*
X140208839Y-133537426D01*
X140068557Y-133703059D01*
X139929426Y-133854895D01*
X139774895Y-134009426D01*
X139623059Y-134148557D01*
X139457426Y-134288839D01*
X139455099Y-134290716D01*
X139292918Y-134415162D01*
X139116377Y-134541209D01*
X139113663Y-134543040D01*
X138941382Y-134652797D01*
X138755107Y-134763791D01*
X138751998Y-134765525D01*
X138570992Y-134859750D01*
X138376274Y-134954944D01*
X138372769Y-134956524D01*
X138184433Y-135034536D01*
X137982552Y-135113309D01*
X137978658Y-135114681D01*
X137784503Y-135175899D01*
X137576798Y-135237735D01*
X137572526Y-135238843D01*
X137374173Y-135282818D01*
X137161897Y-135327326D01*
X137157265Y-135328115D01*
X136956680Y-135354524D01*
X136740884Y-135381422D01*
X136735918Y-135381839D01*
X136537271Y-135390513D01*
X136320000Y-135399500D01*
X65520000Y-135399500D01*
X65302728Y-135390513D01*
X65104080Y-135381839D01*
X65099114Y-135381422D01*
X64883319Y-135354524D01*
X64682733Y-135328115D01*
X64678101Y-135327326D01*
X64465826Y-135282818D01*
X64267472Y-135238843D01*
X64263200Y-135237735D01*
X64055496Y-135175899D01*
X63861340Y-135114681D01*
X63857445Y-135113309D01*
X63655566Y-135034536D01*
X63467229Y-134956524D01*
X63463744Y-134954953D01*
X63404503Y-134925992D01*
X63269007Y-134859750D01*
X63088000Y-134765525D01*
X63084891Y-134763791D01*
X62898617Y-134652797D01*
X62726335Y-134543040D01*
X62723621Y-134541209D01*
X62547081Y-134415162D01*
X62384900Y-134290716D01*
X62382572Y-134288839D01*
X62216940Y-134148557D01*
X62065103Y-134009424D01*
X61910574Y-133854895D01*
X61771439Y-133703055D01*
X61631159Y-133537426D01*
X61629282Y-133535098D01*
X61504837Y-133372918D01*
X61378789Y-133196377D01*
X61376957Y-133193662D01*
X61267202Y-133021382D01*
X61156207Y-132835107D01*
X61154473Y-132831998D01*
X61060249Y-132650992D01*
X60996323Y-132520232D01*
X60965045Y-132456252D01*
X60963494Y-132452817D01*
X60885463Y-132264433D01*
X60806680Y-132062530D01*
X60805317Y-132058658D01*
X60802749Y-132050513D01*
X60744112Y-131864544D01*
X60682257Y-131656778D01*
X60681155Y-131652526D01*
X60665223Y-131580663D01*
X60637175Y-131454145D01*
X60636261Y-131449788D01*
X60592671Y-131241894D01*
X60591883Y-131237265D01*
X60590660Y-131227972D01*
X60565489Y-131036791D01*
X60538574Y-130820865D01*
X60538160Y-130815934D01*
X60529486Y-130617271D01*
X60520500Y-130400000D01*
X60520500Y-130399500D01*
X60520500Y-130200003D01*
X62714415Y-130200003D01*
X62734738Y-130548927D01*
X62734739Y-130548938D01*
X62795428Y-130893127D01*
X62795430Y-130893134D01*
X62895674Y-131227972D01*
X63034107Y-131548895D01*
X63034113Y-131548908D01*
X63208870Y-131851597D01*
X63417584Y-132131949D01*
X63417589Y-132131955D01*
X63476108Y-132193981D01*
X63657442Y-132386183D01*
X63817196Y-132520232D01*
X63925186Y-132610847D01*
X63925194Y-132610853D01*
X64217203Y-132802911D01*
X64345318Y-132867253D01*
X64529549Y-132959777D01*
X64857989Y-133079319D01*
X65198086Y-133159923D01*
X65545241Y-133200500D01*
X65545248Y-133200500D01*
X65894752Y-133200500D01*
X65894759Y-133200500D01*
X66241914Y-133159923D01*
X66582011Y-133079319D01*
X66910451Y-132959777D01*
X67222793Y-132802913D01*
X67479519Y-132634061D01*
X67514805Y-132610853D01*
X67514805Y-132610852D01*
X67514811Y-132610849D01*
X67782558Y-132386183D01*
X68022412Y-132131953D01*
X68231130Y-131851596D01*
X68405889Y-131548904D01*
X68544326Y-131227971D01*
X68612575Y-131000004D01*
X83104592Y-131000004D01*
X83124196Y-131261620D01*
X83124197Y-131261625D01*
X83182576Y-131517402D01*
X83182578Y-131517411D01*
X83182580Y-131517416D01*
X83278432Y-131761643D01*
X83409614Y-131988857D01*
X83479822Y-132076895D01*
X83573198Y-132193985D01*
X83673978Y-132287494D01*
X83765521Y-132372433D01*
X83982296Y-132520228D01*
X83982301Y-132520230D01*
X83982302Y-132520231D01*
X83982303Y-132520232D01*
X84092707Y-132573399D01*
X84218673Y-132634061D01*
X84218674Y-132634061D01*
X84218677Y-132634063D01*
X84469385Y-132711396D01*
X84728818Y-132750500D01*
X84991182Y-132750500D01*
X85250615Y-132711396D01*
X85501323Y-132634063D01*
X85737704Y-132520228D01*
X85954479Y-132372433D01*
X86103733Y-132233945D01*
X86146801Y-132193985D01*
X86146801Y-132193983D01*
X86146805Y-132193981D01*
X86310386Y-131988857D01*
X86441568Y-131761643D01*
X86537420Y-131517416D01*
X86595802Y-131261630D01*
X86595803Y-131261620D01*
X86615408Y-131000004D01*
X88184592Y-131000004D01*
X88204196Y-131261620D01*
X88204197Y-131261625D01*
X88262576Y-131517402D01*
X88262578Y-131517411D01*
X88262580Y-131517416D01*
X88358432Y-131761643D01*
X88489614Y-131988857D01*
X88559822Y-132076895D01*
X88653198Y-132193985D01*
X88753978Y-132287494D01*
X88845521Y-132372433D01*
X89062296Y-132520228D01*
X89062301Y-132520230D01*
X89062302Y-132520231D01*
X89062303Y-132520232D01*
X89172707Y-132573399D01*
X89298673Y-132634061D01*
X89298674Y-132634061D01*
X89298677Y-132634063D01*
X89549385Y-132711396D01*
X89808818Y-132750500D01*
X90071182Y-132750500D01*
X90330615Y-132711396D01*
X90581323Y-132634063D01*
X90817704Y-132520228D01*
X91034479Y-132372433D01*
X91183733Y-132233945D01*
X91226801Y-132193985D01*
X91226801Y-132193983D01*
X91226805Y-132193981D01*
X91390386Y-131988857D01*
X91521568Y-131761643D01*
X91617420Y-131517416D01*
X91675802Y-131261630D01*
X91675803Y-131261620D01*
X91695408Y-131000004D01*
X91695408Y-130999995D01*
X91677010Y-130754481D01*
X104499500Y-130754481D01*
X104539609Y-131084803D01*
X104588293Y-131282324D01*
X104619241Y-131407885D01*
X104619242Y-131407889D01*
X104672724Y-131548908D01*
X104737235Y-131719010D01*
X104737237Y-131719014D01*
X104737238Y-131719016D01*
X104737238Y-131719017D01*
X104883385Y-131997473D01*
X104891872Y-132013644D01*
X104934030Y-132074720D01*
X105080892Y-132287488D01*
X105080897Y-132287494D01*
X105246346Y-132474247D01*
X105246346Y-132474246D01*
X105404058Y-132631958D01*
X105639346Y-132867247D01*
X105639348Y-132867249D01*
X105703428Y-132917451D01*
X105706282Y-132919829D01*
X105737868Y-132947811D01*
X105767199Y-132973798D01*
X105767208Y-132973805D01*
X105767215Y-132973811D01*
X105767224Y-132973817D01*
X105767229Y-132973821D01*
X105834191Y-133020041D01*
X105837196Y-133022251D01*
X105901281Y-133072459D01*
X105901282Y-133072460D01*
X105901291Y-133072466D01*
X105970924Y-133114560D01*
X105974070Y-133116594D01*
X105999964Y-133134467D01*
X106041062Y-133162835D01*
X106099798Y-133193662D01*
X106113141Y-133200665D01*
X106116401Y-133202503D01*
X106186043Y-133244604D01*
X106260250Y-133278002D01*
X106263605Y-133279635D01*
X106275321Y-133285784D01*
X106335696Y-133317471D01*
X106411795Y-133346331D01*
X106415257Y-133347765D01*
X106489477Y-133381169D01*
X106489481Y-133381170D01*
X106489488Y-133381173D01*
X106567189Y-133405385D01*
X106570727Y-133406605D01*
X106646822Y-133435465D01*
X106725883Y-133454951D01*
X106729438Y-133455943D01*
X106807159Y-133480162D01*
X106887232Y-133494835D01*
X106890871Y-133495617D01*
X106896953Y-133497116D01*
X106969903Y-133515097D01*
X107050716Y-133524909D01*
X107054387Y-133525468D01*
X107134458Y-133540142D01*
X107215723Y-133545057D01*
X107219390Y-133545390D01*
X107292130Y-133554223D01*
X107300224Y-133555206D01*
X107300225Y-133555206D01*
X120961669Y-133555206D01*
X121042505Y-133545390D01*
X121046166Y-133545057D01*
X121127436Y-133540142D01*
X121207495Y-133525469D01*
X121211185Y-133524908D01*
X121291991Y-133515097D01*
X121371031Y-133495614D01*
X121374653Y-133494836D01*
X121454735Y-133480162D01*
X121532447Y-133455945D01*
X121536016Y-133454949D01*
X121615072Y-133435465D01*
X121691194Y-133406595D01*
X121694704Y-133405384D01*
X121772417Y-133381169D01*
X121846654Y-133347756D01*
X121850084Y-133346336D01*
X121926198Y-133317471D01*
X121998300Y-133279627D01*
X122001611Y-133278015D01*
X122075851Y-133244604D01*
X122145502Y-133202497D01*
X122148752Y-133200663D01*
X122220832Y-133162834D01*
X122287840Y-133116580D01*
X122290911Y-133114594D01*
X122360612Y-133072460D01*
X122424708Y-133022242D01*
X122427669Y-133020063D01*
X122494679Y-132973811D01*
X122555616Y-132919824D01*
X122558447Y-132917464D01*
X122622546Y-132867248D01*
X122857836Y-132631958D01*
X122916395Y-132573399D01*
X122916408Y-132573384D01*
X125003662Y-130486132D01*
X125169105Y-130299386D01*
X125358128Y-130025538D01*
X125512765Y-129730904D01*
X125630759Y-129419778D01*
X125710391Y-129096697D01*
X125750500Y-128766375D01*
X125750500Y-128433625D01*
X125748724Y-128419001D01*
X125730395Y-128268050D01*
X125710391Y-128103303D01*
X125630759Y-127780222D01*
X125512765Y-127469096D01*
X125486949Y-127419909D01*
X125394518Y-127243797D01*
X125358128Y-127174462D01*
X125173846Y-126907483D01*
X125169112Y-126900624D01*
X125169110Y-126900622D01*
X125169109Y-126900621D01*
X125169105Y-126900615D01*
X124948452Y-126651548D01*
X124699385Y-126430895D01*
X124699379Y-126430891D01*
X124699377Y-126430889D01*
X124699375Y-126430887D01*
X124496034Y-126290531D01*
X124425538Y-126241872D01*
X124404873Y-126231026D01*
X124130911Y-126087238D01*
X124130906Y-126087236D01*
X124130904Y-126087235D01*
X124018107Y-126044457D01*
X123819783Y-125969242D01*
X123819779Y-125969241D01*
X123667317Y-125931663D01*
X123496697Y-125889609D01*
X123298503Y-125865543D01*
X123166377Y-125849500D01*
X123166375Y-125849500D01*
X122833625Y-125849500D01*
X122833623Y-125849500D01*
X122668464Y-125869554D01*
X122503303Y-125889609D01*
X122341762Y-125929424D01*
X122180220Y-125969241D01*
X122180216Y-125969242D01*
X121935367Y-126062101D01*
X121869096Y-126087235D01*
X121869093Y-126087236D01*
X121869089Y-126087238D01*
X121869088Y-126087238D01*
X121574474Y-126241865D01*
X121574463Y-126241871D01*
X121300617Y-126430891D01*
X121189446Y-126529381D01*
X121113868Y-126596338D01*
X121113860Y-126596345D01*
X121113860Y-126596346D01*
X119692319Y-128017887D01*
X119630996Y-128051372D01*
X119604638Y-128054206D01*
X108347899Y-128054206D01*
X108303928Y-128046148D01*
X108069783Y-127957348D01*
X108069779Y-127957347D01*
X107989007Y-127937439D01*
X107746697Y-127877715D01*
X107548503Y-127853649D01*
X107416377Y-127837606D01*
X107416375Y-127837606D01*
X107083625Y-127837606D01*
X107083623Y-127837606D01*
X106918464Y-127857660D01*
X106753303Y-127877715D01*
X106591762Y-127917531D01*
X106430220Y-127957347D01*
X106430216Y-127957348D01*
X106196072Y-128046148D01*
X106119096Y-128075341D01*
X106119093Y-128075342D01*
X106119089Y-128075344D01*
X106119088Y-128075344D01*
X105824474Y-128229971D01*
X105824463Y-128229977D01*
X105550624Y-128418993D01*
X105550622Y-128418995D01*
X105550616Y-128419000D01*
X105550615Y-128419001D01*
X105301548Y-128639654D01*
X105248917Y-128699063D01*
X105080889Y-128888728D01*
X105080887Y-128888730D01*
X104891871Y-129162569D01*
X104891865Y-129162580D01*
X104737238Y-129457194D01*
X104737238Y-129457195D01*
X104737236Y-129457199D01*
X104737235Y-129457202D01*
X104718401Y-129506864D01*
X104619242Y-129768322D01*
X104619241Y-129768326D01*
X104539609Y-130091411D01*
X104502139Y-130400000D01*
X104499500Y-130421731D01*
X104499500Y-130754481D01*
X91677010Y-130754481D01*
X91675803Y-130738379D01*
X91675802Y-130738374D01*
X91675802Y-130738370D01*
X91617420Y-130482584D01*
X91521568Y-130238357D01*
X91390386Y-130011143D01*
X91226805Y-129806019D01*
X91226804Y-129806018D01*
X91226801Y-129806014D01*
X91034479Y-129627567D01*
X91034478Y-129627566D01*
X90817704Y-129479772D01*
X90817700Y-129479770D01*
X90817697Y-129479768D01*
X90817696Y-129479767D01*
X90581325Y-129365938D01*
X90581327Y-129365938D01*
X90330623Y-129288606D01*
X90330619Y-129288605D01*
X90330615Y-129288604D01*
X90205823Y-129269794D01*
X90071187Y-129249500D01*
X90071182Y-129249500D01*
X89808818Y-129249500D01*
X89808812Y-129249500D01*
X89647247Y-129273853D01*
X89549385Y-129288604D01*
X89549381Y-129288605D01*
X89549382Y-129288605D01*
X89549376Y-129288606D01*
X89298673Y-129365938D01*
X89062303Y-129479767D01*
X89062302Y-129479768D01*
X88845520Y-129627567D01*
X88653198Y-129806014D01*
X88489614Y-130011143D01*
X88358432Y-130238356D01*
X88262582Y-130482578D01*
X88262576Y-130482597D01*
X88204197Y-130738374D01*
X88204196Y-130738379D01*
X88184592Y-130999995D01*
X88184592Y-131000004D01*
X86615408Y-131000004D01*
X86615408Y-130999995D01*
X86595803Y-130738379D01*
X86595802Y-130738374D01*
X86595802Y-130738370D01*
X86537420Y-130482584D01*
X86441568Y-130238357D01*
X86310386Y-130011143D01*
X86146805Y-129806019D01*
X86146804Y-129806018D01*
X86146801Y-129806014D01*
X85954479Y-129627567D01*
X85954478Y-129627566D01*
X85737704Y-129479772D01*
X85737700Y-129479770D01*
X85737697Y-129479768D01*
X85737696Y-129479767D01*
X85501325Y-129365938D01*
X85501327Y-129365938D01*
X85250623Y-129288606D01*
X85250619Y-129288605D01*
X85250615Y-129288604D01*
X85125823Y-129269794D01*
X84991187Y-129249500D01*
X84991182Y-129249500D01*
X84728818Y-129249500D01*
X84728812Y-129249500D01*
X84567247Y-129273853D01*
X84469385Y-129288604D01*
X84469381Y-129288605D01*
X84469382Y-129288605D01*
X84469376Y-129288606D01*
X84218673Y-129365938D01*
X83982303Y-129479767D01*
X83982302Y-129479768D01*
X83765520Y-129627567D01*
X83573198Y-129806014D01*
X83409614Y-130011143D01*
X83278432Y-130238356D01*
X83182582Y-130482578D01*
X83182576Y-130482597D01*
X83124197Y-130738374D01*
X83124196Y-130738379D01*
X83104592Y-130999995D01*
X83104592Y-131000004D01*
X68612575Y-131000004D01*
X68644569Y-130893136D01*
X68651829Y-130851967D01*
X68705260Y-130548938D01*
X68705259Y-130548938D01*
X68705262Y-130548927D01*
X68725585Y-130200000D01*
X68705262Y-129851073D01*
X68690671Y-129768322D01*
X68644571Y-129506872D01*
X68644569Y-129506865D01*
X68636457Y-129479768D01*
X68544326Y-129172029D01*
X68405889Y-128851096D01*
X68248947Y-128579264D01*
X68231129Y-128548402D01*
X68022415Y-128268050D01*
X68022410Y-128268044D01*
X67906433Y-128145117D01*
X67782558Y-128013817D01*
X67572558Y-127837606D01*
X67514813Y-127789152D01*
X67514805Y-127789146D01*
X67222796Y-127597088D01*
X66910458Y-127440226D01*
X66910452Y-127440223D01*
X66582012Y-127320681D01*
X66582009Y-127320680D01*
X66241915Y-127240077D01*
X66198519Y-127235004D01*
X65894759Y-127199500D01*
X65545241Y-127199500D01*
X65241480Y-127235004D01*
X65198085Y-127240077D01*
X65198083Y-127240077D01*
X64857990Y-127320680D01*
X64857987Y-127320681D01*
X64529547Y-127440223D01*
X64529541Y-127440226D01*
X64217203Y-127597088D01*
X63925194Y-127789146D01*
X63925186Y-127789152D01*
X63657442Y-128013817D01*
X63657440Y-128013819D01*
X63417589Y-128268044D01*
X63417584Y-128268050D01*
X63208870Y-128548402D01*
X63034113Y-128851091D01*
X63034107Y-128851104D01*
X62895674Y-129172027D01*
X62795430Y-129506865D01*
X62795428Y-129506872D01*
X62734739Y-129851061D01*
X62734738Y-129851072D01*
X62714415Y-130199996D01*
X62714415Y-130200003D01*
X60520500Y-130200003D01*
X60520500Y-70200003D01*
X62714415Y-70200003D01*
X62734738Y-70548927D01*
X62734739Y-70548938D01*
X62795428Y-70893127D01*
X62795430Y-70893134D01*
X62895674Y-71227972D01*
X63034107Y-71548895D01*
X63034113Y-71548908D01*
X63208870Y-71851597D01*
X63417584Y-72131949D01*
X63417589Y-72131955D01*
X63489795Y-72208488D01*
X63657442Y-72386183D01*
X63833903Y-72534251D01*
X63925186Y-72610847D01*
X63925194Y-72610853D01*
X64217203Y-72802911D01*
X64217207Y-72802913D01*
X64529549Y-72959777D01*
X64857989Y-73079319D01*
X65198086Y-73159923D01*
X65545241Y-73200500D01*
X65545248Y-73200500D01*
X65894752Y-73200500D01*
X65894759Y-73200500D01*
X66241914Y-73159923D01*
X66582011Y-73079319D01*
X66910451Y-72959777D01*
X67222793Y-72802913D01*
X67514811Y-72610849D01*
X67782558Y-72386183D01*
X68022412Y-72131953D01*
X68231130Y-71851596D01*
X68405889Y-71548904D01*
X68544326Y-71227971D01*
X68644569Y-70893136D01*
X68653822Y-70840664D01*
X68705260Y-70548938D01*
X68705259Y-70548938D01*
X68705262Y-70548927D01*
X68725585Y-70200000D01*
X68724034Y-70173379D01*
X68718002Y-70069815D01*
X68705262Y-69851073D01*
X68666710Y-69632432D01*
X68644571Y-69506872D01*
X68644569Y-69506865D01*
X68628737Y-69453981D01*
X68544326Y-69172029D01*
X68405889Y-68851096D01*
X68231130Y-68548404D01*
X68231129Y-68548402D01*
X68022415Y-68268050D01*
X68022410Y-68268044D01*
X67897356Y-68135496D01*
X67782558Y-68013817D01*
X67634488Y-67889572D01*
X67514813Y-67789152D01*
X67514805Y-67789146D01*
X67222796Y-67597088D01*
X66910458Y-67440226D01*
X66910452Y-67440223D01*
X66582012Y-67320681D01*
X66582009Y-67320680D01*
X66241915Y-67240077D01*
X66195338Y-67234633D01*
X65894759Y-67199500D01*
X65545241Y-67199500D01*
X65244662Y-67234633D01*
X65198085Y-67240077D01*
X65198083Y-67240077D01*
X64857990Y-67320680D01*
X64857987Y-67320681D01*
X64529547Y-67440223D01*
X64529541Y-67440226D01*
X64217203Y-67597088D01*
X63925194Y-67789146D01*
X63925186Y-67789152D01*
X63657442Y-68013817D01*
X63657440Y-68013819D01*
X63417589Y-68268044D01*
X63417584Y-68268050D01*
X63208870Y-68548402D01*
X63034113Y-68851091D01*
X63034107Y-68851104D01*
X62895674Y-69172027D01*
X62795430Y-69506865D01*
X62795428Y-69506872D01*
X62734739Y-69851061D01*
X62734738Y-69851072D01*
X62714415Y-70199996D01*
X62714415Y-70200003D01*
X60520500Y-70200003D01*
X60520500Y-69600000D01*
X60529493Y-69382569D01*
X60538160Y-69184061D01*
X60538574Y-69179138D01*
X60565487Y-68963223D01*
X60591884Y-68762726D01*
X60592669Y-68758114D01*
X60637191Y-68545778D01*
X60681160Y-68347451D01*
X60682253Y-68343235D01*
X60744112Y-68135457D01*
X60805324Y-67941320D01*
X60806673Y-67937488D01*
X60885469Y-67735551D01*
X60963499Y-67547170D01*
X60965033Y-67543771D01*
X61034381Y-67401920D01*
X61060249Y-67349007D01*
X61093419Y-67285284D01*
X61154494Y-67167960D01*
X61156207Y-67164891D01*
X61267211Y-66978601D01*
X61376972Y-66806313D01*
X61378765Y-66803656D01*
X61504856Y-66627054D01*
X61629313Y-66464861D01*
X61631135Y-66462601D01*
X61771448Y-66296933D01*
X61910563Y-66145115D01*
X62065115Y-65990563D01*
X62216933Y-65851448D01*
X62382601Y-65711135D01*
X62384861Y-65709313D01*
X62547054Y-65584856D01*
X62723656Y-65458765D01*
X62726313Y-65456972D01*
X62898601Y-65347211D01*
X63084900Y-65236201D01*
X63087960Y-65234494D01*
X63205284Y-65173419D01*
X63269007Y-65140249D01*
X63343655Y-65103755D01*
X63463771Y-65045033D01*
X63467170Y-65043499D01*
X63655551Y-64965469D01*
X63857488Y-64886673D01*
X63861320Y-64885324D01*
X64055457Y-64824112D01*
X64263235Y-64762253D01*
X64267451Y-64761160D01*
X64465778Y-64717191D01*
X64678114Y-64672669D01*
X64682726Y-64671884D01*
X64883223Y-64645487D01*
X65099138Y-64618574D01*
X65104061Y-64618160D01*
X65302569Y-64609493D01*
X65520000Y-64600500D01*
X65520500Y-64600500D01*
X136319500Y-64600500D01*
X136320000Y-64600500D01*
X136537318Y-64609488D01*
G37*
%TD.AperFunction*%
%TA.AperFunction,Conductor*%
G36*
X138492539Y-98125185D02*
G01*
X138538294Y-98177989D01*
X138549500Y-98229500D01*
X138549500Y-128637063D01*
X138529815Y-128704102D01*
X138477011Y-128749857D01*
X138407853Y-128759801D01*
X138344297Y-128730776D01*
X138318113Y-128699063D01*
X138231129Y-128548402D01*
X138022415Y-128268050D01*
X138022410Y-128268044D01*
X137906433Y-128145117D01*
X137782558Y-128013817D01*
X137572558Y-127837606D01*
X137514813Y-127789152D01*
X137514805Y-127789146D01*
X137222796Y-127597088D01*
X137099784Y-127535309D01*
X137048710Y-127487631D01*
X137031520Y-127419909D01*
X137053673Y-127353644D01*
X137108134Y-127309875D01*
X137155435Y-127300499D01*
X137647871Y-127300499D01*
X137647872Y-127300499D01*
X137707483Y-127294091D01*
X137842331Y-127243796D01*
X137957546Y-127157546D01*
X138043796Y-127042331D01*
X138094091Y-126907483D01*
X138100500Y-126847873D01*
X138100499Y-122752128D01*
X138094091Y-122692517D01*
X138043796Y-122557669D01*
X138043795Y-122557668D01*
X138043793Y-122557664D01*
X137957547Y-122442455D01*
X137957544Y-122442452D01*
X137842335Y-122356206D01*
X137842328Y-122356202D01*
X137707482Y-122305908D01*
X137707483Y-122305908D01*
X137647883Y-122299501D01*
X137647881Y-122299500D01*
X137647873Y-122299500D01*
X137647864Y-122299500D01*
X135552129Y-122299500D01*
X135552123Y-122299501D01*
X135492516Y-122305908D01*
X135357671Y-122356202D01*
X135357664Y-122356206D01*
X135242455Y-122442452D01*
X135242452Y-122442455D01*
X135156206Y-122557664D01*
X135156202Y-122557671D01*
X135105908Y-122692517D01*
X135099501Y-122752116D01*
X135099501Y-122752123D01*
X135099500Y-122752135D01*
X135099500Y-124139105D01*
X135079815Y-124206144D01*
X135027011Y-124251899D01*
X135005803Y-124259345D01*
X134999355Y-124260970D01*
X134980176Y-124264230D01*
X134975808Y-124264623D01*
X134880834Y-124290835D01*
X134785319Y-124314902D01*
X134781322Y-124316718D01*
X134763059Y-124323339D01*
X134758834Y-124324505D01*
X134670064Y-124367253D01*
X134580369Y-124407995D01*
X134576775Y-124410486D01*
X134559971Y-124420271D01*
X134556031Y-124422168D01*
X134556028Y-124422170D01*
X134476323Y-124480078D01*
X134395349Y-124536177D01*
X134395343Y-124536182D01*
X134392239Y-124539286D01*
X134377465Y-124551903D01*
X134373928Y-124554473D01*
X134373921Y-124554478D01*
X134305846Y-124625679D01*
X132912180Y-126019344D01*
X132850857Y-126052829D01*
X132781165Y-126047845D01*
X132725232Y-126005973D01*
X132700815Y-125940509D01*
X132700499Y-125931663D01*
X132700499Y-124251899D01*
X132700499Y-122552128D01*
X132694091Y-122492517D01*
X132694090Y-122492514D01*
X132684885Y-122467832D01*
X132679901Y-122398140D01*
X132713387Y-122336818D01*
X132774711Y-122303333D01*
X132801067Y-122300500D01*
X134276293Y-122300500D01*
X134283231Y-122300889D01*
X134321827Y-122305238D01*
X134321829Y-122305237D01*
X134321830Y-122305238D01*
X134339586Y-122304040D01*
X134390032Y-122300639D01*
X134394188Y-122300500D01*
X134406147Y-122300500D01*
X134406155Y-122300500D01*
X134448123Y-122296722D01*
X134546412Y-122290096D01*
X134550646Y-122289028D01*
X134569841Y-122285767D01*
X134574188Y-122285377D01*
X134669165Y-122259164D01*
X134764683Y-122235096D01*
X134768655Y-122233291D01*
X134786962Y-122226654D01*
X134791170Y-122225493D01*
X134879935Y-122182746D01*
X134969626Y-122142007D01*
X134973220Y-122139516D01*
X134990035Y-122129724D01*
X134993973Y-122127829D01*
X135073676Y-122069921D01*
X135154654Y-122013820D01*
X135157743Y-122010730D01*
X135172545Y-121998088D01*
X135176078Y-121995522D01*
X135244153Y-121924320D01*
X136331654Y-120836818D01*
X136392978Y-120803333D01*
X136419336Y-120800499D01*
X137447871Y-120800499D01*
X137447872Y-120800499D01*
X137507483Y-120794091D01*
X137642331Y-120743796D01*
X137757546Y-120657546D01*
X137843796Y-120542331D01*
X137894091Y-120407483D01*
X137900500Y-120347873D01*
X137900499Y-116252128D01*
X137894091Y-116192517D01*
X137874770Y-116140716D01*
X137843797Y-116057671D01*
X137843793Y-116057664D01*
X137757547Y-115942455D01*
X137757544Y-115942452D01*
X137642335Y-115856206D01*
X137642328Y-115856202D01*
X137507482Y-115805908D01*
X137507483Y-115805908D01*
X137447883Y-115799501D01*
X137447881Y-115799500D01*
X137447873Y-115799500D01*
X137447864Y-115799500D01*
X135352129Y-115799500D01*
X135352123Y-115799501D01*
X135292516Y-115805908D01*
X135157671Y-115856202D01*
X135157664Y-115856206D01*
X135042455Y-115942452D01*
X135042452Y-115942455D01*
X134956206Y-116057664D01*
X134956202Y-116057671D01*
X134905908Y-116192517D01*
X134905068Y-116200335D01*
X134899501Y-116252123D01*
X134899500Y-116252135D01*
X134899500Y-118680663D01*
X134879815Y-118747702D01*
X134863181Y-118768344D01*
X133868345Y-119763181D01*
X133807022Y-119796666D01*
X133780664Y-119799500D01*
X132824500Y-119799500D01*
X132757461Y-119779815D01*
X132711706Y-119727011D01*
X132700500Y-119675500D01*
X132700499Y-116052129D01*
X132700498Y-116052123D01*
X132698146Y-116030245D01*
X132694091Y-115992517D01*
X132692303Y-115987724D01*
X132643797Y-115857671D01*
X132643793Y-115857664D01*
X132557547Y-115742455D01*
X132557544Y-115742452D01*
X132442335Y-115656206D01*
X132442328Y-115656202D01*
X132307482Y-115605908D01*
X132307483Y-115605908D01*
X132247883Y-115599501D01*
X132247881Y-115599500D01*
X132247873Y-115599500D01*
X132247865Y-115599500D01*
X130474296Y-115599500D01*
X130407257Y-115579815D01*
X130361502Y-115527011D01*
X130350327Y-115478283D01*
X130348890Y-115414276D01*
X130347659Y-115359422D01*
X130302508Y-115138904D01*
X130300516Y-115133939D01*
X130218706Y-114929989D01*
X130098949Y-114739398D01*
X129947085Y-114573251D01*
X129860561Y-114507372D01*
X129782379Y-114447844D01*
X131500000Y-114447844D01*
X131506401Y-114507372D01*
X131506403Y-114507379D01*
X131556645Y-114642086D01*
X131556649Y-114642093D01*
X131642809Y-114757187D01*
X131642812Y-114757190D01*
X131757906Y-114843350D01*
X131757913Y-114843354D01*
X131892620Y-114893596D01*
X131892627Y-114893598D01*
X131952155Y-114899999D01*
X131952172Y-114900000D01*
X133750000Y-114900000D01*
X133750000Y-113716230D01*
X133792928Y-113655415D01*
X133794852Y-113650000D01*
X134250000Y-113650000D01*
X134250000Y-114900000D01*
X136047828Y-114900000D01*
X136047844Y-114899999D01*
X136107372Y-114893598D01*
X136107379Y-114893596D01*
X136242086Y-114843354D01*
X136242093Y-114843350D01*
X136357187Y-114757190D01*
X136357190Y-114757187D01*
X136443350Y-114642093D01*
X136443354Y-114642086D01*
X136493596Y-114507379D01*
X136493598Y-114507372D01*
X136499999Y-114447844D01*
X136500000Y-114447827D01*
X136500000Y-113650000D01*
X134250000Y-113650000D01*
X133794852Y-113650000D01*
X133843559Y-113512953D01*
X133853877Y-113362114D01*
X133823116Y-113214085D01*
X133753558Y-113079844D01*
X133749999Y-113076034D01*
X133750000Y-111900000D01*
X134250000Y-111900000D01*
X134250000Y-113150000D01*
X136500000Y-113150000D01*
X136500000Y-112352172D01*
X136499999Y-112352155D01*
X136493598Y-112292627D01*
X136493596Y-112292620D01*
X136443354Y-112157913D01*
X136443350Y-112157906D01*
X136357190Y-112042812D01*
X136357187Y-112042809D01*
X136242093Y-111956649D01*
X136242086Y-111956645D01*
X136107379Y-111906403D01*
X136107372Y-111906401D01*
X136047844Y-111900000D01*
X134250000Y-111900000D01*
X133750000Y-111900000D01*
X131952155Y-111900000D01*
X131892627Y-111906401D01*
X131892620Y-111906403D01*
X131757913Y-111956645D01*
X131757906Y-111956649D01*
X131642812Y-112042809D01*
X131642809Y-112042812D01*
X131556649Y-112157906D01*
X131556645Y-112157913D01*
X131506403Y-112292620D01*
X131506401Y-112292627D01*
X131500000Y-112352155D01*
X131500000Y-113150000D01*
X132805148Y-113150000D01*
X132756441Y-113287047D01*
X132746123Y-113437886D01*
X132776884Y-113585915D01*
X132810090Y-113650000D01*
X131500000Y-113650000D01*
X131500000Y-114447844D01*
X129782379Y-114447844D01*
X129767995Y-114436892D01*
X129767992Y-114436890D01*
X129767989Y-114436888D01*
X129567434Y-114334701D01*
X129567430Y-114334699D01*
X129351851Y-114269964D01*
X129148876Y-114247095D01*
X129084462Y-114220029D01*
X129044906Y-114162434D01*
X129042769Y-114092597D01*
X129075076Y-114036196D01*
X131781420Y-111329852D01*
X131796209Y-111317221D01*
X131826078Y-111295522D01*
X131981632Y-111132825D01*
X132105635Y-110944968D01*
X132194103Y-110737988D01*
X132244191Y-110518537D01*
X132254290Y-110293670D01*
X132224075Y-110070613D01*
X132154517Y-109856536D01*
X132047852Y-109658319D01*
X131907508Y-109482334D01*
X131907507Y-109482333D01*
X131839904Y-109423269D01*
X131839417Y-109422813D01*
X131838699Y-109422216D01*
X131737996Y-109334234D01*
X131671215Y-109294335D01*
X131665452Y-109290437D01*
X131660800Y-109286895D01*
X131660791Y-109286889D01*
X131648800Y-109280779D01*
X131645150Y-109278761D01*
X131559246Y-109227437D01*
X131511792Y-109176155D01*
X131499597Y-109107358D01*
X131526531Y-109042888D01*
X131535154Y-109033318D01*
X137332127Y-103236345D01*
X137337287Y-103231733D01*
X137367666Y-103207508D01*
X137412645Y-103156023D01*
X137415462Y-103153010D01*
X137423945Y-103144529D01*
X137450950Y-103112181D01*
X137515765Y-103037996D01*
X137518006Y-103034243D01*
X137529274Y-103018364D01*
X137532068Y-103015019D01*
X137580683Y-102929340D01*
X137631215Y-102844764D01*
X137632747Y-102840679D01*
X137641003Y-102823033D01*
X137643153Y-102819245D01*
X137675690Y-102726259D01*
X137710307Y-102634024D01*
X137711085Y-102629734D01*
X137716055Y-102610904D01*
X137717498Y-102606782D01*
X137732909Y-102509476D01*
X137746082Y-102436892D01*
X137750500Y-102412549D01*
X137750500Y-102408169D01*
X137752027Y-102388770D01*
X137752710Y-102384460D01*
X137750500Y-102285978D01*
X137750500Y-99243845D01*
X137735377Y-99075812D01*
X137735376Y-99075807D01*
X137675496Y-98858839D01*
X137675491Y-98858826D01*
X137672905Y-98853457D01*
X137577829Y-98656027D01*
X137555316Y-98625041D01*
X137445526Y-98473927D01*
X137445520Y-98473919D01*
X137283619Y-98319126D01*
X137248767Y-98258570D01*
X137252186Y-98188784D01*
X137292792Y-98131925D01*
X137357692Y-98106046D01*
X137369311Y-98105500D01*
X138425500Y-98105500D01*
X138492539Y-98125185D01*
G37*
%TD.AperFunction*%
%TA.AperFunction,Conductor*%
G36*
X136037539Y-90925185D02*
G01*
X136083294Y-90977989D01*
X136094500Y-91029500D01*
X136094500Y-97476000D01*
X136094501Y-97476009D01*
X136106052Y-97583450D01*
X136106054Y-97583462D01*
X136117260Y-97634972D01*
X136151383Y-97737497D01*
X136151386Y-97737503D01*
X136151387Y-97737504D01*
X136229175Y-97858543D01*
X136249147Y-97881592D01*
X136251802Y-97884656D01*
X136280826Y-97948212D01*
X136270882Y-98017370D01*
X136225127Y-98070174D01*
X136196407Y-98083789D01*
X136006533Y-98145484D01*
X135808321Y-98252146D01*
X135808318Y-98252148D01*
X135632336Y-98392489D01*
X135540867Y-98497184D01*
X135484235Y-98562004D01*
X135368785Y-98755236D01*
X135359785Y-98779216D01*
X135289692Y-98965976D01*
X135249500Y-99187450D01*
X135249500Y-101730663D01*
X135229815Y-101797702D01*
X135213181Y-101818344D01*
X133785379Y-103246145D01*
X133724056Y-103279630D01*
X133654364Y-103274646D01*
X133598431Y-103232774D01*
X133574014Y-103167310D01*
X133573699Y-103158491D01*
X133573699Y-101833628D01*
X133567291Y-101774017D01*
X133516996Y-101639169D01*
X133516995Y-101639168D01*
X133516993Y-101639164D01*
X133430747Y-101523955D01*
X133430744Y-101523952D01*
X133315535Y-101437706D01*
X133315528Y-101437702D01*
X133180682Y-101387408D01*
X133180683Y-101387408D01*
X133121083Y-101381001D01*
X133121081Y-101381000D01*
X133121073Y-101381000D01*
X133121064Y-101381000D01*
X130525329Y-101381000D01*
X130525323Y-101381001D01*
X130465716Y-101387408D01*
X130330871Y-101437702D01*
X130330864Y-101437706D01*
X130215655Y-101523952D01*
X130215652Y-101523955D01*
X130129406Y-101639164D01*
X130129402Y-101639171D01*
X130079108Y-101774017D01*
X130076562Y-101797702D01*
X130072701Y-101833623D01*
X130072700Y-101833635D01*
X130072700Y-104429370D01*
X130072701Y-104429376D01*
X130079108Y-104488983D01*
X130129402Y-104623828D01*
X130129406Y-104623835D01*
X130215652Y-104739044D01*
X130215655Y-104739047D01*
X130330864Y-104825293D01*
X130330871Y-104825297D01*
X130465717Y-104875591D01*
X130465716Y-104875591D01*
X130472644Y-104876335D01*
X130525327Y-104882000D01*
X131850163Y-104881999D01*
X131917202Y-104901684D01*
X131962957Y-104954487D01*
X131972901Y-105023646D01*
X131943876Y-105087202D01*
X131937844Y-105093680D01*
X129018345Y-108013181D01*
X128957022Y-108046666D01*
X128930664Y-108049500D01*
X84818336Y-108049500D01*
X84751297Y-108029815D01*
X84705542Y-107977011D01*
X84695598Y-107907853D01*
X84724623Y-107844297D01*
X84730655Y-107837819D01*
X86385662Y-106182812D01*
X87688474Y-104880000D01*
X93949636Y-104880000D01*
X93969461Y-105131912D01*
X94028452Y-105377630D01*
X94125154Y-105611090D01*
X94257184Y-105826542D01*
X94257185Y-105826544D01*
X94257186Y-105826546D01*
X94257188Y-105826548D01*
X94421301Y-106018699D01*
X94613452Y-106182812D01*
X94613454Y-106182813D01*
X94613455Y-106182814D01*
X94613457Y-106182815D01*
X94828909Y-106314845D01*
X95062369Y-106411547D01*
X95116335Y-106424503D01*
X95308084Y-106470538D01*
X95560000Y-106490364D01*
X95811916Y-106470538D01*
X96057630Y-106411547D01*
X96291090Y-106314845D01*
X96506548Y-106182812D01*
X96698699Y-106018699D01*
X96862812Y-105826548D01*
X96994845Y-105611090D01*
X97091547Y-105377630D01*
X97150538Y-105131916D01*
X97170364Y-104880000D01*
X97150538Y-104628084D01*
X97102832Y-104429376D01*
X97091547Y-104382369D01*
X96994845Y-104148909D01*
X96903595Y-104000003D01*
X98877271Y-104000003D01*
X98896957Y-104262710D01*
X98896958Y-104262715D01*
X98955580Y-104519558D01*
X98955582Y-104519567D01*
X98955584Y-104519572D01*
X99051836Y-104764818D01*
X99183565Y-104992980D01*
X99258705Y-105087202D01*
X99347831Y-105198963D01*
X99461201Y-105304154D01*
X99540956Y-105378156D01*
X99758636Y-105526567D01*
X99995999Y-105640875D01*
X99996000Y-105640875D01*
X99996003Y-105640877D01*
X100247756Y-105718533D01*
X100247757Y-105718533D01*
X100247760Y-105718534D01*
X100508263Y-105757798D01*
X100508268Y-105757798D01*
X100508271Y-105757799D01*
X100508272Y-105757799D01*
X100771728Y-105757799D01*
X100771729Y-105757799D01*
X100771736Y-105757798D01*
X101032239Y-105718534D01*
X101032240Y-105718533D01*
X101032244Y-105718533D01*
X101283997Y-105640877D01*
X101521365Y-105526567D01*
X101739044Y-105378156D01*
X101932172Y-105198959D01*
X102096435Y-104992980D01*
X102228164Y-104764818D01*
X102324416Y-104519572D01*
X102345004Y-104429370D01*
X123369500Y-104429370D01*
X123369501Y-104429376D01*
X123375908Y-104488983D01*
X123426202Y-104623828D01*
X123426206Y-104623835D01*
X123512452Y-104739044D01*
X123512455Y-104739047D01*
X123627664Y-104825293D01*
X123627671Y-104825297D01*
X123762517Y-104875591D01*
X123762516Y-104875591D01*
X123769444Y-104876335D01*
X123822127Y-104882000D01*
X126417872Y-104881999D01*
X126477483Y-104875591D01*
X126612331Y-104825296D01*
X126727546Y-104739046D01*
X126813796Y-104623831D01*
X126864091Y-104488983D01*
X126870500Y-104429373D01*
X126870499Y-101833628D01*
X126864091Y-101774017D01*
X126813796Y-101639169D01*
X126813795Y-101639168D01*
X126813793Y-101639164D01*
X126727547Y-101523955D01*
X126727544Y-101523952D01*
X126612335Y-101437706D01*
X126612328Y-101437702D01*
X126477482Y-101387408D01*
X126477483Y-101387408D01*
X126417883Y-101381001D01*
X126417881Y-101381000D01*
X126417873Y-101381000D01*
X126417864Y-101381000D01*
X123822129Y-101381000D01*
X123822123Y-101381001D01*
X123762516Y-101387408D01*
X123627671Y-101437702D01*
X123627664Y-101437706D01*
X123512455Y-101523952D01*
X123512452Y-101523955D01*
X123426206Y-101639164D01*
X123426202Y-101639171D01*
X123375908Y-101774017D01*
X123373362Y-101797702D01*
X123369501Y-101833623D01*
X123369500Y-101833635D01*
X123369500Y-104429370D01*
X102345004Y-104429370D01*
X102383041Y-104262720D01*
X102402729Y-103999999D01*
X102402017Y-103990500D01*
X102383042Y-103737287D01*
X102383041Y-103737282D01*
X102383041Y-103737278D01*
X102324416Y-103480426D01*
X102228164Y-103235180D01*
X102096435Y-103007018D01*
X101932172Y-102801039D01*
X101932171Y-102801038D01*
X101932168Y-102801034D01*
X101739044Y-102621842D01*
X101613405Y-102536183D01*
X101521365Y-102473431D01*
X101521361Y-102473429D01*
X101521358Y-102473427D01*
X101521357Y-102473426D01*
X101283999Y-102359122D01*
X101284001Y-102359122D01*
X101032245Y-102281465D01*
X101032239Y-102281463D01*
X100771736Y-102242199D01*
X100771729Y-102242199D01*
X100508271Y-102242199D01*
X100508263Y-102242199D01*
X100247760Y-102281463D01*
X100247754Y-102281465D01*
X99995999Y-102359122D01*
X99758644Y-102473426D01*
X99758635Y-102473431D01*
X99540958Y-102621840D01*
X99347831Y-102801034D01*
X99183565Y-103007018D01*
X99051836Y-103235179D01*
X98955586Y-103480420D01*
X98955580Y-103480439D01*
X98896958Y-103737282D01*
X98896957Y-103737287D01*
X98877271Y-103999994D01*
X98877271Y-104000003D01*
X96903595Y-104000003D01*
X96862815Y-103933457D01*
X96862814Y-103933455D01*
X96862813Y-103933454D01*
X96862812Y-103933452D01*
X96698699Y-103741301D01*
X96506548Y-103577188D01*
X96506546Y-103577186D01*
X96506544Y-103577185D01*
X96506542Y-103577184D01*
X96291090Y-103445154D01*
X96057630Y-103348452D01*
X95811912Y-103289461D01*
X95811913Y-103289461D01*
X95583528Y-103271487D01*
X95560000Y-103269636D01*
X95559999Y-103269636D01*
X95308087Y-103289461D01*
X95062369Y-103348452D01*
X94828909Y-103445154D01*
X94613457Y-103577184D01*
X94613455Y-103577185D01*
X94421301Y-103741301D01*
X94257185Y-103933455D01*
X94257184Y-103933457D01*
X94125154Y-104148909D01*
X94028452Y-104382369D01*
X93969461Y-104628087D01*
X93949636Y-104880000D01*
X87688474Y-104880000D01*
X88223945Y-104344529D01*
X88332069Y-104215018D01*
X88443154Y-104019244D01*
X88517498Y-103806782D01*
X88538266Y-103675656D01*
X88552711Y-103584462D01*
X88550376Y-103480439D01*
X88547660Y-103359422D01*
X88502508Y-103138904D01*
X88418708Y-102929990D01*
X88298950Y-102739397D01*
X88298949Y-102739396D01*
X88298948Y-102739394D01*
X88147088Y-102573253D01*
X88147087Y-102573252D01*
X88147086Y-102573251D01*
X87967996Y-102436892D01*
X87967995Y-102436891D01*
X87967992Y-102436889D01*
X87767436Y-102334701D01*
X87551849Y-102269963D01*
X87328179Y-102244762D01*
X87328168Y-102244761D01*
X87103597Y-102259901D01*
X87103581Y-102259904D01*
X86885320Y-102314902D01*
X86885319Y-102314902D01*
X86680378Y-102407991D01*
X86680376Y-102407992D01*
X86594241Y-102467666D01*
X86533892Y-102509476D01*
X86495342Y-102536183D01*
X82718345Y-106313181D01*
X82657022Y-106346666D01*
X82630664Y-106349500D01*
X79143845Y-106349500D01*
X79105399Y-106352960D01*
X78975813Y-106364622D01*
X78975807Y-106364623D01*
X78758839Y-106424503D01*
X78758826Y-106424508D01*
X78556033Y-106522167D01*
X78556025Y-106522171D01*
X78373927Y-106654473D01*
X78373925Y-106654474D01*
X78218366Y-106817176D01*
X78094363Y-107005033D01*
X78005899Y-107212004D01*
X78005895Y-107212017D01*
X77977542Y-107336243D01*
X77943434Y-107397222D01*
X77881772Y-107430080D01*
X77812135Y-107424385D01*
X77768970Y-107396332D01*
X72612642Y-102240004D01*
X76044592Y-102240004D01*
X76064196Y-102501620D01*
X76064197Y-102501625D01*
X76122576Y-102757402D01*
X76122578Y-102757411D01*
X76122580Y-102757416D01*
X76218432Y-103001643D01*
X76349614Y-103228857D01*
X76453736Y-103359422D01*
X76513198Y-103433985D01*
X76667536Y-103577188D01*
X76705521Y-103612433D01*
X76922296Y-103760228D01*
X76922301Y-103760230D01*
X76922302Y-103760231D01*
X76922303Y-103760232D01*
X77047843Y-103820688D01*
X77158673Y-103874061D01*
X77158674Y-103874061D01*
X77158677Y-103874063D01*
X77409385Y-103951396D01*
X77668818Y-103990500D01*
X77931182Y-103990500D01*
X78190615Y-103951396D01*
X78441323Y-103874063D01*
X78677704Y-103760228D01*
X78894479Y-103612433D01*
X79074762Y-103445155D01*
X79086801Y-103433985D01*
X79086801Y-103433983D01*
X79086805Y-103433981D01*
X79250386Y-103228857D01*
X79381568Y-103001643D01*
X79477420Y-102757416D01*
X79535802Y-102501630D01*
X79537915Y-102473431D01*
X79555408Y-102240004D01*
X79555408Y-102239995D01*
X79535803Y-101978379D01*
X79535802Y-101978374D01*
X79535802Y-101978370D01*
X79477420Y-101722584D01*
X79381568Y-101478357D01*
X79250386Y-101251143D01*
X79086805Y-101046019D01*
X79086804Y-101046018D01*
X79086801Y-101046014D01*
X78894479Y-100867567D01*
X78829626Y-100823351D01*
X78677704Y-100719772D01*
X78677700Y-100719770D01*
X78677697Y-100719768D01*
X78677696Y-100719767D01*
X78441325Y-100605938D01*
X78441327Y-100605938D01*
X78190623Y-100528606D01*
X78190619Y-100528605D01*
X78190615Y-100528604D01*
X78065823Y-100509794D01*
X77931187Y-100489500D01*
X77931182Y-100489500D01*
X77668818Y-100489500D01*
X77668812Y-100489500D01*
X77507247Y-100513853D01*
X77409385Y-100528604D01*
X77409381Y-100528605D01*
X77409382Y-100528605D01*
X77409376Y-100528606D01*
X77158673Y-100605938D01*
X76922303Y-100719767D01*
X76922302Y-100719768D01*
X76705520Y-100867567D01*
X76513198Y-101046014D01*
X76349614Y-101251143D01*
X76218432Y-101478356D01*
X76122582Y-101722578D01*
X76122576Y-101722597D01*
X76064197Y-101978374D01*
X76064196Y-101978379D01*
X76044592Y-102239995D01*
X76044592Y-102240004D01*
X72612642Y-102240004D01*
X71140520Y-100767882D01*
X71135883Y-100762693D01*
X71111671Y-100732332D01*
X71060195Y-100687359D01*
X71057161Y-100684523D01*
X71048693Y-100676055D01*
X71016345Y-100649049D01*
X70942160Y-100584235D01*
X70938405Y-100581991D01*
X70922537Y-100570732D01*
X70919183Y-100567932D01*
X70919182Y-100567931D01*
X70919177Y-100567927D01*
X70849873Y-100528604D01*
X70833504Y-100519316D01*
X70777704Y-100485977D01*
X70748925Y-100468783D01*
X70744833Y-100467248D01*
X70727208Y-100459002D01*
X70723409Y-100456846D01*
X70630417Y-100424307D01*
X70538193Y-100389694D01*
X70538183Y-100389691D01*
X70533887Y-100388912D01*
X70515082Y-100383949D01*
X70510948Y-100382502D01*
X70510943Y-100382501D01*
X70413636Y-100367089D01*
X70316714Y-100349500D01*
X70316711Y-100349500D01*
X70312336Y-100349500D01*
X70292933Y-100347972D01*
X70288624Y-100347289D01*
X70190142Y-100349500D01*
X65664965Y-100349500D01*
X65597926Y-100329815D01*
X65552171Y-100277011D01*
X65542227Y-100207853D01*
X65571252Y-100144297D01*
X65630030Y-100106523D01*
X65634667Y-100105259D01*
X65688726Y-100091636D01*
X65714683Y-100085096D01*
X65919626Y-99992007D01*
X66104654Y-99863820D01*
X66168470Y-99800004D01*
X83650007Y-99800004D01*
X83657398Y-99898635D01*
X83661311Y-100000720D01*
X83666711Y-100028568D01*
X83667672Y-100035740D01*
X83668885Y-100051912D01*
X83669553Y-100060823D01*
X83686079Y-100133229D01*
X83692273Y-100160366D01*
X83712328Y-100263778D01*
X83720796Y-100287356D01*
X83722891Y-100294518D01*
X83727753Y-100315817D01*
X83727753Y-100315819D01*
X83766215Y-100413816D01*
X83802901Y-100515964D01*
X83802902Y-100515966D01*
X83813290Y-100535069D01*
X83816540Y-100542042D01*
X83823312Y-100559297D01*
X83877534Y-100653211D01*
X83930912Y-100751372D01*
X83942088Y-100766034D01*
X83946477Y-100772625D01*
X83954089Y-100785808D01*
X83979104Y-100817175D01*
X84023700Y-100873098D01*
X84062605Y-100924136D01*
X84093354Y-100964475D01*
X84093356Y-100964477D01*
X84104246Y-100974958D01*
X84109732Y-100980979D01*
X84117163Y-100990297D01*
X84117166Y-100990300D01*
X84201361Y-101068422D01*
X84243078Y-101108570D01*
X84286426Y-101150288D01*
X84296092Y-101157087D01*
X84302581Y-101162339D01*
X84308897Y-101168200D01*
X84406386Y-101234666D01*
X84505597Y-101304450D01*
X84513216Y-101308222D01*
X84520640Y-101312562D01*
X84525004Y-101315538D01*
X84634147Y-101368099D01*
X84745732Y-101423348D01*
X84746459Y-101423578D01*
X84756277Y-101427473D01*
X84756335Y-101427327D01*
X84760653Y-101429022D01*
X84760655Y-101429022D01*
X84760656Y-101429023D01*
X84768583Y-101431468D01*
X84879463Y-101465670D01*
X85001196Y-101504195D01*
X85001197Y-101504195D01*
X85001203Y-101504197D01*
X85002040Y-101504326D01*
X85006374Y-101505154D01*
X85010572Y-101506111D01*
X85010590Y-101506117D01*
X85136627Y-101525114D01*
X85266021Y-101545100D01*
X85266025Y-101545100D01*
X85530771Y-101545100D01*
X85530777Y-101545100D01*
X85594858Y-101535440D01*
X85599340Y-101534931D01*
X85667172Y-101529724D01*
X85727000Y-101515723D01*
X85731839Y-101514794D01*
X85789410Y-101506117D01*
X85854480Y-101486044D01*
X85858612Y-101484924D01*
X85928082Y-101468669D01*
X85981977Y-101446946D01*
X85986885Y-101445204D01*
X86011206Y-101437702D01*
X86039344Y-101429023D01*
X86103707Y-101398026D01*
X86107397Y-101396397D01*
X86176614Y-101368501D01*
X86223746Y-101340479D01*
X86228481Y-101337938D01*
X86274997Y-101315538D01*
X86336749Y-101273435D01*
X86339932Y-101271406D01*
X86406943Y-101231569D01*
X86446693Y-101198786D01*
X86451193Y-101195409D01*
X86491103Y-101168200D01*
X86548311Y-101115117D01*
X86550976Y-101112784D01*
X86613671Y-101061083D01*
X86645753Y-101025083D01*
X86649839Y-101020913D01*
X86682836Y-100990298D01*
X86733530Y-100926728D01*
X86735705Y-100924148D01*
X86791950Y-100861038D01*
X86816364Y-100823336D01*
X86819911Y-100818408D01*
X86845912Y-100785806D01*
X86879197Y-100728152D01*
X86888207Y-100712549D01*
X86889860Y-100709847D01*
X86911748Y-100676048D01*
X86937604Y-100636122D01*
X86954626Y-100598149D01*
X86957496Y-100592535D01*
X86976689Y-100559294D01*
X87008807Y-100477458D01*
X87009926Y-100474792D01*
X87047217Y-100391609D01*
X87057364Y-100354679D01*
X87059423Y-100348489D01*
X87072246Y-100315819D01*
X87076398Y-100297630D01*
X87092841Y-100225583D01*
X87111151Y-100158954D01*
X87118221Y-100133229D01*
X87122233Y-100098470D01*
X87123378Y-100091791D01*
X87124906Y-100085097D01*
X87130447Y-100060823D01*
X87131115Y-100051916D01*
X87137600Y-99965363D01*
X87138664Y-99956140D01*
X87148952Y-99867039D01*
X87147738Y-99835376D01*
X87147865Y-99828384D01*
X87149993Y-99800000D01*
X93949636Y-99800000D01*
X93969461Y-100051912D01*
X94028452Y-100297630D01*
X94125154Y-100531090D01*
X94257184Y-100746542D01*
X94257185Y-100746544D01*
X94257186Y-100746546D01*
X94257188Y-100746548D01*
X94421301Y-100938699D01*
X94613452Y-101102812D01*
X94613454Y-101102813D01*
X94613455Y-101102814D01*
X94613457Y-101102815D01*
X94828909Y-101234845D01*
X95062369Y-101331547D01*
X95093847Y-101339104D01*
X95308084Y-101390538D01*
X95560000Y-101410364D01*
X95811916Y-101390538D01*
X96057630Y-101331547D01*
X96291090Y-101234845D01*
X96506548Y-101102812D01*
X96698699Y-100938699D01*
X96862812Y-100746548D01*
X96994845Y-100531090D01*
X97091547Y-100297630D01*
X97150538Y-100051916D01*
X97170364Y-99800004D01*
X114130007Y-99800004D01*
X114137398Y-99898635D01*
X114141311Y-100000720D01*
X114146711Y-100028568D01*
X114147672Y-100035740D01*
X114148885Y-100051912D01*
X114149553Y-100060823D01*
X114166079Y-100133229D01*
X114172273Y-100160366D01*
X114192328Y-100263778D01*
X114200796Y-100287356D01*
X114202891Y-100294518D01*
X114207753Y-100315817D01*
X114207753Y-100315819D01*
X114246215Y-100413816D01*
X114282901Y-100515964D01*
X114282902Y-100515966D01*
X114293290Y-100535069D01*
X114296540Y-100542042D01*
X114303312Y-100559297D01*
X114357534Y-100653211D01*
X114410912Y-100751372D01*
X114422088Y-100766034D01*
X114426477Y-100772625D01*
X114434089Y-100785808D01*
X114459104Y-100817175D01*
X114503700Y-100873098D01*
X114542605Y-100924136D01*
X114573354Y-100964475D01*
X114573356Y-100964477D01*
X114584246Y-100974958D01*
X114589732Y-100980979D01*
X114597163Y-100990297D01*
X114597166Y-100990300D01*
X114681361Y-101068422D01*
X114723078Y-101108570D01*
X114766426Y-101150288D01*
X114776092Y-101157087D01*
X114782581Y-101162339D01*
X114788897Y-101168200D01*
X114886386Y-101234666D01*
X114985597Y-101304450D01*
X114993216Y-101308222D01*
X115000640Y-101312562D01*
X115005004Y-101315538D01*
X115114147Y-101368099D01*
X115225732Y-101423348D01*
X115226459Y-101423578D01*
X115236277Y-101427473D01*
X115236335Y-101427327D01*
X115240653Y-101429022D01*
X115240655Y-101429022D01*
X115240656Y-101429023D01*
X115248583Y-101431468D01*
X115359463Y-101465670D01*
X115481196Y-101504195D01*
X115481197Y-101504195D01*
X115481203Y-101504197D01*
X115482040Y-101504326D01*
X115486374Y-101505154D01*
X115490572Y-101506111D01*
X115490590Y-101506117D01*
X115616627Y-101525114D01*
X115746021Y-101545100D01*
X115746025Y-101545100D01*
X116010771Y-101545100D01*
X116010777Y-101545100D01*
X116074858Y-101535440D01*
X116079340Y-101534931D01*
X116147172Y-101529724D01*
X116207000Y-101515723D01*
X116211839Y-101514794D01*
X116269410Y-101506117D01*
X116334480Y-101486044D01*
X116338612Y-101484924D01*
X116408082Y-101468669D01*
X116461977Y-101446946D01*
X116466885Y-101445204D01*
X116491206Y-101437702D01*
X116519344Y-101429023D01*
X116583707Y-101398026D01*
X116587397Y-101396397D01*
X116656614Y-101368501D01*
X116703746Y-101340479D01*
X116708481Y-101337938D01*
X116754997Y-101315538D01*
X116816749Y-101273435D01*
X116819932Y-101271406D01*
X116886943Y-101231569D01*
X116926693Y-101198786D01*
X116931193Y-101195409D01*
X116971103Y-101168200D01*
X117028311Y-101115117D01*
X117030976Y-101112784D01*
X117093671Y-101061083D01*
X117125753Y-101025083D01*
X117129839Y-101020913D01*
X117162836Y-100990298D01*
X117213530Y-100926728D01*
X117215705Y-100924148D01*
X117271950Y-100861038D01*
X117296364Y-100823336D01*
X117299911Y-100818408D01*
X117325912Y-100785806D01*
X117359197Y-100728152D01*
X117368207Y-100712549D01*
X117369860Y-100709847D01*
X117391748Y-100676048D01*
X117417604Y-100636122D01*
X117434626Y-100598149D01*
X117437496Y-100592535D01*
X117456689Y-100559294D01*
X117488807Y-100477458D01*
X117489926Y-100474792D01*
X117527217Y-100391609D01*
X117537364Y-100354679D01*
X117539423Y-100348489D01*
X117552246Y-100315819D01*
X117556398Y-100297630D01*
X117572841Y-100225583D01*
X117591151Y-100158954D01*
X117598221Y-100133229D01*
X117602233Y-100098470D01*
X117603378Y-100091791D01*
X117604906Y-100085097D01*
X117610447Y-100060823D01*
X117611115Y-100051916D01*
X117617600Y-99965363D01*
X117618664Y-99956140D01*
X117628952Y-99867039D01*
X117627738Y-99835376D01*
X117627865Y-99828384D01*
X117629993Y-99800000D01*
X117622601Y-99701364D01*
X117618688Y-99599277D01*
X117618688Y-99599276D01*
X117613287Y-99571425D01*
X117612325Y-99564246D01*
X117611114Y-99548087D01*
X117610447Y-99539177D01*
X117587726Y-99439633D01*
X117567671Y-99336220D01*
X117559198Y-99312630D01*
X117557106Y-99305476D01*
X117552246Y-99284181D01*
X117513784Y-99186183D01*
X117477097Y-99084033D01*
X117466708Y-99064929D01*
X117463458Y-99057954D01*
X117456689Y-99040707D01*
X117456689Y-99040706D01*
X117424470Y-98984901D01*
X117402465Y-98946787D01*
X117370946Y-98888826D01*
X117349088Y-98848629D01*
X117337910Y-98833965D01*
X117333520Y-98827372D01*
X117325913Y-98814195D01*
X117298018Y-98779216D01*
X117256299Y-98726901D01*
X117186644Y-98635523D01*
X117175747Y-98625036D01*
X117170266Y-98619019D01*
X117162836Y-98609702D01*
X117162831Y-98609697D01*
X117078638Y-98531577D01*
X116993569Y-98449707D01*
X116983914Y-98442916D01*
X116977407Y-98437649D01*
X116971107Y-98431804D01*
X116971106Y-98431803D01*
X116971103Y-98431800D01*
X116873598Y-98365323D01*
X116774403Y-98295550D01*
X116774399Y-98295547D01*
X116766785Y-98291777D01*
X116759369Y-98287441D01*
X116755000Y-98284463D01*
X116645832Y-98231891D01*
X116600531Y-98209461D01*
X116534268Y-98176652D01*
X116534265Y-98176651D01*
X116534263Y-98176650D01*
X116533524Y-98176416D01*
X116523720Y-98172527D01*
X116523664Y-98172672D01*
X116519346Y-98170977D01*
X116400536Y-98134329D01*
X116278804Y-98095804D01*
X116278779Y-98095798D01*
X116277941Y-98095669D01*
X116273630Y-98094845D01*
X116269419Y-98093884D01*
X116143372Y-98074885D01*
X116113531Y-98070276D01*
X116013979Y-98054900D01*
X116010777Y-98054900D01*
X115749223Y-98054900D01*
X115749214Y-98054900D01*
X115685145Y-98064557D01*
X115680650Y-98065068D01*
X115612827Y-98070276D01*
X115553020Y-98084270D01*
X115548136Y-98085208D01*
X115490587Y-98093883D01*
X115490584Y-98093883D01*
X115425515Y-98113955D01*
X115421368Y-98115078D01*
X115351921Y-98131330D01*
X115351912Y-98131333D01*
X115298009Y-98153056D01*
X115293110Y-98154796D01*
X115240657Y-98170976D01*
X115176325Y-98201956D01*
X115172603Y-98203600D01*
X115103385Y-98231499D01*
X115103383Y-98231500D01*
X115056273Y-98259506D01*
X115051492Y-98262073D01*
X115005000Y-98284464D01*
X115004997Y-98284465D01*
X114943278Y-98326544D01*
X114940036Y-98328611D01*
X114873062Y-98368427D01*
X114873050Y-98368435D01*
X114833326Y-98401195D01*
X114828806Y-98404589D01*
X114788900Y-98431797D01*
X114788892Y-98431803D01*
X114731714Y-98484856D01*
X114728992Y-98487237D01*
X114666330Y-98538916D01*
X114634257Y-98574902D01*
X114630143Y-98579100D01*
X114597168Y-98609697D01*
X114597161Y-98609704D01*
X114546465Y-98673274D01*
X114544296Y-98675846D01*
X114512270Y-98711783D01*
X114488051Y-98738960D01*
X114463641Y-98776652D01*
X114460073Y-98781607D01*
X114434091Y-98814189D01*
X114434088Y-98814192D01*
X114391793Y-98887449D01*
X114390141Y-98890149D01*
X114342395Y-98963878D01*
X114325380Y-99001832D01*
X114322499Y-99007468D01*
X114303310Y-99040706D01*
X114271196Y-99122529D01*
X114270057Y-99125239D01*
X114232783Y-99208388D01*
X114232782Y-99208389D01*
X114222640Y-99245300D01*
X114220569Y-99251527D01*
X114207753Y-99284183D01*
X114187158Y-99374416D01*
X114161779Y-99466769D01*
X114157765Y-99501522D01*
X114156620Y-99508205D01*
X114149553Y-99539174D01*
X114149551Y-99539187D01*
X114142399Y-99634636D01*
X114131048Y-99732959D01*
X114132260Y-99764609D01*
X114132132Y-99771618D01*
X114130007Y-99800001D01*
X114130007Y-99800004D01*
X97170364Y-99800004D01*
X97170364Y-99800000D01*
X97150538Y-99548084D01*
X97106294Y-99363798D01*
X97091547Y-99302369D01*
X96994845Y-99068909D01*
X96862815Y-98853457D01*
X96862814Y-98853455D01*
X96862813Y-98853454D01*
X96862812Y-98853452D01*
X96698699Y-98661301D01*
X96506548Y-98497188D01*
X96506546Y-98497186D01*
X96506544Y-98497185D01*
X96506542Y-98497184D01*
X96291090Y-98365154D01*
X96057630Y-98268452D01*
X95811912Y-98209461D01*
X95811913Y-98209461D01*
X95560000Y-98189636D01*
X95308087Y-98209461D01*
X95062369Y-98268452D01*
X94828909Y-98365154D01*
X94613457Y-98497184D01*
X94613455Y-98497185D01*
X94421301Y-98661301D01*
X94257185Y-98853455D01*
X94257184Y-98853457D01*
X94125154Y-99068909D01*
X94028452Y-99302369D01*
X93969461Y-99548087D01*
X93949636Y-99800000D01*
X87149993Y-99800000D01*
X87142601Y-99701364D01*
X87138688Y-99599277D01*
X87138688Y-99599276D01*
X87133287Y-99571425D01*
X87132325Y-99564246D01*
X87131114Y-99548087D01*
X87130447Y-99539177D01*
X87107726Y-99439633D01*
X87087671Y-99336220D01*
X87079198Y-99312630D01*
X87077106Y-99305476D01*
X87072246Y-99284181D01*
X87033784Y-99186183D01*
X86997097Y-99084033D01*
X86986708Y-99064929D01*
X86983458Y-99057954D01*
X86976689Y-99040707D01*
X86976689Y-99040706D01*
X86944470Y-98984901D01*
X86922465Y-98946787D01*
X86890946Y-98888826D01*
X86869088Y-98848629D01*
X86857910Y-98833965D01*
X86853520Y-98827372D01*
X86845913Y-98814195D01*
X86818018Y-98779216D01*
X86776299Y-98726901D01*
X86706644Y-98635523D01*
X86695747Y-98625036D01*
X86690266Y-98619019D01*
X86682836Y-98609702D01*
X86682831Y-98609697D01*
X86598638Y-98531577D01*
X86513569Y-98449707D01*
X86503914Y-98442916D01*
X86497407Y-98437649D01*
X86491107Y-98431804D01*
X86491106Y-98431803D01*
X86491103Y-98431800D01*
X86393598Y-98365323D01*
X86294403Y-98295550D01*
X86294399Y-98295547D01*
X86286785Y-98291777D01*
X86279369Y-98287441D01*
X86275000Y-98284463D01*
X86165832Y-98231891D01*
X86120531Y-98209461D01*
X86054268Y-98176652D01*
X86054265Y-98176651D01*
X86054263Y-98176650D01*
X86053524Y-98176416D01*
X86043720Y-98172527D01*
X86043664Y-98172672D01*
X86039346Y-98170977D01*
X85920536Y-98134329D01*
X85798804Y-98095804D01*
X85798779Y-98095798D01*
X85797941Y-98095669D01*
X85793630Y-98094845D01*
X85789419Y-98093884D01*
X85663372Y-98074885D01*
X85633531Y-98070276D01*
X85533979Y-98054900D01*
X85530777Y-98054900D01*
X85269223Y-98054900D01*
X85269214Y-98054900D01*
X85205145Y-98064557D01*
X85200650Y-98065068D01*
X85132827Y-98070276D01*
X85073020Y-98084270D01*
X85068136Y-98085208D01*
X85010587Y-98093883D01*
X85010584Y-98093883D01*
X84945515Y-98113955D01*
X84941368Y-98115078D01*
X84871921Y-98131330D01*
X84871912Y-98131333D01*
X84818009Y-98153056D01*
X84813110Y-98154796D01*
X84760657Y-98170976D01*
X84696325Y-98201956D01*
X84692603Y-98203600D01*
X84623385Y-98231499D01*
X84623383Y-98231500D01*
X84576273Y-98259506D01*
X84571492Y-98262073D01*
X84525000Y-98284464D01*
X84524997Y-98284465D01*
X84463278Y-98326544D01*
X84460036Y-98328611D01*
X84393062Y-98368427D01*
X84393050Y-98368435D01*
X84353326Y-98401195D01*
X84348806Y-98404589D01*
X84308900Y-98431797D01*
X84308892Y-98431803D01*
X84251714Y-98484856D01*
X84248992Y-98487237D01*
X84186330Y-98538916D01*
X84154257Y-98574902D01*
X84150143Y-98579100D01*
X84117168Y-98609697D01*
X84117161Y-98609704D01*
X84066465Y-98673274D01*
X84064296Y-98675846D01*
X84032270Y-98711783D01*
X84008051Y-98738960D01*
X83983641Y-98776652D01*
X83980073Y-98781607D01*
X83954091Y-98814189D01*
X83954088Y-98814192D01*
X83911793Y-98887449D01*
X83910141Y-98890149D01*
X83862395Y-98963878D01*
X83845380Y-99001832D01*
X83842499Y-99007468D01*
X83823310Y-99040706D01*
X83791196Y-99122529D01*
X83790057Y-99125239D01*
X83752783Y-99208388D01*
X83752782Y-99208389D01*
X83742640Y-99245300D01*
X83740569Y-99251527D01*
X83727753Y-99284183D01*
X83707158Y-99374416D01*
X83681779Y-99466769D01*
X83677765Y-99501522D01*
X83676620Y-99508205D01*
X83669553Y-99539174D01*
X83669551Y-99539187D01*
X83662399Y-99634636D01*
X83651048Y-99732959D01*
X83652260Y-99764609D01*
X83652132Y-99771618D01*
X83650007Y-99800001D01*
X83650007Y-99800004D01*
X66168470Y-99800004D01*
X67930604Y-98037870D01*
X76049500Y-98037870D01*
X76049501Y-98037876D01*
X76055908Y-98097483D01*
X76106202Y-98232328D01*
X76106206Y-98232335D01*
X76192452Y-98347544D01*
X76192455Y-98347547D01*
X76307664Y-98433793D01*
X76307671Y-98433797D01*
X76442517Y-98484091D01*
X76442516Y-98484091D01*
X76449444Y-98484835D01*
X76502127Y-98490500D01*
X79097872Y-98490499D01*
X79157483Y-98484091D01*
X79292331Y-98433796D01*
X79407546Y-98347546D01*
X79493796Y-98232331D01*
X79544091Y-98097483D01*
X79550500Y-98037873D01*
X79550500Y-97631504D01*
X130067792Y-97631504D01*
X130087396Y-97893120D01*
X130087397Y-97893125D01*
X130145776Y-98148902D01*
X130145778Y-98148911D01*
X130145780Y-98148916D01*
X130241632Y-98393143D01*
X130372814Y-98620357D01*
X130497455Y-98776652D01*
X130536398Y-98825485D01*
X130667132Y-98946787D01*
X130728721Y-99003933D01*
X130945496Y-99151728D01*
X130945501Y-99151730D01*
X130945502Y-99151731D01*
X130945503Y-99151732D01*
X131063152Y-99208388D01*
X131181873Y-99265561D01*
X131181874Y-99265561D01*
X131181877Y-99265563D01*
X131432585Y-99342896D01*
X131692018Y-99382000D01*
X131954382Y-99382000D01*
X132213815Y-99342896D01*
X132464523Y-99265563D01*
X132700904Y-99151728D01*
X132917679Y-99003933D01*
X133085057Y-98848629D01*
X133110001Y-98825485D01*
X133110001Y-98825483D01*
X133110005Y-98825481D01*
X133273586Y-98620357D01*
X133404768Y-98393143D01*
X133500620Y-98148916D01*
X133559002Y-97893130D01*
X133561594Y-97858540D01*
X133578608Y-97631504D01*
X133578608Y-97631495D01*
X133559003Y-97369879D01*
X133559002Y-97369874D01*
X133559002Y-97369870D01*
X133500620Y-97114084D01*
X133404768Y-96869857D01*
X133273586Y-96642643D01*
X133110005Y-96437519D01*
X133110004Y-96437518D01*
X133110001Y-96437514D01*
X132917679Y-96259067D01*
X132906649Y-96251547D01*
X132700904Y-96111272D01*
X132700900Y-96111270D01*
X132700897Y-96111268D01*
X132700896Y-96111267D01*
X132464525Y-95997438D01*
X132464527Y-95997438D01*
X132213823Y-95920106D01*
X132213819Y-95920105D01*
X132213815Y-95920104D01*
X132089023Y-95901294D01*
X131954387Y-95881000D01*
X131954382Y-95881000D01*
X131692018Y-95881000D01*
X131692012Y-95881000D01*
X131530447Y-95905353D01*
X131432585Y-95920104D01*
X131432581Y-95920105D01*
X131432582Y-95920105D01*
X131432576Y-95920106D01*
X131181873Y-95997438D01*
X130945503Y-96111267D01*
X130945502Y-96111268D01*
X130728720Y-96259067D01*
X130536398Y-96437514D01*
X130372814Y-96642643D01*
X130241632Y-96869856D01*
X130145782Y-97114078D01*
X130145776Y-97114097D01*
X130087397Y-97369874D01*
X130087396Y-97369879D01*
X130067792Y-97631495D01*
X130067792Y-97631504D01*
X79550500Y-97631504D01*
X79550499Y-95442128D01*
X79544091Y-95382517D01*
X79527220Y-95337284D01*
X79493797Y-95247671D01*
X79493793Y-95247664D01*
X79407547Y-95132455D01*
X79407544Y-95132452D01*
X79292335Y-95046206D01*
X79292328Y-95046202D01*
X79157482Y-94995908D01*
X79157483Y-94995908D01*
X79097883Y-94989501D01*
X79097881Y-94989500D01*
X79097873Y-94989500D01*
X79097864Y-94989500D01*
X76502129Y-94989500D01*
X76502123Y-94989501D01*
X76442516Y-94995908D01*
X76307671Y-95046202D01*
X76307664Y-95046206D01*
X76192455Y-95132452D01*
X76192452Y-95132455D01*
X76106206Y-95247664D01*
X76106202Y-95247671D01*
X76055908Y-95382517D01*
X76049501Y-95442116D01*
X76049501Y-95442123D01*
X76049500Y-95442135D01*
X76049500Y-98037870D01*
X67930604Y-98037870D01*
X72281655Y-93686819D01*
X72342979Y-93653334D01*
X72369337Y-93650500D01*
X94111115Y-93650500D01*
X94178154Y-93670185D01*
X94223909Y-93722989D01*
X94233853Y-93792147D01*
X94216842Y-93839290D01*
X94125154Y-93988909D01*
X94028452Y-94222369D01*
X93969461Y-94468087D01*
X93949636Y-94720000D01*
X93969461Y-94971912D01*
X94028452Y-95217630D01*
X94125154Y-95451090D01*
X94257184Y-95666542D01*
X94257185Y-95666544D01*
X94257186Y-95666546D01*
X94257188Y-95666548D01*
X94421301Y-95858699D01*
X94613452Y-96022812D01*
X94613454Y-96022813D01*
X94613455Y-96022814D01*
X94613457Y-96022815D01*
X94828909Y-96154845D01*
X95062369Y-96251547D01*
X95123798Y-96266294D01*
X95308084Y-96310538D01*
X95560000Y-96330364D01*
X95811916Y-96310538D01*
X96057630Y-96251547D01*
X96291090Y-96154845D01*
X96506548Y-96022812D01*
X96698699Y-95858699D01*
X96862812Y-95666548D01*
X96994845Y-95451090D01*
X97091547Y-95217630D01*
X97150538Y-94971916D01*
X97170364Y-94720000D01*
X97150538Y-94468084D01*
X97091547Y-94222370D01*
X97091330Y-94221844D01*
X96994845Y-93988909D01*
X96903158Y-93839290D01*
X96884913Y-93771844D01*
X96906029Y-93705242D01*
X96959801Y-93660628D01*
X97008885Y-93650500D01*
X100173846Y-93650500D01*
X100240885Y-93670185D01*
X100286640Y-93722989D01*
X100296584Y-93792147D01*
X100267559Y-93855703D01*
X100210396Y-93892991D01*
X99995999Y-93959124D01*
X99758644Y-94073428D01*
X99758635Y-94073433D01*
X99540958Y-94221842D01*
X99347831Y-94401036D01*
X99183565Y-94607020D01*
X99051836Y-94835181D01*
X98955586Y-95080422D01*
X98955580Y-95080441D01*
X98896958Y-95337284D01*
X98896957Y-95337289D01*
X98877271Y-95599996D01*
X98877271Y-95600005D01*
X98896957Y-95862712D01*
X98896958Y-95862717D01*
X98955580Y-96119560D01*
X98955582Y-96119569D01*
X98955584Y-96119574D01*
X99051836Y-96364820D01*
X99183565Y-96592982D01*
X99316238Y-96759348D01*
X99347831Y-96798965D01*
X99461201Y-96904156D01*
X99540956Y-96978158D01*
X99758636Y-97126569D01*
X99995999Y-97240877D01*
X99996000Y-97240877D01*
X99996003Y-97240879D01*
X100247756Y-97318535D01*
X100247757Y-97318535D01*
X100247760Y-97318536D01*
X100508263Y-97357800D01*
X100508268Y-97357800D01*
X100508271Y-97357801D01*
X100508272Y-97357801D01*
X100771728Y-97357801D01*
X100771729Y-97357801D01*
X100771736Y-97357800D01*
X101032239Y-97318536D01*
X101032240Y-97318535D01*
X101032244Y-97318535D01*
X101283997Y-97240879D01*
X101521365Y-97126569D01*
X101739044Y-96978158D01*
X101932172Y-96798961D01*
X102096435Y-96592982D01*
X102228164Y-96364820D01*
X102324416Y-96119574D01*
X102383041Y-95862722D01*
X102383042Y-95862712D01*
X102402729Y-95600005D01*
X102402729Y-95599996D01*
X102383042Y-95337289D01*
X102383041Y-95337284D01*
X102383041Y-95337280D01*
X102324416Y-95080428D01*
X102228164Y-94835182D01*
X102096435Y-94607020D01*
X101932172Y-94401041D01*
X101932171Y-94401040D01*
X101932168Y-94401036D01*
X101739044Y-94221844D01*
X101739041Y-94221842D01*
X101521365Y-94073433D01*
X101521361Y-94073431D01*
X101521358Y-94073429D01*
X101521357Y-94073428D01*
X101283999Y-93959124D01*
X101284001Y-93959124D01*
X101069604Y-93892991D01*
X101011345Y-93854420D01*
X100983187Y-93790476D01*
X100994071Y-93721459D01*
X101040540Y-93669282D01*
X101106154Y-93650500D01*
X132256148Y-93650500D01*
X132256155Y-93650500D01*
X132424188Y-93635377D01*
X132424192Y-93635376D01*
X132641160Y-93575496D01*
X132641162Y-93575495D01*
X132641170Y-93575493D01*
X132843973Y-93477829D01*
X133026078Y-93345522D01*
X133181632Y-93182825D01*
X133305635Y-92994968D01*
X133394103Y-92787988D01*
X133444191Y-92568537D01*
X133454290Y-92343670D01*
X133424075Y-92120613D01*
X133354517Y-91906536D01*
X133247852Y-91708319D01*
X133107508Y-91532334D01*
X132937996Y-91384235D01*
X132744764Y-91268785D01*
X132601196Y-91214903D01*
X132534023Y-91189692D01*
X132323609Y-91151507D01*
X132261162Y-91120168D01*
X132225571Y-91060043D01*
X132228137Y-90990220D01*
X132268044Y-90932869D01*
X132332622Y-90906197D01*
X132345751Y-90905500D01*
X135970500Y-90905500D01*
X136037539Y-90925185D01*
G37*
%TD.AperFunction*%
%TA.AperFunction,Conductor*%
G36*
X124918837Y-82270185D02*
G01*
X124939479Y-82286819D01*
X126535479Y-83882819D01*
X126568964Y-83944142D01*
X126563980Y-84013834D01*
X126522108Y-84069767D01*
X126456644Y-84094184D01*
X126447798Y-84094500D01*
X126407015Y-84094500D01*
X126397062Y-84094698D01*
X126387100Y-84094994D01*
X126245606Y-84121100D01*
X126245601Y-84121101D01*
X126205390Y-84134662D01*
X126179401Y-84143426D01*
X126179389Y-84143430D01*
X126050984Y-84208344D01*
X126028736Y-84223922D01*
X125988829Y-84251864D01*
X125970113Y-84262669D01*
X125869729Y-84309479D01*
X125849418Y-84316872D01*
X125742428Y-84345540D01*
X125721142Y-84349293D01*
X125610813Y-84358946D01*
X125589198Y-84358946D01*
X125478852Y-84349292D01*
X125457566Y-84345539D01*
X125350577Y-84316872D01*
X125330265Y-84309479D01*
X125280640Y-84286338D01*
X125280622Y-84286330D01*
X125194962Y-84255438D01*
X125194949Y-84255434D01*
X125151911Y-84244173D01*
X125140442Y-84242255D01*
X125062069Y-84229148D01*
X125062066Y-84229148D01*
X125062065Y-84229148D01*
X125062062Y-84229147D01*
X124918518Y-84238826D01*
X124850180Y-84253400D01*
X124850170Y-84253403D01*
X124756420Y-84287934D01*
X124686709Y-84292633D01*
X124625523Y-84258897D01*
X124617643Y-84249416D01*
X124617393Y-84249626D01*
X124613823Y-84245350D01*
X124613820Y-84245346D01*
X124610729Y-84242255D01*
X124598093Y-84227461D01*
X124596221Y-84224884D01*
X124595522Y-84223922D01*
X124585373Y-84214219D01*
X124524320Y-84155846D01*
X123186356Y-82817882D01*
X123181719Y-82812693D01*
X123157507Y-82782332D01*
X123106031Y-82737359D01*
X123102997Y-82734523D01*
X123094529Y-82726055D01*
X123094192Y-82725774D01*
X123062181Y-82699049D01*
X122988002Y-82634240D01*
X122987997Y-82634236D01*
X122987996Y-82634235D01*
X122984241Y-82631991D01*
X122968373Y-82620732D01*
X122965019Y-82617932D01*
X122965018Y-82617931D01*
X122965013Y-82617927D01*
X122884380Y-82572176D01*
X122879340Y-82569316D01*
X122807023Y-82526109D01*
X122794761Y-82518783D01*
X122790669Y-82517248D01*
X122773044Y-82509002D01*
X122769245Y-82506846D01*
X122725505Y-82491541D01*
X122668729Y-82450820D01*
X122642982Y-82385867D01*
X122656438Y-82317305D01*
X122704826Y-82266902D01*
X122766460Y-82250500D01*
X124851798Y-82250500D01*
X124918837Y-82270185D01*
G37*
%TD.AperFunction*%
%TD*%
%TA.AperFunction,Conductor*%
%TO.N,+Vin_Drone_G*%
G36*
X127268337Y-84619685D02*
G01*
X127288979Y-84636319D01*
X128163180Y-85510520D01*
X128196665Y-85571843D01*
X128199499Y-85598201D01*
X128199499Y-87456147D01*
X128199500Y-87456151D01*
X128214622Y-87624186D01*
X128214623Y-87624192D01*
X128274503Y-87841160D01*
X128274508Y-87841173D01*
X128372167Y-88043966D01*
X128372171Y-88043974D01*
X128504473Y-88226072D01*
X128504474Y-88226074D01*
X128504477Y-88226077D01*
X128504478Y-88226078D01*
X128589647Y-88307508D01*
X128667176Y-88381633D01*
X128855033Y-88505636D01*
X129062004Y-88594100D01*
X129062007Y-88594101D01*
X129062012Y-88594103D01*
X129281463Y-88644191D01*
X129506330Y-88654290D01*
X129729387Y-88624075D01*
X129943464Y-88554517D01*
X130141681Y-88447852D01*
X130317666Y-88307508D01*
X130465765Y-88137996D01*
X130581215Y-87944764D01*
X130660307Y-87734024D01*
X130680240Y-87624186D01*
X130700500Y-87512549D01*
X130700500Y-85102572D01*
X130700889Y-85095633D01*
X130705238Y-85057039D01*
X130700639Y-84988833D01*
X130700500Y-84984678D01*
X130700500Y-84972715D01*
X130700500Y-84972711D01*
X130696722Y-84930742D01*
X130690096Y-84832454D01*
X130689027Y-84828214D01*
X130685768Y-84809035D01*
X130685377Y-84804678D01*
X130672215Y-84756988D01*
X130673354Y-84687130D01*
X130712082Y-84628975D01*
X130776103Y-84600991D01*
X130791746Y-84600000D01*
X141076000Y-84600000D01*
X141143039Y-84619685D01*
X141188794Y-84672489D01*
X141200000Y-84724000D01*
X141200000Y-97476000D01*
X141180315Y-97543039D01*
X141127511Y-97588794D01*
X141076000Y-97600000D01*
X136724000Y-97600000D01*
X136656961Y-97580315D01*
X136611206Y-97527511D01*
X136600000Y-97476000D01*
X136600000Y-90400000D01*
X111524000Y-90400000D01*
X111456961Y-90380315D01*
X111411206Y-90327511D01*
X111400000Y-90276000D01*
X111400000Y-89397830D01*
X111400000Y-89306946D01*
X111422335Y-89262329D01*
X111425408Y-89259144D01*
X111926099Y-88758451D01*
X111951139Y-88805297D01*
X112078103Y-88960003D01*
X112232809Y-89086967D01*
X112279652Y-89112005D01*
X111736438Y-89655218D01*
X111912525Y-89775272D01*
X111912526Y-89775273D01*
X112151530Y-89890370D01*
X112151528Y-89890370D01*
X112405025Y-89968564D01*
X112405031Y-89968565D01*
X112667351Y-90008105D01*
X112667358Y-90008106D01*
X112932642Y-90008106D01*
X112932648Y-90008105D01*
X113194968Y-89968565D01*
X113194974Y-89968564D01*
X113448470Y-89890370D01*
X113687479Y-89775270D01*
X113863560Y-89655218D01*
X113320346Y-89112005D01*
X113367191Y-89086967D01*
X113521897Y-88960003D01*
X113648861Y-88805297D01*
X113673899Y-88758452D01*
X114216355Y-89300909D01*
X114216356Y-89300908D01*
X114266545Y-89237975D01*
X114399185Y-89008234D01*
X114496103Y-88761291D01*
X114496109Y-88761272D01*
X114555138Y-88502646D01*
X114555139Y-88502641D01*
X114574963Y-88238110D01*
X114574963Y-88238101D01*
X114555139Y-87973570D01*
X114555138Y-87973565D01*
X114496109Y-87714939D01*
X114496103Y-87714920D01*
X114399185Y-87467977D01*
X114399186Y-87467977D01*
X114266543Y-87238235D01*
X114266536Y-87238224D01*
X114216356Y-87175302D01*
X114216355Y-87175301D01*
X113673898Y-87717758D01*
X113648861Y-87670915D01*
X113521897Y-87516209D01*
X113367191Y-87389245D01*
X113320346Y-87364206D01*
X113863560Y-86820992D01*
X113687484Y-86700945D01*
X113687474Y-86700938D01*
X113448469Y-86585841D01*
X113448471Y-86585841D01*
X113194974Y-86507647D01*
X113194968Y-86507646D01*
X112932648Y-86468106D01*
X112667351Y-86468106D01*
X112405031Y-86507646D01*
X112405025Y-86507647D01*
X112151529Y-86585841D01*
X111912526Y-86700938D01*
X111912518Y-86700943D01*
X111736438Y-86820992D01*
X112279653Y-87364206D01*
X112232809Y-87389245D01*
X112078103Y-87516209D01*
X111951139Y-87670915D01*
X111926100Y-87717759D01*
X111425407Y-87217066D01*
X111400000Y-87170536D01*
X111400000Y-85024499D01*
X111419685Y-84957461D01*
X111472489Y-84911706D01*
X111524000Y-84900500D01*
X121680664Y-84900500D01*
X121747703Y-84920185D01*
X121768345Y-84936819D01*
X122318844Y-85487318D01*
X122352329Y-85548641D01*
X122347345Y-85618333D01*
X122318844Y-85662680D01*
X121668345Y-86313181D01*
X121607022Y-86346666D01*
X121580664Y-86349500D01*
X120843845Y-86349500D01*
X120805399Y-86352960D01*
X120675813Y-86364622D01*
X120675807Y-86364623D01*
X120458839Y-86424503D01*
X120458826Y-86424508D01*
X120256033Y-86522167D01*
X120256025Y-86522171D01*
X120073927Y-86654473D01*
X120073925Y-86654474D01*
X119918366Y-86817176D01*
X119794363Y-87005033D01*
X119705899Y-87212004D01*
X119705895Y-87212017D01*
X119655810Y-87431457D01*
X119655808Y-87431468D01*
X119647153Y-87624192D01*
X119645710Y-87656330D01*
X119675925Y-87879387D01*
X119675926Y-87879390D01*
X119745483Y-88093465D01*
X119852146Y-88291678D01*
X119852148Y-88291681D01*
X119992489Y-88467663D01*
X119992491Y-88467664D01*
X119992492Y-88467666D01*
X120162004Y-88615765D01*
X120355236Y-88731215D01*
X120565976Y-88810307D01*
X120787450Y-88850500D01*
X120787453Y-88850500D01*
X122076293Y-88850500D01*
X122083231Y-88850889D01*
X122121827Y-88855238D01*
X122121829Y-88855237D01*
X122121830Y-88855238D01*
X122139586Y-88854040D01*
X122190032Y-88850639D01*
X122194188Y-88850500D01*
X122206147Y-88850500D01*
X122206155Y-88850500D01*
X122248123Y-88846722D01*
X122346412Y-88840096D01*
X122350646Y-88839028D01*
X122369841Y-88835767D01*
X122374188Y-88835377D01*
X122469165Y-88809164D01*
X122564683Y-88785096D01*
X122568655Y-88783291D01*
X122586962Y-88776654D01*
X122591170Y-88775493D01*
X122679935Y-88732746D01*
X122769626Y-88692007D01*
X122773220Y-88689516D01*
X122790035Y-88679724D01*
X122793973Y-88677829D01*
X122873676Y-88619921D01*
X122954654Y-88563820D01*
X122957743Y-88560730D01*
X122972545Y-88548088D01*
X122976078Y-88545522D01*
X123044153Y-88474320D01*
X124482127Y-87036345D01*
X124487287Y-87031733D01*
X124517666Y-87007508D01*
X124562632Y-86956039D01*
X124565478Y-86952995D01*
X124573929Y-86944545D01*
X124573929Y-86944544D01*
X124573944Y-86944530D01*
X124600947Y-86912185D01*
X124665765Y-86837996D01*
X124668006Y-86834243D01*
X124679274Y-86818364D01*
X124682068Y-86815019D01*
X124730683Y-86729340D01*
X124781215Y-86644764D01*
X124782747Y-86640679D01*
X124791003Y-86623033D01*
X124793153Y-86619245D01*
X124825692Y-86526253D01*
X124860307Y-86434024D01*
X124861085Y-86429737D01*
X124866056Y-86410902D01*
X124867498Y-86406783D01*
X124882910Y-86309472D01*
X124900500Y-86212547D01*
X124900500Y-86208168D01*
X124902027Y-86188770D01*
X124902710Y-86184460D01*
X124900500Y-86085997D01*
X124900500Y-85123687D01*
X124900887Y-85116787D01*
X124905238Y-85078173D01*
X124900639Y-85009967D01*
X124900500Y-85005812D01*
X124900500Y-84993849D01*
X124900500Y-84993845D01*
X124896722Y-84951876D01*
X124890879Y-84865197D01*
X124906009Y-84796985D01*
X124955616Y-84747782D01*
X125023949Y-84733209D01*
X125066999Y-84744473D01*
X125166550Y-84790894D01*
X125379932Y-84848070D01*
X125519805Y-84860307D01*
X125599998Y-84867323D01*
X125600000Y-84867323D01*
X125600002Y-84867323D01*
X125655017Y-84862509D01*
X125820068Y-84848070D01*
X126033450Y-84790894D01*
X126233662Y-84697534D01*
X126340929Y-84622424D01*
X126407135Y-84600098D01*
X126412052Y-84600000D01*
X127201298Y-84600000D01*
X127268337Y-84619685D01*
G37*
%TD.AperFunction*%
%TD*%
M02*
