%TF.GenerationSoftware,KiCad,Pcbnew,7.0.6-0*%
%TF.CreationDate,2023-08-01T13:46:47-04:00*%
%TF.ProjectId,Power Selector,506f7765-7220-4536-956c-6563746f722e,rev?*%
%TF.SameCoordinates,Original*%
%TF.FileFunction,Soldermask,Bot*%
%TF.FilePolarity,Negative*%
%FSLAX46Y46*%
G04 Gerber Fmt 4.6, Leading zero omitted, Abs format (unit mm)*
G04 Created by KiCad (PCBNEW 7.0.6-0) date 2023-08-01 13:46:47*
%MOMM*%
%LPD*%
G01*
G04 APERTURE LIST*
%ADD10C,2.209800*%
%ADD11C,2.489200*%
%ADD12C,2.514600*%
%ADD13R,2.000000X4.000000*%
%ADD14C,5.000000*%
%ADD15R,2.500000X2.500000*%
%ADD16C,2.500000*%
%ADD17R,2.000000X2.000000*%
%ADD18C,2.000000*%
%ADD19C,2.540000*%
%ADD20C,1.524000*%
%ADD21R,4.000000X2.000000*%
G04 APERTURE END LIST*
D10*
%TO.C,J205*%
X105720000Y-104880000D03*
X105720000Y-99800000D03*
X105720000Y-94720000D03*
X95560000Y-104880000D03*
X95560000Y-99800000D03*
X95560000Y-94720000D03*
D11*
X115880000Y-99800000D03*
X85400000Y-99800000D03*
D12*
X100640000Y-103999999D03*
X100640000Y-95600001D03*
%TD*%
D13*
%TO.C,TP1*%
X136600000Y-124800000D03*
%TD*%
D14*
%TO.C,H2*%
X135720000Y-130200000D03*
%TD*%
D15*
%TO.C,J201*%
X77800000Y-96740000D03*
D16*
X77800000Y-102240000D03*
%TD*%
D13*
%TO.C,TP2*%
X136400000Y-118300000D03*
%TD*%
D16*
%TO.C,F202*%
X89940000Y-131000000D03*
X84860000Y-131000000D03*
%TD*%
D13*
%TO.C,TP4*%
X131200000Y-118100000D03*
%TD*%
D17*
%TO.C,U201*%
X84260000Y-81951800D03*
D18*
X81720000Y-81951800D03*
X79180000Y-81951800D03*
%TD*%
D19*
%TO.C,K203*%
X102700000Y-70437989D03*
X110300000Y-70437989D03*
X112800000Y-88238106D03*
D20*
X125600000Y-73400000D03*
X125600000Y-83600000D03*
%TD*%
D14*
%TO.C,H3*%
X65720000Y-70200000D03*
%TD*%
D15*
%TO.C,J203*%
X131823200Y-103131500D03*
D16*
X131823200Y-97631500D03*
%TD*%
D13*
%TO.C,TP6*%
X131200000Y-131200000D03*
%TD*%
D16*
%TO.C,F201*%
X72320000Y-73340000D03*
X72320000Y-68260000D03*
%TD*%
D17*
%TO.C,U202*%
X73180000Y-117248200D03*
D18*
X75720000Y-117248200D03*
X78260000Y-117248200D03*
%TD*%
D19*
%TO.C,K201*%
X97150000Y-112787989D03*
X104750000Y-112787989D03*
X107250000Y-130588106D03*
D20*
X120050000Y-115750000D03*
X120050000Y-125950000D03*
%TD*%
D15*
%TO.C,J202*%
X125120000Y-103131500D03*
D16*
X125120000Y-97631500D03*
%TD*%
D14*
%TO.C,H4*%
X65720000Y-130200000D03*
%TD*%
D21*
%TO.C,TP5*%
X134000000Y-113400000D03*
%TD*%
D14*
%TO.C,H1*%
X135720000Y-70200000D03*
%TD*%
D13*
%TO.C,TP3*%
X131200000Y-124600000D03*
%TD*%
M02*
