%TF.GenerationSoftware,KiCad,Pcbnew,7.0.6-0*%
%TF.CreationDate,2023-08-01T13:46:47-04:00*%
%TF.ProjectId,Power Selector,506f7765-7220-4536-956c-6563746f722e,rev?*%
%TF.SameCoordinates,Original*%
%TF.FileFunction,Soldermask,Top*%
%TF.FilePolarity,Negative*%
%FSLAX46Y46*%
G04 Gerber Fmt 4.6, Leading zero omitted, Abs format (unit mm)*
G04 Created by KiCad (PCBNEW 7.0.6-0) date 2023-08-01 13:46:47*
%MOMM*%
%LPD*%
G01*
G04 APERTURE LIST*
%ADD10C,2.209800*%
%ADD11C,2.489200*%
%ADD12C,2.514600*%
%ADD13R,2.800000X1.600000*%
%ADD14R,1.600000X3.000000*%
%ADD15R,2.000000X4.000000*%
%ADD16R,3.000000X1.700000*%
%ADD17C,5.000000*%
%ADD18R,2.500000X2.500000*%
%ADD19C,2.500000*%
%ADD20R,1.630000X2.180400*%
%ADD21R,2.000000X2.000000*%
%ADD22C,2.000000*%
%ADD23C,2.540000*%
%ADD24C,1.524000*%
%ADD25R,2.200000X1.000000*%
%ADD26R,2.180400X1.630000*%
%ADD27R,1.600000X1.900000*%
%ADD28R,4.000000X2.000000*%
G04 APERTURE END LIST*
D10*
%TO.C,J205*%
X105720000Y-104880000D03*
X105720000Y-99800000D03*
X105720000Y-94720000D03*
X95560000Y-104880000D03*
X95560000Y-99800000D03*
X95560000Y-94720000D03*
D11*
X115880000Y-99800000D03*
X85400000Y-99800000D03*
D12*
X100640000Y-103999999D03*
X100640000Y-95600001D03*
%TD*%
D13*
%TO.C,F204*%
X72120000Y-82650000D03*
X66120000Y-82650000D03*
X72120000Y-96150000D03*
X66120000Y-96150000D03*
%TD*%
D14*
%TO.C,C204*%
X80470000Y-112000000D03*
X77370000Y-112000000D03*
%TD*%
D15*
%TO.C,TP1*%
X136600000Y-124800000D03*
%TD*%
D16*
%TO.C,J204*%
X139720000Y-85800000D03*
X139720000Y-88500000D03*
X139720000Y-91200000D03*
X139720000Y-93900000D03*
X139720000Y-96600000D03*
X139720000Y-99300000D03*
X139720000Y-102000000D03*
X139720000Y-104700000D03*
X139720000Y-107400000D03*
X139720000Y-110100000D03*
X139720000Y-112800000D03*
X139720000Y-115500000D03*
%TD*%
D14*
%TO.C,C201*%
X83370000Y-87200000D03*
X86470000Y-87200000D03*
%TD*%
D17*
%TO.C,H2*%
X135720000Y-130200000D03*
%TD*%
D16*
%TO.C,J206*%
X62120000Y-85400000D03*
X62120000Y-88100000D03*
X62120000Y-90800000D03*
X62120000Y-93500000D03*
X62120000Y-96200000D03*
X62120000Y-98900000D03*
X62120000Y-101600000D03*
X62120000Y-104300000D03*
X62120000Y-107000000D03*
X62120000Y-109700000D03*
X62120000Y-112400000D03*
X62120000Y-115100000D03*
%TD*%
D18*
%TO.C,J201*%
X77800000Y-96740000D03*
D19*
X77800000Y-102240000D03*
%TD*%
D15*
%TO.C,TP2*%
X136400000Y-118300000D03*
%TD*%
D13*
%TO.C,F203*%
X84400000Y-124750000D03*
X90400000Y-124750000D03*
X84400000Y-111250000D03*
X90400000Y-111250000D03*
%TD*%
D20*
%TO.C,D202*%
X135000000Y-76342800D03*
X135000000Y-80057200D03*
%TD*%
D19*
%TO.C,F202*%
X89940000Y-131000000D03*
X84860000Y-131000000D03*
%TD*%
D15*
%TO.C,TP4*%
X131200000Y-118100000D03*
%TD*%
D21*
%TO.C,U201*%
X84260000Y-81951800D03*
D22*
X81720000Y-81951800D03*
X79180000Y-81951800D03*
%TD*%
D14*
%TO.C,C203*%
X74070000Y-112000000D03*
X70970000Y-112000000D03*
%TD*%
D23*
%TO.C,K203*%
X102700000Y-70437989D03*
X110300000Y-70437989D03*
X112800000Y-88238106D03*
D24*
X125600000Y-73400000D03*
X125600000Y-83600000D03*
%TD*%
D25*
%TO.C,K202*%
X90269998Y-77850000D03*
X90269998Y-82930000D03*
X90269998Y-85470000D03*
X90269998Y-88010000D03*
X90269998Y-90550000D03*
X96370002Y-90550000D03*
X96370002Y-88010000D03*
X96370002Y-85470000D03*
X96370002Y-82930000D03*
X96370002Y-77850000D03*
%TD*%
D26*
%TO.C,D201*%
X92342800Y-74200000D03*
X96057200Y-74200000D03*
%TD*%
D17*
%TO.C,H3*%
X65720000Y-70200000D03*
%TD*%
D18*
%TO.C,J203*%
X131823200Y-103131500D03*
D19*
X131823200Y-97631500D03*
%TD*%
D27*
%TO.C,R201*%
X71050000Y-106600000D03*
X74150000Y-106600000D03*
%TD*%
D15*
%TO.C,TP6*%
X131200000Y-131200000D03*
%TD*%
D26*
%TO.C,D203*%
X132742800Y-108400000D03*
X136457200Y-108400000D03*
%TD*%
D19*
%TO.C,F201*%
X72320000Y-73340000D03*
X72320000Y-68260000D03*
%TD*%
D21*
%TO.C,U202*%
X73180000Y-117248200D03*
D22*
X75720000Y-117248200D03*
X78260000Y-117248200D03*
%TD*%
D23*
%TO.C,K201*%
X97150000Y-112787989D03*
X104750000Y-112787989D03*
X107250000Y-130588106D03*
D24*
X120050000Y-115750000D03*
X120050000Y-125950000D03*
%TD*%
D18*
%TO.C,J202*%
X125120000Y-103131500D03*
D19*
X125120000Y-97631500D03*
%TD*%
D17*
%TO.C,H4*%
X65720000Y-130200000D03*
%TD*%
D28*
%TO.C,TP5*%
X134000000Y-113400000D03*
%TD*%
D17*
%TO.C,H1*%
X135720000Y-70200000D03*
%TD*%
D15*
%TO.C,TP3*%
X131200000Y-124600000D03*
%TD*%
D14*
%TO.C,C202*%
X76920000Y-87200000D03*
X80020000Y-87200000D03*
%TD*%
M02*
