%TF.GenerationSoftware,KiCad,Pcbnew,7.0.6-0*%
%TF.CreationDate,2023-08-01T13:46:47-04:00*%
%TF.ProjectId,Power Selector,506f7765-7220-4536-956c-6563746f722e,rev?*%
%TF.SameCoordinates,Original*%
%TF.FileFunction,Legend,Bot*%
%TF.FilePolarity,Positive*%
%FSLAX46Y46*%
G04 Gerber Fmt 4.6, Leading zero omitted, Abs format (unit mm)*
G04 Created by KiCad (PCBNEW 7.0.6-0) date 2023-08-01 13:46:47*
%MOMM*%
%LPD*%
G01*
G04 APERTURE LIST*
%ADD10C,0.150000*%
%ADD11C,0.508000*%
G04 APERTURE END LIST*
D10*
X96263220Y-120429819D02*
X96263220Y-119429819D01*
X96263220Y-119429819D02*
X95882268Y-119429819D01*
X95882268Y-119429819D02*
X95787030Y-119477438D01*
X95787030Y-119477438D02*
X95739411Y-119525057D01*
X95739411Y-119525057D02*
X95691792Y-119620295D01*
X95691792Y-119620295D02*
X95691792Y-119763152D01*
X95691792Y-119763152D02*
X95739411Y-119858390D01*
X95739411Y-119858390D02*
X95787030Y-119906009D01*
X95787030Y-119906009D02*
X95882268Y-119953628D01*
X95882268Y-119953628D02*
X96263220Y-119953628D01*
X94929887Y-119906009D02*
X95263220Y-119906009D01*
X95263220Y-120429819D02*
X95263220Y-119429819D01*
X95263220Y-119429819D02*
X94787030Y-119429819D01*
X94406077Y-119906009D02*
X94072744Y-119906009D01*
X93929887Y-120429819D02*
X94406077Y-120429819D01*
X94406077Y-120429819D02*
X94406077Y-119429819D01*
X94406077Y-119429819D02*
X93929887Y-119429819D01*
X92739410Y-119906009D02*
X92406077Y-119906009D01*
X92263220Y-120429819D02*
X92739410Y-120429819D01*
X92739410Y-120429819D02*
X92739410Y-119429819D01*
X92739410Y-119429819D02*
X92263220Y-119429819D01*
X92406077Y-119048866D02*
X92548934Y-119191723D01*
X91977505Y-119429819D02*
X91406077Y-119429819D01*
X91691791Y-120429819D02*
X91691791Y-119429819D01*
X91120362Y-120382200D02*
X90977505Y-120429819D01*
X90977505Y-120429819D02*
X90739410Y-120429819D01*
X90739410Y-120429819D02*
X90644172Y-120382200D01*
X90644172Y-120382200D02*
X90596553Y-120334580D01*
X90596553Y-120334580D02*
X90548934Y-120239342D01*
X90548934Y-120239342D02*
X90548934Y-120144104D01*
X90548934Y-120144104D02*
X90596553Y-120048866D01*
X90596553Y-120048866D02*
X90644172Y-120001247D01*
X90644172Y-120001247D02*
X90739410Y-119953628D01*
X90739410Y-119953628D02*
X90929886Y-119906009D01*
X90929886Y-119906009D02*
X91025124Y-119858390D01*
X91025124Y-119858390D02*
X91072743Y-119810771D01*
X91072743Y-119810771D02*
X91120362Y-119715533D01*
X91120362Y-119715533D02*
X91120362Y-119620295D01*
X91120362Y-119620295D02*
X91072743Y-119525057D01*
X91072743Y-119525057D02*
X91025124Y-119477438D01*
X91025124Y-119477438D02*
X90929886Y-119429819D01*
X90929886Y-119429819D02*
X90691791Y-119429819D01*
X90691791Y-119429819D02*
X90548934Y-119477438D01*
X89358457Y-119906009D02*
X89025124Y-119906009D01*
X88882267Y-120429819D02*
X89358457Y-120429819D01*
X89358457Y-120429819D02*
X89358457Y-119429819D01*
X89358457Y-119429819D02*
X88882267Y-119429819D01*
X88501314Y-119525057D02*
X88453695Y-119477438D01*
X88453695Y-119477438D02*
X88358457Y-119429819D01*
X88358457Y-119429819D02*
X88120362Y-119429819D01*
X88120362Y-119429819D02*
X88025124Y-119477438D01*
X88025124Y-119477438D02*
X87977505Y-119525057D01*
X87977505Y-119525057D02*
X87929886Y-119620295D01*
X87929886Y-119620295D02*
X87929886Y-119715533D01*
X87929886Y-119715533D02*
X87977505Y-119858390D01*
X87977505Y-119858390D02*
X88548933Y-120429819D01*
X88548933Y-120429819D02*
X87929886Y-120429819D01*
X87310838Y-119429819D02*
X87215600Y-119429819D01*
X87215600Y-119429819D02*
X87120362Y-119477438D01*
X87120362Y-119477438D02*
X87072743Y-119525057D01*
X87072743Y-119525057D02*
X87025124Y-119620295D01*
X87025124Y-119620295D02*
X86977505Y-119810771D01*
X86977505Y-119810771D02*
X86977505Y-120048866D01*
X86977505Y-120048866D02*
X87025124Y-120239342D01*
X87025124Y-120239342D02*
X87072743Y-120334580D01*
X87072743Y-120334580D02*
X87120362Y-120382200D01*
X87120362Y-120382200D02*
X87215600Y-120429819D01*
X87215600Y-120429819D02*
X87310838Y-120429819D01*
X87310838Y-120429819D02*
X87406076Y-120382200D01*
X87406076Y-120382200D02*
X87453695Y-120334580D01*
X87453695Y-120334580D02*
X87501314Y-120239342D01*
X87501314Y-120239342D02*
X87548933Y-120048866D01*
X87548933Y-120048866D02*
X87548933Y-119810771D01*
X87548933Y-119810771D02*
X87501314Y-119620295D01*
X87501314Y-119620295D02*
X87453695Y-119525057D01*
X87453695Y-119525057D02*
X87406076Y-119477438D01*
X87406076Y-119477438D02*
X87310838Y-119429819D01*
X86596552Y-119525057D02*
X86548933Y-119477438D01*
X86548933Y-119477438D02*
X86453695Y-119429819D01*
X86453695Y-119429819D02*
X86215600Y-119429819D01*
X86215600Y-119429819D02*
X86120362Y-119477438D01*
X86120362Y-119477438D02*
X86072743Y-119525057D01*
X86072743Y-119525057D02*
X86025124Y-119620295D01*
X86025124Y-119620295D02*
X86025124Y-119715533D01*
X86025124Y-119715533D02*
X86072743Y-119858390D01*
X86072743Y-119858390D02*
X86644171Y-120429819D01*
X86644171Y-120429819D02*
X86025124Y-120429819D01*
X85691790Y-119429819D02*
X85072743Y-119429819D01*
X85072743Y-119429819D02*
X85406076Y-119810771D01*
X85406076Y-119810771D02*
X85263219Y-119810771D01*
X85263219Y-119810771D02*
X85167981Y-119858390D01*
X85167981Y-119858390D02*
X85120362Y-119906009D01*
X85120362Y-119906009D02*
X85072743Y-120001247D01*
X85072743Y-120001247D02*
X85072743Y-120239342D01*
X85072743Y-120239342D02*
X85120362Y-120334580D01*
X85120362Y-120334580D02*
X85167981Y-120382200D01*
X85167981Y-120382200D02*
X85263219Y-120429819D01*
X85263219Y-120429819D02*
X85548933Y-120429819D01*
X85548933Y-120429819D02*
X85644171Y-120382200D01*
X85644171Y-120382200D02*
X85691790Y-120334580D01*
X83882266Y-120048866D02*
X83120362Y-120048866D01*
X81882266Y-120429819D02*
X81882266Y-119429819D01*
X81882266Y-119429819D02*
X81501314Y-119429819D01*
X81501314Y-119429819D02*
X81406076Y-119477438D01*
X81406076Y-119477438D02*
X81358457Y-119525057D01*
X81358457Y-119525057D02*
X81310838Y-119620295D01*
X81310838Y-119620295D02*
X81310838Y-119763152D01*
X81310838Y-119763152D02*
X81358457Y-119858390D01*
X81358457Y-119858390D02*
X81406076Y-119906009D01*
X81406076Y-119906009D02*
X81501314Y-119953628D01*
X81501314Y-119953628D02*
X81882266Y-119953628D01*
X80739409Y-120429819D02*
X80834647Y-120382200D01*
X80834647Y-120382200D02*
X80882266Y-120334580D01*
X80882266Y-120334580D02*
X80929885Y-120239342D01*
X80929885Y-120239342D02*
X80929885Y-119953628D01*
X80929885Y-119953628D02*
X80882266Y-119858390D01*
X80882266Y-119858390D02*
X80834647Y-119810771D01*
X80834647Y-119810771D02*
X80739409Y-119763152D01*
X80739409Y-119763152D02*
X80596552Y-119763152D01*
X80596552Y-119763152D02*
X80501314Y-119810771D01*
X80501314Y-119810771D02*
X80453695Y-119858390D01*
X80453695Y-119858390D02*
X80406076Y-119953628D01*
X80406076Y-119953628D02*
X80406076Y-120239342D01*
X80406076Y-120239342D02*
X80453695Y-120334580D01*
X80453695Y-120334580D02*
X80501314Y-120382200D01*
X80501314Y-120382200D02*
X80596552Y-120429819D01*
X80596552Y-120429819D02*
X80739409Y-120429819D01*
X79548933Y-119763152D02*
X79548933Y-120429819D01*
X79977504Y-119763152D02*
X79977504Y-120286961D01*
X79977504Y-120286961D02*
X79929885Y-120382200D01*
X79929885Y-120382200D02*
X79834647Y-120429819D01*
X79834647Y-120429819D02*
X79691790Y-120429819D01*
X79691790Y-120429819D02*
X79596552Y-120382200D01*
X79596552Y-120382200D02*
X79548933Y-120334580D01*
X79072742Y-120429819D02*
X79072742Y-119763152D01*
X79072742Y-119953628D02*
X79025123Y-119858390D01*
X79025123Y-119858390D02*
X78977504Y-119810771D01*
X78977504Y-119810771D02*
X78882266Y-119763152D01*
X78882266Y-119763152D02*
X78787028Y-119763152D01*
X77787027Y-119429819D02*
X77548932Y-120429819D01*
X77548932Y-120429819D02*
X77358456Y-119715533D01*
X77358456Y-119715533D02*
X77167980Y-120429819D01*
X77167980Y-120429819D02*
X76929885Y-119429819D01*
X76548932Y-120429819D02*
X76548932Y-119429819D01*
X76072742Y-120429819D02*
X76072742Y-119429819D01*
X76072742Y-119429819D02*
X75501314Y-120429819D01*
X75501314Y-120429819D02*
X75501314Y-119429819D01*
X75025123Y-120429819D02*
X75025123Y-119429819D01*
X75025123Y-119429819D02*
X74787028Y-119429819D01*
X74787028Y-119429819D02*
X74644171Y-119477438D01*
X74644171Y-119477438D02*
X74548933Y-119572676D01*
X74548933Y-119572676D02*
X74501314Y-119667914D01*
X74501314Y-119667914D02*
X74453695Y-119858390D01*
X74453695Y-119858390D02*
X74453695Y-120001247D01*
X74453695Y-120001247D02*
X74501314Y-120191723D01*
X74501314Y-120191723D02*
X74548933Y-120286961D01*
X74548933Y-120286961D02*
X74644171Y-120382200D01*
X74644171Y-120382200D02*
X74787028Y-120429819D01*
X74787028Y-120429819D02*
X75025123Y-120429819D01*
X73834647Y-119429819D02*
X73644171Y-119429819D01*
X73644171Y-119429819D02*
X73548933Y-119477438D01*
X73548933Y-119477438D02*
X73453695Y-119572676D01*
X73453695Y-119572676D02*
X73406076Y-119763152D01*
X73406076Y-119763152D02*
X73406076Y-120096485D01*
X73406076Y-120096485D02*
X73453695Y-120286961D01*
X73453695Y-120286961D02*
X73548933Y-120382200D01*
X73548933Y-120382200D02*
X73644171Y-120429819D01*
X73644171Y-120429819D02*
X73834647Y-120429819D01*
X73834647Y-120429819D02*
X73929885Y-120382200D01*
X73929885Y-120382200D02*
X74025123Y-120286961D01*
X74025123Y-120286961D02*
X74072742Y-120096485D01*
X74072742Y-120096485D02*
X74072742Y-119763152D01*
X74072742Y-119763152D02*
X74025123Y-119572676D01*
X74025123Y-119572676D02*
X73929885Y-119477438D01*
X73929885Y-119477438D02*
X73834647Y-119429819D01*
X95691792Y-121944580D02*
X95739411Y-121992200D01*
X95739411Y-121992200D02*
X95882268Y-122039819D01*
X95882268Y-122039819D02*
X95977506Y-122039819D01*
X95977506Y-122039819D02*
X96120363Y-121992200D01*
X96120363Y-121992200D02*
X96215601Y-121896961D01*
X96215601Y-121896961D02*
X96263220Y-121801723D01*
X96263220Y-121801723D02*
X96310839Y-121611247D01*
X96310839Y-121611247D02*
X96310839Y-121468390D01*
X96310839Y-121468390D02*
X96263220Y-121277914D01*
X96263220Y-121277914D02*
X96215601Y-121182676D01*
X96215601Y-121182676D02*
X96120363Y-121087438D01*
X96120363Y-121087438D02*
X95977506Y-121039819D01*
X95977506Y-121039819D02*
X95882268Y-121039819D01*
X95882268Y-121039819D02*
X95739411Y-121087438D01*
X95739411Y-121087438D02*
X95691792Y-121135057D01*
X95120363Y-122039819D02*
X95215601Y-121992200D01*
X95215601Y-121992200D02*
X95263220Y-121944580D01*
X95263220Y-121944580D02*
X95310839Y-121849342D01*
X95310839Y-121849342D02*
X95310839Y-121563628D01*
X95310839Y-121563628D02*
X95263220Y-121468390D01*
X95263220Y-121468390D02*
X95215601Y-121420771D01*
X95215601Y-121420771D02*
X95120363Y-121373152D01*
X95120363Y-121373152D02*
X94977506Y-121373152D01*
X94977506Y-121373152D02*
X94882268Y-121420771D01*
X94882268Y-121420771D02*
X94834649Y-121468390D01*
X94834649Y-121468390D02*
X94787030Y-121563628D01*
X94787030Y-121563628D02*
X94787030Y-121849342D01*
X94787030Y-121849342D02*
X94834649Y-121944580D01*
X94834649Y-121944580D02*
X94882268Y-121992200D01*
X94882268Y-121992200D02*
X94977506Y-122039819D01*
X94977506Y-122039819D02*
X95120363Y-122039819D01*
X94358458Y-121373152D02*
X94358458Y-122039819D01*
X94358458Y-121468390D02*
X94310839Y-121420771D01*
X94310839Y-121420771D02*
X94215601Y-121373152D01*
X94215601Y-121373152D02*
X94072744Y-121373152D01*
X94072744Y-121373152D02*
X93977506Y-121420771D01*
X93977506Y-121420771D02*
X93929887Y-121516009D01*
X93929887Y-121516009D02*
X93929887Y-122039819D01*
X93596553Y-121373152D02*
X93215601Y-121373152D01*
X93453696Y-121039819D02*
X93453696Y-121896961D01*
X93453696Y-121896961D02*
X93406077Y-121992200D01*
X93406077Y-121992200D02*
X93310839Y-122039819D01*
X93310839Y-122039819D02*
X93215601Y-122039819D01*
X92882267Y-122039819D02*
X92882267Y-121373152D01*
X92882267Y-121563628D02*
X92834648Y-121468390D01*
X92834648Y-121468390D02*
X92787029Y-121420771D01*
X92787029Y-121420771D02*
X92691791Y-121373152D01*
X92691791Y-121373152D02*
X92596553Y-121373152D01*
X92120362Y-122039819D02*
X92215600Y-121992200D01*
X92215600Y-121992200D02*
X92263219Y-121944580D01*
X92263219Y-121944580D02*
X92310838Y-121849342D01*
X92310838Y-121849342D02*
X92310838Y-121563628D01*
X92310838Y-121563628D02*
X92263219Y-121468390D01*
X92263219Y-121468390D02*
X92215600Y-121420771D01*
X92215600Y-121420771D02*
X92120362Y-121373152D01*
X92120362Y-121373152D02*
X91977505Y-121373152D01*
X91977505Y-121373152D02*
X91882267Y-121420771D01*
X91882267Y-121420771D02*
X91834648Y-121468390D01*
X91834648Y-121468390D02*
X91787029Y-121563628D01*
X91787029Y-121563628D02*
X91787029Y-121849342D01*
X91787029Y-121849342D02*
X91834648Y-121944580D01*
X91834648Y-121944580D02*
X91882267Y-121992200D01*
X91882267Y-121992200D02*
X91977505Y-122039819D01*
X91977505Y-122039819D02*
X92120362Y-122039819D01*
X92215600Y-121135057D02*
X92025124Y-120992200D01*
X92025124Y-120992200D02*
X91834648Y-121135057D01*
X91215600Y-122039819D02*
X91310838Y-121992200D01*
X91310838Y-121992200D02*
X91358457Y-121896961D01*
X91358457Y-121896961D02*
X91358457Y-121039819D01*
X90453695Y-121992200D02*
X90548933Y-122039819D01*
X90548933Y-122039819D02*
X90739409Y-122039819D01*
X90739409Y-122039819D02*
X90834647Y-121992200D01*
X90834647Y-121992200D02*
X90882266Y-121896961D01*
X90882266Y-121896961D02*
X90882266Y-121516009D01*
X90882266Y-121516009D02*
X90834647Y-121420771D01*
X90834647Y-121420771D02*
X90739409Y-121373152D01*
X90739409Y-121373152D02*
X90548933Y-121373152D01*
X90548933Y-121373152D02*
X90453695Y-121420771D01*
X90453695Y-121420771D02*
X90406076Y-121516009D01*
X90406076Y-121516009D02*
X90406076Y-121611247D01*
X90406076Y-121611247D02*
X90882266Y-121706485D01*
X88787028Y-122039819D02*
X88787028Y-121039819D01*
X88787028Y-121992200D02*
X88882266Y-122039819D01*
X88882266Y-122039819D02*
X89072742Y-122039819D01*
X89072742Y-122039819D02*
X89167980Y-121992200D01*
X89167980Y-121992200D02*
X89215599Y-121944580D01*
X89215599Y-121944580D02*
X89263218Y-121849342D01*
X89263218Y-121849342D02*
X89263218Y-121563628D01*
X89263218Y-121563628D02*
X89215599Y-121468390D01*
X89215599Y-121468390D02*
X89167980Y-121420771D01*
X89167980Y-121420771D02*
X89072742Y-121373152D01*
X89072742Y-121373152D02*
X88882266Y-121373152D01*
X88882266Y-121373152D02*
X88787028Y-121420771D01*
X88263218Y-121039819D02*
X88358456Y-121230295D01*
X87406076Y-122039819D02*
X87406076Y-121516009D01*
X87406076Y-121516009D02*
X87453695Y-121420771D01*
X87453695Y-121420771D02*
X87548933Y-121373152D01*
X87548933Y-121373152D02*
X87739409Y-121373152D01*
X87739409Y-121373152D02*
X87834647Y-121420771D01*
X87406076Y-121992200D02*
X87501314Y-122039819D01*
X87501314Y-122039819D02*
X87739409Y-122039819D01*
X87739409Y-122039819D02*
X87834647Y-121992200D01*
X87834647Y-121992200D02*
X87882266Y-121896961D01*
X87882266Y-121896961D02*
X87882266Y-121801723D01*
X87882266Y-121801723D02*
X87834647Y-121706485D01*
X87834647Y-121706485D02*
X87739409Y-121658866D01*
X87739409Y-121658866D02*
X87501314Y-121658866D01*
X87501314Y-121658866D02*
X87406076Y-121611247D01*
X86787028Y-122039819D02*
X86882266Y-121992200D01*
X86882266Y-121992200D02*
X86929885Y-121896961D01*
X86929885Y-121896961D02*
X86929885Y-121039819D01*
X86406075Y-122039819D02*
X86406075Y-121373152D01*
X86406075Y-121039819D02*
X86453694Y-121087438D01*
X86453694Y-121087438D02*
X86406075Y-121135057D01*
X86406075Y-121135057D02*
X86358456Y-121087438D01*
X86358456Y-121087438D02*
X86406075Y-121039819D01*
X86406075Y-121039819D02*
X86406075Y-121135057D01*
X85929885Y-122039819D02*
X85929885Y-121373152D01*
X85929885Y-121468390D02*
X85882266Y-121420771D01*
X85882266Y-121420771D02*
X85787028Y-121373152D01*
X85787028Y-121373152D02*
X85644171Y-121373152D01*
X85644171Y-121373152D02*
X85548933Y-121420771D01*
X85548933Y-121420771D02*
X85501314Y-121516009D01*
X85501314Y-121516009D02*
X85501314Y-122039819D01*
X85501314Y-121516009D02*
X85453695Y-121420771D01*
X85453695Y-121420771D02*
X85358457Y-121373152D01*
X85358457Y-121373152D02*
X85215600Y-121373152D01*
X85215600Y-121373152D02*
X85120361Y-121420771D01*
X85120361Y-121420771D02*
X85072742Y-121516009D01*
X85072742Y-121516009D02*
X85072742Y-122039819D01*
X84215600Y-121992200D02*
X84310838Y-122039819D01*
X84310838Y-122039819D02*
X84501314Y-122039819D01*
X84501314Y-122039819D02*
X84596552Y-121992200D01*
X84596552Y-121992200D02*
X84644171Y-121896961D01*
X84644171Y-121896961D02*
X84644171Y-121516009D01*
X84644171Y-121516009D02*
X84596552Y-121420771D01*
X84596552Y-121420771D02*
X84501314Y-121373152D01*
X84501314Y-121373152D02*
X84310838Y-121373152D01*
X84310838Y-121373152D02*
X84215600Y-121420771D01*
X84215600Y-121420771D02*
X84167981Y-121516009D01*
X84167981Y-121516009D02*
X84167981Y-121611247D01*
X84167981Y-121611247D02*
X84644171Y-121706485D01*
X83739409Y-121373152D02*
X83739409Y-122039819D01*
X83739409Y-121468390D02*
X83691790Y-121420771D01*
X83691790Y-121420771D02*
X83596552Y-121373152D01*
X83596552Y-121373152D02*
X83453695Y-121373152D01*
X83453695Y-121373152D02*
X83358457Y-121420771D01*
X83358457Y-121420771D02*
X83310838Y-121516009D01*
X83310838Y-121516009D02*
X83310838Y-122039819D01*
X82977504Y-121373152D02*
X82596552Y-121373152D01*
X82834647Y-121039819D02*
X82834647Y-121896961D01*
X82834647Y-121896961D02*
X82787028Y-121992200D01*
X82787028Y-121992200D02*
X82691790Y-122039819D01*
X82691790Y-122039819D02*
X82596552Y-122039819D01*
X81834647Y-122039819D02*
X81834647Y-121516009D01*
X81834647Y-121516009D02*
X81882266Y-121420771D01*
X81882266Y-121420771D02*
X81977504Y-121373152D01*
X81977504Y-121373152D02*
X82167980Y-121373152D01*
X82167980Y-121373152D02*
X82263218Y-121420771D01*
X81834647Y-121992200D02*
X81929885Y-122039819D01*
X81929885Y-122039819D02*
X82167980Y-122039819D01*
X82167980Y-122039819D02*
X82263218Y-121992200D01*
X82263218Y-121992200D02*
X82310837Y-121896961D01*
X82310837Y-121896961D02*
X82310837Y-121801723D01*
X82310837Y-121801723D02*
X82263218Y-121706485D01*
X82263218Y-121706485D02*
X82167980Y-121658866D01*
X82167980Y-121658866D02*
X81929885Y-121658866D01*
X81929885Y-121658866D02*
X81834647Y-121611247D01*
X81501313Y-121373152D02*
X81120361Y-121373152D01*
X81358456Y-121039819D02*
X81358456Y-121896961D01*
X81358456Y-121896961D02*
X81310837Y-121992200D01*
X81310837Y-121992200D02*
X81215599Y-122039819D01*
X81215599Y-122039819D02*
X81120361Y-122039819D01*
X80787027Y-122039819D02*
X80787027Y-121373152D01*
X80787027Y-121039819D02*
X80834646Y-121087438D01*
X80834646Y-121087438D02*
X80787027Y-121135057D01*
X80787027Y-121135057D02*
X80739408Y-121087438D01*
X80739408Y-121087438D02*
X80787027Y-121039819D01*
X80787027Y-121039819D02*
X80787027Y-121135057D01*
X80167980Y-122039819D02*
X80263218Y-121992200D01*
X80263218Y-121992200D02*
X80310837Y-121944580D01*
X80310837Y-121944580D02*
X80358456Y-121849342D01*
X80358456Y-121849342D02*
X80358456Y-121563628D01*
X80358456Y-121563628D02*
X80310837Y-121468390D01*
X80310837Y-121468390D02*
X80263218Y-121420771D01*
X80263218Y-121420771D02*
X80167980Y-121373152D01*
X80167980Y-121373152D02*
X80025123Y-121373152D01*
X80025123Y-121373152D02*
X79929885Y-121420771D01*
X79929885Y-121420771D02*
X79882266Y-121468390D01*
X79882266Y-121468390D02*
X79834647Y-121563628D01*
X79834647Y-121563628D02*
X79834647Y-121849342D01*
X79834647Y-121849342D02*
X79882266Y-121944580D01*
X79882266Y-121944580D02*
X79929885Y-121992200D01*
X79929885Y-121992200D02*
X80025123Y-122039819D01*
X80025123Y-122039819D02*
X80167980Y-122039819D01*
X79406075Y-121373152D02*
X79406075Y-122039819D01*
X79406075Y-121468390D02*
X79358456Y-121420771D01*
X79358456Y-121420771D02*
X79263218Y-121373152D01*
X79263218Y-121373152D02*
X79120361Y-121373152D01*
X79120361Y-121373152D02*
X79025123Y-121420771D01*
X79025123Y-121420771D02*
X78977504Y-121516009D01*
X78977504Y-121516009D02*
X78977504Y-122039819D01*
X77739408Y-121373152D02*
X77739408Y-122373152D01*
X77739408Y-121420771D02*
X77644170Y-121373152D01*
X77644170Y-121373152D02*
X77453694Y-121373152D01*
X77453694Y-121373152D02*
X77358456Y-121420771D01*
X77358456Y-121420771D02*
X77310837Y-121468390D01*
X77310837Y-121468390D02*
X77263218Y-121563628D01*
X77263218Y-121563628D02*
X77263218Y-121849342D01*
X77263218Y-121849342D02*
X77310837Y-121944580D01*
X77310837Y-121944580D02*
X77358456Y-121992200D01*
X77358456Y-121992200D02*
X77453694Y-122039819D01*
X77453694Y-122039819D02*
X77644170Y-122039819D01*
X77644170Y-122039819D02*
X77739408Y-121992200D01*
X76691789Y-122039819D02*
X76787027Y-121992200D01*
X76787027Y-121992200D02*
X76834646Y-121944580D01*
X76834646Y-121944580D02*
X76882265Y-121849342D01*
X76882265Y-121849342D02*
X76882265Y-121563628D01*
X76882265Y-121563628D02*
X76834646Y-121468390D01*
X76834646Y-121468390D02*
X76787027Y-121420771D01*
X76787027Y-121420771D02*
X76691789Y-121373152D01*
X76691789Y-121373152D02*
X76548932Y-121373152D01*
X76548932Y-121373152D02*
X76453694Y-121420771D01*
X76453694Y-121420771D02*
X76406075Y-121468390D01*
X76406075Y-121468390D02*
X76358456Y-121563628D01*
X76358456Y-121563628D02*
X76358456Y-121849342D01*
X76358456Y-121849342D02*
X76406075Y-121944580D01*
X76406075Y-121944580D02*
X76453694Y-121992200D01*
X76453694Y-121992200D02*
X76548932Y-122039819D01*
X76548932Y-122039819D02*
X76691789Y-122039819D01*
X75501313Y-121373152D02*
X75501313Y-122039819D01*
X75929884Y-121373152D02*
X75929884Y-121896961D01*
X75929884Y-121896961D02*
X75882265Y-121992200D01*
X75882265Y-121992200D02*
X75787027Y-122039819D01*
X75787027Y-122039819D02*
X75644170Y-122039819D01*
X75644170Y-122039819D02*
X75548932Y-121992200D01*
X75548932Y-121992200D02*
X75501313Y-121944580D01*
X75025122Y-122039819D02*
X75025122Y-121373152D01*
X75025122Y-121563628D02*
X74977503Y-121468390D01*
X74977503Y-121468390D02*
X74929884Y-121420771D01*
X74929884Y-121420771D02*
X74834646Y-121373152D01*
X74834646Y-121373152D02*
X74739408Y-121373152D01*
X73215598Y-122039819D02*
X73215598Y-121039819D01*
X73215598Y-121992200D02*
X73310836Y-122039819D01*
X73310836Y-122039819D02*
X73501312Y-122039819D01*
X73501312Y-122039819D02*
X73596550Y-121992200D01*
X73596550Y-121992200D02*
X73644169Y-121944580D01*
X73644169Y-121944580D02*
X73691788Y-121849342D01*
X73691788Y-121849342D02*
X73691788Y-121563628D01*
X73691788Y-121563628D02*
X73644169Y-121468390D01*
X73644169Y-121468390D02*
X73596550Y-121420771D01*
X73596550Y-121420771D02*
X73501312Y-121373152D01*
X73501312Y-121373152D02*
X73310836Y-121373152D01*
X73310836Y-121373152D02*
X73215598Y-121420771D01*
X72739407Y-122039819D02*
X72739407Y-121373152D01*
X72739407Y-121563628D02*
X72691788Y-121468390D01*
X72691788Y-121468390D02*
X72644169Y-121420771D01*
X72644169Y-121420771D02*
X72548931Y-121373152D01*
X72548931Y-121373152D02*
X72453693Y-121373152D01*
X71977502Y-122039819D02*
X72072740Y-121992200D01*
X72072740Y-121992200D02*
X72120359Y-121944580D01*
X72120359Y-121944580D02*
X72167978Y-121849342D01*
X72167978Y-121849342D02*
X72167978Y-121563628D01*
X72167978Y-121563628D02*
X72120359Y-121468390D01*
X72120359Y-121468390D02*
X72072740Y-121420771D01*
X72072740Y-121420771D02*
X71977502Y-121373152D01*
X71977502Y-121373152D02*
X71834645Y-121373152D01*
X71834645Y-121373152D02*
X71739407Y-121420771D01*
X71739407Y-121420771D02*
X71691788Y-121468390D01*
X71691788Y-121468390D02*
X71644169Y-121563628D01*
X71644169Y-121563628D02*
X71644169Y-121849342D01*
X71644169Y-121849342D02*
X71691788Y-121944580D01*
X71691788Y-121944580D02*
X71739407Y-121992200D01*
X71739407Y-121992200D02*
X71834645Y-122039819D01*
X71834645Y-122039819D02*
X71977502Y-122039819D01*
X71215597Y-121373152D02*
X71215597Y-122039819D01*
X71215597Y-121468390D02*
X71167978Y-121420771D01*
X71167978Y-121420771D02*
X71072740Y-121373152D01*
X71072740Y-121373152D02*
X70929883Y-121373152D01*
X70929883Y-121373152D02*
X70834645Y-121420771D01*
X70834645Y-121420771D02*
X70787026Y-121516009D01*
X70787026Y-121516009D02*
X70787026Y-122039819D01*
X69929883Y-121992200D02*
X70025121Y-122039819D01*
X70025121Y-122039819D02*
X70215597Y-122039819D01*
X70215597Y-122039819D02*
X70310835Y-121992200D01*
X70310835Y-121992200D02*
X70358454Y-121896961D01*
X70358454Y-121896961D02*
X70358454Y-121516009D01*
X70358454Y-121516009D02*
X70310835Y-121420771D01*
X70310835Y-121420771D02*
X70215597Y-121373152D01*
X70215597Y-121373152D02*
X70025121Y-121373152D01*
X70025121Y-121373152D02*
X69929883Y-121420771D01*
X69929883Y-121420771D02*
X69882264Y-121516009D01*
X69882264Y-121516009D02*
X69882264Y-121611247D01*
X69882264Y-121611247D02*
X70358454Y-121706485D01*
X96310839Y-123602200D02*
X96167982Y-123649819D01*
X96167982Y-123649819D02*
X95929887Y-123649819D01*
X95929887Y-123649819D02*
X95834649Y-123602200D01*
X95834649Y-123602200D02*
X95787030Y-123554580D01*
X95787030Y-123554580D02*
X95739411Y-123459342D01*
X95739411Y-123459342D02*
X95739411Y-123364104D01*
X95739411Y-123364104D02*
X95787030Y-123268866D01*
X95787030Y-123268866D02*
X95834649Y-123221247D01*
X95834649Y-123221247D02*
X95929887Y-123173628D01*
X95929887Y-123173628D02*
X96120363Y-123126009D01*
X96120363Y-123126009D02*
X96215601Y-123078390D01*
X96215601Y-123078390D02*
X96263220Y-123030771D01*
X96263220Y-123030771D02*
X96310839Y-122935533D01*
X96310839Y-122935533D02*
X96310839Y-122840295D01*
X96310839Y-122840295D02*
X96263220Y-122745057D01*
X96263220Y-122745057D02*
X96215601Y-122697438D01*
X96215601Y-122697438D02*
X96120363Y-122649819D01*
X96120363Y-122649819D02*
X95882268Y-122649819D01*
X95882268Y-122649819D02*
X95739411Y-122697438D01*
X94882268Y-123602200D02*
X94977506Y-123649819D01*
X94977506Y-123649819D02*
X95167982Y-123649819D01*
X95167982Y-123649819D02*
X95263220Y-123602200D01*
X95263220Y-123602200D02*
X95310839Y-123554580D01*
X95310839Y-123554580D02*
X95358458Y-123459342D01*
X95358458Y-123459342D02*
X95358458Y-123173628D01*
X95358458Y-123173628D02*
X95310839Y-123078390D01*
X95310839Y-123078390D02*
X95263220Y-123030771D01*
X95263220Y-123030771D02*
X95167982Y-122983152D01*
X95167982Y-122983152D02*
X94977506Y-122983152D01*
X94977506Y-122983152D02*
X94882268Y-123030771D01*
X94453696Y-123649819D02*
X94453696Y-122649819D01*
X94025125Y-123649819D02*
X94025125Y-123126009D01*
X94025125Y-123126009D02*
X94072744Y-123030771D01*
X94072744Y-123030771D02*
X94167982Y-122983152D01*
X94167982Y-122983152D02*
X94310839Y-122983152D01*
X94310839Y-122983152D02*
X94406077Y-123030771D01*
X94406077Y-123030771D02*
X94453696Y-123078390D01*
X93167982Y-123602200D02*
X93263220Y-123649819D01*
X93263220Y-123649819D02*
X93453696Y-123649819D01*
X93453696Y-123649819D02*
X93548934Y-123602200D01*
X93548934Y-123602200D02*
X93596553Y-123506961D01*
X93596553Y-123506961D02*
X93596553Y-123126009D01*
X93596553Y-123126009D02*
X93548934Y-123030771D01*
X93548934Y-123030771D02*
X93453696Y-122983152D01*
X93453696Y-122983152D02*
X93263220Y-122983152D01*
X93263220Y-122983152D02*
X93167982Y-123030771D01*
X93167982Y-123030771D02*
X93120363Y-123126009D01*
X93120363Y-123126009D02*
X93120363Y-123221247D01*
X93120363Y-123221247D02*
X93596553Y-123316485D01*
X93263220Y-122602200D02*
X93406077Y-122745057D01*
X92691791Y-123649819D02*
X92691791Y-122983152D01*
X92691791Y-123078390D02*
X92644172Y-123030771D01*
X92644172Y-123030771D02*
X92548934Y-122983152D01*
X92548934Y-122983152D02*
X92406077Y-122983152D01*
X92406077Y-122983152D02*
X92310839Y-123030771D01*
X92310839Y-123030771D02*
X92263220Y-123126009D01*
X92263220Y-123126009D02*
X92263220Y-123649819D01*
X92263220Y-123126009D02*
X92215601Y-123030771D01*
X92215601Y-123030771D02*
X92120363Y-122983152D01*
X92120363Y-122983152D02*
X91977506Y-122983152D01*
X91977506Y-122983152D02*
X91882267Y-123030771D01*
X91882267Y-123030771D02*
X91834648Y-123126009D01*
X91834648Y-123126009D02*
X91834648Y-123649819D01*
X90929887Y-123649819D02*
X90929887Y-123126009D01*
X90929887Y-123126009D02*
X90977506Y-123030771D01*
X90977506Y-123030771D02*
X91072744Y-122983152D01*
X91072744Y-122983152D02*
X91263220Y-122983152D01*
X91263220Y-122983152D02*
X91358458Y-123030771D01*
X90929887Y-123602200D02*
X91025125Y-123649819D01*
X91025125Y-123649819D02*
X91263220Y-123649819D01*
X91263220Y-123649819D02*
X91358458Y-123602200D01*
X91358458Y-123602200D02*
X91406077Y-123506961D01*
X91406077Y-123506961D02*
X91406077Y-123411723D01*
X91406077Y-123411723D02*
X91358458Y-123316485D01*
X91358458Y-123316485D02*
X91263220Y-123268866D01*
X91263220Y-123268866D02*
X91025125Y-123268866D01*
X91025125Y-123268866D02*
X90929887Y-123221247D01*
X89310839Y-123602200D02*
X89406077Y-123649819D01*
X89406077Y-123649819D02*
X89596553Y-123649819D01*
X89596553Y-123649819D02*
X89691791Y-123602200D01*
X89691791Y-123602200D02*
X89739410Y-123506961D01*
X89739410Y-123506961D02*
X89739410Y-123126009D01*
X89739410Y-123126009D02*
X89691791Y-123030771D01*
X89691791Y-123030771D02*
X89596553Y-122983152D01*
X89596553Y-122983152D02*
X89406077Y-122983152D01*
X89406077Y-122983152D02*
X89310839Y-123030771D01*
X89310839Y-123030771D02*
X89263220Y-123126009D01*
X89263220Y-123126009D02*
X89263220Y-123221247D01*
X89263220Y-123221247D02*
X89739410Y-123316485D01*
X89406077Y-122602200D02*
X89548934Y-122745057D01*
X88691791Y-123649819D02*
X88787029Y-123602200D01*
X88787029Y-123602200D02*
X88834648Y-123506961D01*
X88834648Y-123506961D02*
X88834648Y-122649819D01*
X87929886Y-123602200D02*
X88025124Y-123649819D01*
X88025124Y-123649819D02*
X88215600Y-123649819D01*
X88215600Y-123649819D02*
X88310838Y-123602200D01*
X88310838Y-123602200D02*
X88358457Y-123506961D01*
X88358457Y-123506961D02*
X88358457Y-123126009D01*
X88358457Y-123126009D02*
X88310838Y-123030771D01*
X88310838Y-123030771D02*
X88215600Y-122983152D01*
X88215600Y-122983152D02*
X88025124Y-122983152D01*
X88025124Y-122983152D02*
X87929886Y-123030771D01*
X87929886Y-123030771D02*
X87882267Y-123126009D01*
X87882267Y-123126009D02*
X87882267Y-123221247D01*
X87882267Y-123221247D02*
X88358457Y-123316485D01*
X87025124Y-123602200D02*
X87120362Y-123649819D01*
X87120362Y-123649819D02*
X87310838Y-123649819D01*
X87310838Y-123649819D02*
X87406076Y-123602200D01*
X87406076Y-123602200D02*
X87453695Y-123554580D01*
X87453695Y-123554580D02*
X87501314Y-123459342D01*
X87501314Y-123459342D02*
X87501314Y-123173628D01*
X87501314Y-123173628D02*
X87453695Y-123078390D01*
X87453695Y-123078390D02*
X87406076Y-123030771D01*
X87406076Y-123030771D02*
X87310838Y-122983152D01*
X87310838Y-122983152D02*
X87120362Y-122983152D01*
X87120362Y-122983152D02*
X87025124Y-123030771D01*
X86739409Y-122983152D02*
X86358457Y-122983152D01*
X86596552Y-122649819D02*
X86596552Y-123506961D01*
X86596552Y-123506961D02*
X86548933Y-123602200D01*
X86548933Y-123602200D02*
X86453695Y-123649819D01*
X86453695Y-123649819D02*
X86358457Y-123649819D01*
X86025123Y-123649819D02*
X86025123Y-122983152D01*
X86025123Y-123173628D02*
X85977504Y-123078390D01*
X85977504Y-123078390D02*
X85929885Y-123030771D01*
X85929885Y-123030771D02*
X85834647Y-122983152D01*
X85834647Y-122983152D02*
X85739409Y-122983152D01*
X85406075Y-123649819D02*
X85406075Y-122983152D01*
X85406075Y-122649819D02*
X85453694Y-122697438D01*
X85453694Y-122697438D02*
X85406075Y-122745057D01*
X85406075Y-122745057D02*
X85358456Y-122697438D01*
X85358456Y-122697438D02*
X85406075Y-122649819D01*
X85406075Y-122649819D02*
X85406075Y-122745057D01*
X84501314Y-122983152D02*
X84501314Y-123983152D01*
X84501314Y-123602200D02*
X84596552Y-123649819D01*
X84596552Y-123649819D02*
X84787028Y-123649819D01*
X84787028Y-123649819D02*
X84882266Y-123602200D01*
X84882266Y-123602200D02*
X84929885Y-123554580D01*
X84929885Y-123554580D02*
X84977504Y-123459342D01*
X84977504Y-123459342D02*
X84977504Y-123173628D01*
X84977504Y-123173628D02*
X84929885Y-123078390D01*
X84929885Y-123078390D02*
X84882266Y-123030771D01*
X84882266Y-123030771D02*
X84787028Y-122983152D01*
X84787028Y-122983152D02*
X84596552Y-122983152D01*
X84596552Y-122983152D02*
X84501314Y-123030771D01*
X83596552Y-122983152D02*
X83596552Y-123649819D01*
X84025123Y-122983152D02*
X84025123Y-123506961D01*
X84025123Y-123506961D02*
X83977504Y-123602200D01*
X83977504Y-123602200D02*
X83882266Y-123649819D01*
X83882266Y-123649819D02*
X83739409Y-123649819D01*
X83739409Y-123649819D02*
X83644171Y-123602200D01*
X83644171Y-123602200D02*
X83596552Y-123554580D01*
X82739409Y-123602200D02*
X82834647Y-123649819D01*
X82834647Y-123649819D02*
X83025123Y-123649819D01*
X83025123Y-123649819D02*
X83120361Y-123602200D01*
X83120361Y-123602200D02*
X83167980Y-123506961D01*
X83167980Y-123506961D02*
X83167980Y-123126009D01*
X83167980Y-123126009D02*
X83120361Y-123030771D01*
X83120361Y-123030771D02*
X83025123Y-122983152D01*
X83025123Y-122983152D02*
X82834647Y-122983152D01*
X82834647Y-122983152D02*
X82739409Y-123030771D01*
X82739409Y-123030771D02*
X82691790Y-123126009D01*
X82691790Y-123126009D02*
X82691790Y-123221247D01*
X82691790Y-123221247D02*
X83167980Y-123316485D01*
X81501313Y-123554580D02*
X81453694Y-123602200D01*
X81453694Y-123602200D02*
X81501313Y-123649819D01*
X81501313Y-123649819D02*
X81548932Y-123602200D01*
X81548932Y-123602200D02*
X81501313Y-123554580D01*
X81501313Y-123554580D02*
X81501313Y-123649819D01*
X81501313Y-123030771D02*
X81453694Y-123078390D01*
X81453694Y-123078390D02*
X81501313Y-123126009D01*
X81501313Y-123126009D02*
X81548932Y-123078390D01*
X81548932Y-123078390D02*
X81501313Y-123030771D01*
X81501313Y-123030771D02*
X81501313Y-123126009D01*
X80263218Y-123649819D02*
X80263218Y-122649819D01*
X79691790Y-123649819D02*
X80120361Y-123078390D01*
X79691790Y-122649819D02*
X80263218Y-123221247D01*
X78882266Y-123602200D02*
X78977504Y-123649819D01*
X78977504Y-123649819D02*
X79167980Y-123649819D01*
X79167980Y-123649819D02*
X79263218Y-123602200D01*
X79263218Y-123602200D02*
X79310837Y-123506961D01*
X79310837Y-123506961D02*
X79310837Y-123126009D01*
X79310837Y-123126009D02*
X79263218Y-123030771D01*
X79263218Y-123030771D02*
X79167980Y-122983152D01*
X79167980Y-122983152D02*
X78977504Y-122983152D01*
X78977504Y-122983152D02*
X78882266Y-123030771D01*
X78882266Y-123030771D02*
X78834647Y-123126009D01*
X78834647Y-123126009D02*
X78834647Y-123221247D01*
X78834647Y-123221247D02*
X79310837Y-123316485D01*
X78501313Y-122983152D02*
X78263218Y-123649819D01*
X78263218Y-123649819D02*
X78025123Y-122983152D01*
X77644170Y-123649819D02*
X77644170Y-122983152D01*
X77644170Y-122649819D02*
X77691789Y-122697438D01*
X77691789Y-122697438D02*
X77644170Y-122745057D01*
X77644170Y-122745057D02*
X77596551Y-122697438D01*
X77596551Y-122697438D02*
X77644170Y-122649819D01*
X77644170Y-122649819D02*
X77644170Y-122745057D01*
X77167980Y-122983152D02*
X77167980Y-123649819D01*
X77167980Y-123078390D02*
X77120361Y-123030771D01*
X77120361Y-123030771D02*
X77025123Y-122983152D01*
X77025123Y-122983152D02*
X76882266Y-122983152D01*
X76882266Y-122983152D02*
X76787028Y-123030771D01*
X76787028Y-123030771D02*
X76739409Y-123126009D01*
X76739409Y-123126009D02*
X76739409Y-123649819D01*
X75025123Y-123649819D02*
X75501313Y-123649819D01*
X75501313Y-123649819D02*
X75501313Y-122649819D01*
X74263218Y-123649819D02*
X74263218Y-123126009D01*
X74263218Y-123126009D02*
X74310837Y-123030771D01*
X74310837Y-123030771D02*
X74406075Y-122983152D01*
X74406075Y-122983152D02*
X74596551Y-122983152D01*
X74596551Y-122983152D02*
X74691789Y-123030771D01*
X74263218Y-123602200D02*
X74358456Y-123649819D01*
X74358456Y-123649819D02*
X74596551Y-123649819D01*
X74596551Y-123649819D02*
X74691789Y-123602200D01*
X74691789Y-123602200D02*
X74739408Y-123506961D01*
X74739408Y-123506961D02*
X74739408Y-123411723D01*
X74739408Y-123411723D02*
X74691789Y-123316485D01*
X74691789Y-123316485D02*
X74596551Y-123268866D01*
X74596551Y-123268866D02*
X74358456Y-123268866D01*
X74358456Y-123268866D02*
X74263218Y-123221247D01*
X73644170Y-123649819D02*
X73739408Y-123602200D01*
X73739408Y-123602200D02*
X73787027Y-123506961D01*
X73787027Y-123506961D02*
X73787027Y-122649819D01*
X73120360Y-123649819D02*
X73215598Y-123602200D01*
X73215598Y-123602200D02*
X73263217Y-123554580D01*
X73263217Y-123554580D02*
X73310836Y-123459342D01*
X73310836Y-123459342D02*
X73310836Y-123173628D01*
X73310836Y-123173628D02*
X73263217Y-123078390D01*
X73263217Y-123078390D02*
X73215598Y-123030771D01*
X73215598Y-123030771D02*
X73120360Y-122983152D01*
X73120360Y-122983152D02*
X72977503Y-122983152D01*
X72977503Y-122983152D02*
X72882265Y-123030771D01*
X72882265Y-123030771D02*
X72834646Y-123078390D01*
X72834646Y-123078390D02*
X72787027Y-123173628D01*
X72787027Y-123173628D02*
X72787027Y-123459342D01*
X72787027Y-123459342D02*
X72834646Y-123554580D01*
X72834646Y-123554580D02*
X72882265Y-123602200D01*
X72882265Y-123602200D02*
X72977503Y-123649819D01*
X72977503Y-123649819D02*
X73120360Y-123649819D01*
X72358455Y-122983152D02*
X72358455Y-123649819D01*
X72358455Y-123078390D02*
X72310836Y-123030771D01*
X72310836Y-123030771D02*
X72215598Y-122983152D01*
X72215598Y-122983152D02*
X72072741Y-122983152D01*
X72072741Y-122983152D02*
X71977503Y-123030771D01*
X71977503Y-123030771D02*
X71929884Y-123126009D01*
X71929884Y-123126009D02*
X71929884Y-123649819D01*
X71025122Y-123649819D02*
X71025122Y-122649819D01*
X71025122Y-123602200D02*
X71120360Y-123649819D01*
X71120360Y-123649819D02*
X71310836Y-123649819D01*
X71310836Y-123649819D02*
X71406074Y-123602200D01*
X71406074Y-123602200D02*
X71453693Y-123554580D01*
X71453693Y-123554580D02*
X71501312Y-123459342D01*
X71501312Y-123459342D02*
X71501312Y-123173628D01*
X71501312Y-123173628D02*
X71453693Y-123078390D01*
X71453693Y-123078390D02*
X71406074Y-123030771D01*
X71406074Y-123030771D02*
X71310836Y-122983152D01*
X71310836Y-122983152D02*
X71120360Y-122983152D01*
X71120360Y-122983152D02*
X71025122Y-123030771D01*
X70167979Y-123602200D02*
X70263217Y-123649819D01*
X70263217Y-123649819D02*
X70453693Y-123649819D01*
X70453693Y-123649819D02*
X70548931Y-123602200D01*
X70548931Y-123602200D02*
X70596550Y-123506961D01*
X70596550Y-123506961D02*
X70596550Y-123126009D01*
X70596550Y-123126009D02*
X70548931Y-123030771D01*
X70548931Y-123030771D02*
X70453693Y-122983152D01*
X70453693Y-122983152D02*
X70263217Y-122983152D01*
X70263217Y-122983152D02*
X70167979Y-123030771D01*
X70167979Y-123030771D02*
X70120360Y-123126009D01*
X70120360Y-123126009D02*
X70120360Y-123221247D01*
X70120360Y-123221247D02*
X70596550Y-123316485D01*
X96263220Y-125259819D02*
X96263220Y-124259819D01*
X96263220Y-124259819D02*
X96025125Y-124259819D01*
X96025125Y-124259819D02*
X95882268Y-124307438D01*
X95882268Y-124307438D02*
X95787030Y-124402676D01*
X95787030Y-124402676D02*
X95739411Y-124497914D01*
X95739411Y-124497914D02*
X95691792Y-124688390D01*
X95691792Y-124688390D02*
X95691792Y-124831247D01*
X95691792Y-124831247D02*
X95739411Y-125021723D01*
X95739411Y-125021723D02*
X95787030Y-125116961D01*
X95787030Y-125116961D02*
X95882268Y-125212200D01*
X95882268Y-125212200D02*
X96025125Y-125259819D01*
X96025125Y-125259819D02*
X96263220Y-125259819D01*
X94882268Y-125212200D02*
X94977506Y-125259819D01*
X94977506Y-125259819D02*
X95167982Y-125259819D01*
X95167982Y-125259819D02*
X95263220Y-125212200D01*
X95263220Y-125212200D02*
X95310839Y-125116961D01*
X95310839Y-125116961D02*
X95310839Y-124736009D01*
X95310839Y-124736009D02*
X95263220Y-124640771D01*
X95263220Y-124640771D02*
X95167982Y-124593152D01*
X95167982Y-124593152D02*
X94977506Y-124593152D01*
X94977506Y-124593152D02*
X94882268Y-124640771D01*
X94882268Y-124640771D02*
X94834649Y-124736009D01*
X94834649Y-124736009D02*
X94834649Y-124831247D01*
X94834649Y-124831247D02*
X95310839Y-124926485D01*
X94453696Y-125212200D02*
X94358458Y-125259819D01*
X94358458Y-125259819D02*
X94167982Y-125259819D01*
X94167982Y-125259819D02*
X94072744Y-125212200D01*
X94072744Y-125212200D02*
X94025125Y-125116961D01*
X94025125Y-125116961D02*
X94025125Y-125069342D01*
X94025125Y-125069342D02*
X94072744Y-124974104D01*
X94072744Y-124974104D02*
X94167982Y-124926485D01*
X94167982Y-124926485D02*
X94310839Y-124926485D01*
X94310839Y-124926485D02*
X94406077Y-124878866D01*
X94406077Y-124878866D02*
X94453696Y-124783628D01*
X94453696Y-124783628D02*
X94453696Y-124736009D01*
X94453696Y-124736009D02*
X94406077Y-124640771D01*
X94406077Y-124640771D02*
X94310839Y-124593152D01*
X94310839Y-124593152D02*
X94167982Y-124593152D01*
X94167982Y-124593152D02*
X94072744Y-124640771D01*
X93596553Y-125259819D02*
X93596553Y-124593152D01*
X93596553Y-124259819D02*
X93644172Y-124307438D01*
X93644172Y-124307438D02*
X93596553Y-124355057D01*
X93596553Y-124355057D02*
X93548934Y-124307438D01*
X93548934Y-124307438D02*
X93596553Y-124259819D01*
X93596553Y-124259819D02*
X93596553Y-124355057D01*
X92691792Y-124593152D02*
X92691792Y-125402676D01*
X92691792Y-125402676D02*
X92739411Y-125497914D01*
X92739411Y-125497914D02*
X92787030Y-125545533D01*
X92787030Y-125545533D02*
X92882268Y-125593152D01*
X92882268Y-125593152D02*
X93025125Y-125593152D01*
X93025125Y-125593152D02*
X93120363Y-125545533D01*
X92691792Y-125212200D02*
X92787030Y-125259819D01*
X92787030Y-125259819D02*
X92977506Y-125259819D01*
X92977506Y-125259819D02*
X93072744Y-125212200D01*
X93072744Y-125212200D02*
X93120363Y-125164580D01*
X93120363Y-125164580D02*
X93167982Y-125069342D01*
X93167982Y-125069342D02*
X93167982Y-124783628D01*
X93167982Y-124783628D02*
X93120363Y-124688390D01*
X93120363Y-124688390D02*
X93072744Y-124640771D01*
X93072744Y-124640771D02*
X92977506Y-124593152D01*
X92977506Y-124593152D02*
X92787030Y-124593152D01*
X92787030Y-124593152D02*
X92691792Y-124640771D01*
X92215601Y-124593152D02*
X92215601Y-125259819D01*
X92215601Y-124688390D02*
X92167982Y-124640771D01*
X92167982Y-124640771D02*
X92072744Y-124593152D01*
X92072744Y-124593152D02*
X91929887Y-124593152D01*
X91929887Y-124593152D02*
X91834649Y-124640771D01*
X91834649Y-124640771D02*
X91787030Y-124736009D01*
X91787030Y-124736009D02*
X91787030Y-125259819D01*
X90548934Y-125259819D02*
X90548934Y-124259819D01*
X90548934Y-124259819D02*
X90167982Y-124259819D01*
X90167982Y-124259819D02*
X90072744Y-124307438D01*
X90072744Y-124307438D02*
X90025125Y-124355057D01*
X90025125Y-124355057D02*
X89977506Y-124450295D01*
X89977506Y-124450295D02*
X89977506Y-124593152D01*
X89977506Y-124593152D02*
X90025125Y-124688390D01*
X90025125Y-124688390D02*
X90072744Y-124736009D01*
X90072744Y-124736009D02*
X90167982Y-124783628D01*
X90167982Y-124783628D02*
X90548934Y-124783628D01*
X88977506Y-125164580D02*
X89025125Y-125212200D01*
X89025125Y-125212200D02*
X89167982Y-125259819D01*
X89167982Y-125259819D02*
X89263220Y-125259819D01*
X89263220Y-125259819D02*
X89406077Y-125212200D01*
X89406077Y-125212200D02*
X89501315Y-125116961D01*
X89501315Y-125116961D02*
X89548934Y-125021723D01*
X89548934Y-125021723D02*
X89596553Y-124831247D01*
X89596553Y-124831247D02*
X89596553Y-124688390D01*
X89596553Y-124688390D02*
X89548934Y-124497914D01*
X89548934Y-124497914D02*
X89501315Y-124402676D01*
X89501315Y-124402676D02*
X89406077Y-124307438D01*
X89406077Y-124307438D02*
X89263220Y-124259819D01*
X89263220Y-124259819D02*
X89167982Y-124259819D01*
X89167982Y-124259819D02*
X89025125Y-124307438D01*
X89025125Y-124307438D02*
X88977506Y-124355057D01*
X88215601Y-124736009D02*
X88072744Y-124783628D01*
X88072744Y-124783628D02*
X88025125Y-124831247D01*
X88025125Y-124831247D02*
X87977506Y-124926485D01*
X87977506Y-124926485D02*
X87977506Y-125069342D01*
X87977506Y-125069342D02*
X88025125Y-125164580D01*
X88025125Y-125164580D02*
X88072744Y-125212200D01*
X88072744Y-125212200D02*
X88167982Y-125259819D01*
X88167982Y-125259819D02*
X88548934Y-125259819D01*
X88548934Y-125259819D02*
X88548934Y-124259819D01*
X88548934Y-124259819D02*
X88215601Y-124259819D01*
X88215601Y-124259819D02*
X88120363Y-124307438D01*
X88120363Y-124307438D02*
X88072744Y-124355057D01*
X88072744Y-124355057D02*
X88025125Y-124450295D01*
X88025125Y-124450295D02*
X88025125Y-124545533D01*
X88025125Y-124545533D02*
X88072744Y-124640771D01*
X88072744Y-124640771D02*
X88120363Y-124688390D01*
X88120363Y-124688390D02*
X88215601Y-124736009D01*
X88215601Y-124736009D02*
X88548934Y-124736009D01*
X86787029Y-125164580D02*
X86739410Y-125212200D01*
X86739410Y-125212200D02*
X86787029Y-125259819D01*
X86787029Y-125259819D02*
X86834648Y-125212200D01*
X86834648Y-125212200D02*
X86787029Y-125164580D01*
X86787029Y-125164580D02*
X86787029Y-125259819D01*
X86787029Y-124640771D02*
X86739410Y-124688390D01*
X86739410Y-124688390D02*
X86787029Y-124736009D01*
X86787029Y-124736009D02*
X86834648Y-124688390D01*
X86834648Y-124688390D02*
X86787029Y-124640771D01*
X86787029Y-124640771D02*
X86787029Y-124736009D01*
X85691791Y-124259819D02*
X85120363Y-124259819D01*
X85406077Y-125259819D02*
X85406077Y-124259819D01*
X84787029Y-125259819D02*
X84787029Y-124593152D01*
X84787029Y-124783628D02*
X84739410Y-124688390D01*
X84739410Y-124688390D02*
X84691791Y-124640771D01*
X84691791Y-124640771D02*
X84596553Y-124593152D01*
X84596553Y-124593152D02*
X84501315Y-124593152D01*
X84167981Y-125259819D02*
X84167981Y-124593152D01*
X84167981Y-124259819D02*
X84215600Y-124307438D01*
X84215600Y-124307438D02*
X84167981Y-124355057D01*
X84167981Y-124355057D02*
X84120362Y-124307438D01*
X84120362Y-124307438D02*
X84167981Y-124259819D01*
X84167981Y-124259819D02*
X84167981Y-124355057D01*
X83739410Y-125212200D02*
X83644172Y-125259819D01*
X83644172Y-125259819D02*
X83453696Y-125259819D01*
X83453696Y-125259819D02*
X83358458Y-125212200D01*
X83358458Y-125212200D02*
X83310839Y-125116961D01*
X83310839Y-125116961D02*
X83310839Y-125069342D01*
X83310839Y-125069342D02*
X83358458Y-124974104D01*
X83358458Y-124974104D02*
X83453696Y-124926485D01*
X83453696Y-124926485D02*
X83596553Y-124926485D01*
X83596553Y-124926485D02*
X83691791Y-124878866D01*
X83691791Y-124878866D02*
X83739410Y-124783628D01*
X83739410Y-124783628D02*
X83739410Y-124736009D01*
X83739410Y-124736009D02*
X83691791Y-124640771D01*
X83691791Y-124640771D02*
X83596553Y-124593152D01*
X83596553Y-124593152D02*
X83453696Y-124593152D01*
X83453696Y-124593152D02*
X83358458Y-124640771D01*
X83025124Y-124593152D02*
X82644172Y-124593152D01*
X82882267Y-124259819D02*
X82882267Y-125116961D01*
X82882267Y-125116961D02*
X82834648Y-125212200D01*
X82834648Y-125212200D02*
X82739410Y-125259819D01*
X82739410Y-125259819D02*
X82644172Y-125259819D01*
X81882267Y-125259819D02*
X81882267Y-124736009D01*
X81882267Y-124736009D02*
X81929886Y-124640771D01*
X81929886Y-124640771D02*
X82025124Y-124593152D01*
X82025124Y-124593152D02*
X82215600Y-124593152D01*
X82215600Y-124593152D02*
X82310838Y-124640771D01*
X81882267Y-125212200D02*
X81977505Y-125259819D01*
X81977505Y-125259819D02*
X82215600Y-125259819D01*
X82215600Y-125259819D02*
X82310838Y-125212200D01*
X82310838Y-125212200D02*
X82358457Y-125116961D01*
X82358457Y-125116961D02*
X82358457Y-125021723D01*
X82358457Y-125021723D02*
X82310838Y-124926485D01*
X82310838Y-124926485D02*
X82215600Y-124878866D01*
X82215600Y-124878866D02*
X81977505Y-124878866D01*
X81977505Y-124878866D02*
X81882267Y-124831247D01*
X81406076Y-124593152D02*
X81406076Y-125259819D01*
X81406076Y-124688390D02*
X81358457Y-124640771D01*
X81358457Y-124640771D02*
X81263219Y-124593152D01*
X81263219Y-124593152D02*
X81120362Y-124593152D01*
X81120362Y-124593152D02*
X81025124Y-124640771D01*
X81025124Y-124640771D02*
X80977505Y-124736009D01*
X80977505Y-124736009D02*
X80977505Y-125259819D01*
X79263219Y-125259819D02*
X79739409Y-125259819D01*
X79739409Y-125259819D02*
X79739409Y-124259819D01*
X78548933Y-125212200D02*
X78644171Y-125259819D01*
X78644171Y-125259819D02*
X78834647Y-125259819D01*
X78834647Y-125259819D02*
X78929885Y-125212200D01*
X78929885Y-125212200D02*
X78977504Y-125116961D01*
X78977504Y-125116961D02*
X78977504Y-124736009D01*
X78977504Y-124736009D02*
X78929885Y-124640771D01*
X78929885Y-124640771D02*
X78834647Y-124593152D01*
X78834647Y-124593152D02*
X78644171Y-124593152D01*
X78644171Y-124593152D02*
X78548933Y-124640771D01*
X78548933Y-124640771D02*
X78501314Y-124736009D01*
X78501314Y-124736009D02*
X78501314Y-124831247D01*
X78501314Y-124831247D02*
X78977504Y-124926485D01*
X77644171Y-124593152D02*
X77644171Y-125402676D01*
X77644171Y-125402676D02*
X77691790Y-125497914D01*
X77691790Y-125497914D02*
X77739409Y-125545533D01*
X77739409Y-125545533D02*
X77834647Y-125593152D01*
X77834647Y-125593152D02*
X77977504Y-125593152D01*
X77977504Y-125593152D02*
X78072742Y-125545533D01*
X77644171Y-125212200D02*
X77739409Y-125259819D01*
X77739409Y-125259819D02*
X77929885Y-125259819D01*
X77929885Y-125259819D02*
X78025123Y-125212200D01*
X78025123Y-125212200D02*
X78072742Y-125164580D01*
X78072742Y-125164580D02*
X78120361Y-125069342D01*
X78120361Y-125069342D02*
X78120361Y-124783628D01*
X78120361Y-124783628D02*
X78072742Y-124688390D01*
X78072742Y-124688390D02*
X78025123Y-124640771D01*
X78025123Y-124640771D02*
X77929885Y-124593152D01*
X77929885Y-124593152D02*
X77739409Y-124593152D01*
X77739409Y-124593152D02*
X77644171Y-124640771D01*
X76739409Y-125259819D02*
X76739409Y-124736009D01*
X76739409Y-124736009D02*
X76787028Y-124640771D01*
X76787028Y-124640771D02*
X76882266Y-124593152D01*
X76882266Y-124593152D02*
X77072742Y-124593152D01*
X77072742Y-124593152D02*
X77167980Y-124640771D01*
X76739409Y-125212200D02*
X76834647Y-125259819D01*
X76834647Y-125259819D02*
X77072742Y-125259819D01*
X77072742Y-125259819D02*
X77167980Y-125212200D01*
X77167980Y-125212200D02*
X77215599Y-125116961D01*
X77215599Y-125116961D02*
X77215599Y-125021723D01*
X77215599Y-125021723D02*
X77167980Y-124926485D01*
X77167980Y-124926485D02*
X77072742Y-124878866D01*
X77072742Y-124878866D02*
X76834647Y-124878866D01*
X76834647Y-124878866D02*
X76739409Y-124831247D01*
X75834647Y-124593152D02*
X75834647Y-125259819D01*
X76263218Y-124593152D02*
X76263218Y-125116961D01*
X76263218Y-125116961D02*
X76215599Y-125212200D01*
X76215599Y-125212200D02*
X76120361Y-125259819D01*
X76120361Y-125259819D02*
X75977504Y-125259819D01*
X75977504Y-125259819D02*
X75882266Y-125212200D01*
X75882266Y-125212200D02*
X75834647Y-125164580D01*
X75215599Y-125259819D02*
X75310837Y-125212200D01*
X75310837Y-125212200D02*
X75358456Y-125116961D01*
X75358456Y-125116961D02*
X75358456Y-124259819D01*
X74977503Y-124593152D02*
X74596551Y-124593152D01*
X74834646Y-124259819D02*
X74834646Y-125116961D01*
X74834646Y-125116961D02*
X74787027Y-125212200D01*
X74787027Y-125212200D02*
X74691789Y-125259819D01*
X74691789Y-125259819D02*
X74596551Y-125259819D01*
X95691792Y-126869819D02*
X96025125Y-126393628D01*
X96263220Y-126869819D02*
X96263220Y-125869819D01*
X96263220Y-125869819D02*
X95882268Y-125869819D01*
X95882268Y-125869819D02*
X95787030Y-125917438D01*
X95787030Y-125917438D02*
X95739411Y-125965057D01*
X95739411Y-125965057D02*
X95691792Y-126060295D01*
X95691792Y-126060295D02*
X95691792Y-126203152D01*
X95691792Y-126203152D02*
X95739411Y-126298390D01*
X95739411Y-126298390D02*
X95787030Y-126346009D01*
X95787030Y-126346009D02*
X95882268Y-126393628D01*
X95882268Y-126393628D02*
X96263220Y-126393628D01*
X94882268Y-126822200D02*
X94977506Y-126869819D01*
X94977506Y-126869819D02*
X95167982Y-126869819D01*
X95167982Y-126869819D02*
X95263220Y-126822200D01*
X95263220Y-126822200D02*
X95310839Y-126726961D01*
X95310839Y-126726961D02*
X95310839Y-126346009D01*
X95310839Y-126346009D02*
X95263220Y-126250771D01*
X95263220Y-126250771D02*
X95167982Y-126203152D01*
X95167982Y-126203152D02*
X94977506Y-126203152D01*
X94977506Y-126203152D02*
X94882268Y-126250771D01*
X94882268Y-126250771D02*
X94834649Y-126346009D01*
X94834649Y-126346009D02*
X94834649Y-126441247D01*
X94834649Y-126441247D02*
X95310839Y-126536485D01*
X94501315Y-126203152D02*
X94263220Y-126869819D01*
X94263220Y-126869819D02*
X94025125Y-126203152D01*
X93644172Y-126869819D02*
X93644172Y-126203152D01*
X93644172Y-125869819D02*
X93691791Y-125917438D01*
X93691791Y-125917438D02*
X93644172Y-125965057D01*
X93644172Y-125965057D02*
X93596553Y-125917438D01*
X93596553Y-125917438D02*
X93644172Y-125869819D01*
X93644172Y-125869819D02*
X93644172Y-125965057D01*
X92787030Y-126822200D02*
X92882268Y-126869819D01*
X92882268Y-126869819D02*
X93072744Y-126869819D01*
X93072744Y-126869819D02*
X93167982Y-126822200D01*
X93167982Y-126822200D02*
X93215601Y-126726961D01*
X93215601Y-126726961D02*
X93215601Y-126346009D01*
X93215601Y-126346009D02*
X93167982Y-126250771D01*
X93167982Y-126250771D02*
X93072744Y-126203152D01*
X93072744Y-126203152D02*
X92882268Y-126203152D01*
X92882268Y-126203152D02*
X92787030Y-126250771D01*
X92787030Y-126250771D02*
X92739411Y-126346009D01*
X92739411Y-126346009D02*
X92739411Y-126441247D01*
X92739411Y-126441247D02*
X93215601Y-126536485D01*
X92406077Y-126203152D02*
X92215601Y-126869819D01*
X92215601Y-126869819D02*
X92025125Y-126393628D01*
X92025125Y-126393628D02*
X91834649Y-126869819D01*
X91834649Y-126869819D02*
X91644173Y-126203152D01*
X90501315Y-126774580D02*
X90453696Y-126822200D01*
X90453696Y-126822200D02*
X90501315Y-126869819D01*
X90501315Y-126869819D02*
X90548934Y-126822200D01*
X90548934Y-126822200D02*
X90501315Y-126774580D01*
X90501315Y-126774580D02*
X90501315Y-126869819D01*
X90501315Y-126250771D02*
X90453696Y-126298390D01*
X90453696Y-126298390D02*
X90501315Y-126346009D01*
X90501315Y-126346009D02*
X90548934Y-126298390D01*
X90548934Y-126298390D02*
X90501315Y-126250771D01*
X90501315Y-126250771D02*
X90501315Y-126346009D01*
X88739411Y-125917438D02*
X88834649Y-125869819D01*
X88834649Y-125869819D02*
X88977506Y-125869819D01*
X88977506Y-125869819D02*
X89120363Y-125917438D01*
X89120363Y-125917438D02*
X89215601Y-126012676D01*
X89215601Y-126012676D02*
X89263220Y-126107914D01*
X89263220Y-126107914D02*
X89310839Y-126298390D01*
X89310839Y-126298390D02*
X89310839Y-126441247D01*
X89310839Y-126441247D02*
X89263220Y-126631723D01*
X89263220Y-126631723D02*
X89215601Y-126726961D01*
X89215601Y-126726961D02*
X89120363Y-126822200D01*
X89120363Y-126822200D02*
X88977506Y-126869819D01*
X88977506Y-126869819D02*
X88882268Y-126869819D01*
X88882268Y-126869819D02*
X88739411Y-126822200D01*
X88739411Y-126822200D02*
X88691792Y-126774580D01*
X88691792Y-126774580D02*
X88691792Y-126441247D01*
X88691792Y-126441247D02*
X88882268Y-126441247D01*
X87834649Y-126203152D02*
X87834649Y-126869819D01*
X88263220Y-126203152D02*
X88263220Y-126726961D01*
X88263220Y-126726961D02*
X88215601Y-126822200D01*
X88215601Y-126822200D02*
X88120363Y-126869819D01*
X88120363Y-126869819D02*
X87977506Y-126869819D01*
X87977506Y-126869819D02*
X87882268Y-126822200D01*
X87882268Y-126822200D02*
X87834649Y-126774580D01*
X87453696Y-126203152D02*
X87215601Y-126869819D01*
X86977506Y-126203152D02*
X87215601Y-126869819D01*
X87215601Y-126869819D02*
X87310839Y-127107914D01*
X87310839Y-127107914D02*
X87358458Y-127155533D01*
X87358458Y-127155533D02*
X87453696Y-127203152D01*
X86167982Y-126869819D02*
X86167982Y-126346009D01*
X86167982Y-126346009D02*
X86215601Y-126250771D01*
X86215601Y-126250771D02*
X86310839Y-126203152D01*
X86310839Y-126203152D02*
X86501315Y-126203152D01*
X86501315Y-126203152D02*
X86596553Y-126250771D01*
X86167982Y-126822200D02*
X86263220Y-126869819D01*
X86263220Y-126869819D02*
X86501315Y-126869819D01*
X86501315Y-126869819D02*
X86596553Y-126822200D01*
X86596553Y-126822200D02*
X86644172Y-126726961D01*
X86644172Y-126726961D02*
X86644172Y-126631723D01*
X86644172Y-126631723D02*
X86596553Y-126536485D01*
X86596553Y-126536485D02*
X86501315Y-126488866D01*
X86501315Y-126488866D02*
X86263220Y-126488866D01*
X86263220Y-126488866D02*
X86167982Y-126441247D01*
X85263220Y-126203152D02*
X85263220Y-126869819D01*
X85691791Y-126203152D02*
X85691791Y-126726961D01*
X85691791Y-126726961D02*
X85644172Y-126822200D01*
X85644172Y-126822200D02*
X85548934Y-126869819D01*
X85548934Y-126869819D02*
X85406077Y-126869819D01*
X85406077Y-126869819D02*
X85310839Y-126822200D01*
X85310839Y-126822200D02*
X85263220Y-126774580D01*
X84787029Y-126869819D02*
X84787029Y-126203152D01*
X84787029Y-126298390D02*
X84739410Y-126250771D01*
X84739410Y-126250771D02*
X84644172Y-126203152D01*
X84644172Y-126203152D02*
X84501315Y-126203152D01*
X84501315Y-126203152D02*
X84406077Y-126250771D01*
X84406077Y-126250771D02*
X84358458Y-126346009D01*
X84358458Y-126346009D02*
X84358458Y-126869819D01*
X84358458Y-126346009D02*
X84310839Y-126250771D01*
X84310839Y-126250771D02*
X84215601Y-126203152D01*
X84215601Y-126203152D02*
X84072744Y-126203152D01*
X84072744Y-126203152D02*
X83977505Y-126250771D01*
X83977505Y-126250771D02*
X83929886Y-126346009D01*
X83929886Y-126346009D02*
X83929886Y-126869819D01*
X83072744Y-126822200D02*
X83167982Y-126869819D01*
X83167982Y-126869819D02*
X83358458Y-126869819D01*
X83358458Y-126869819D02*
X83453696Y-126822200D01*
X83453696Y-126822200D02*
X83501315Y-126726961D01*
X83501315Y-126726961D02*
X83501315Y-126346009D01*
X83501315Y-126346009D02*
X83453696Y-126250771D01*
X83453696Y-126250771D02*
X83358458Y-126203152D01*
X83358458Y-126203152D02*
X83167982Y-126203152D01*
X83167982Y-126203152D02*
X83072744Y-126250771D01*
X83072744Y-126250771D02*
X83025125Y-126346009D01*
X83025125Y-126346009D02*
X83025125Y-126441247D01*
X83025125Y-126441247D02*
X83501315Y-126536485D01*
X81834648Y-126869819D02*
X81834648Y-125869819D01*
X81834648Y-125869819D02*
X81501315Y-126584104D01*
X81501315Y-126584104D02*
X81167982Y-125869819D01*
X81167982Y-125869819D02*
X81167982Y-126869819D01*
X80548934Y-126869819D02*
X80644172Y-126822200D01*
X80644172Y-126822200D02*
X80691791Y-126774580D01*
X80691791Y-126774580D02*
X80739410Y-126679342D01*
X80739410Y-126679342D02*
X80739410Y-126393628D01*
X80739410Y-126393628D02*
X80691791Y-126298390D01*
X80691791Y-126298390D02*
X80644172Y-126250771D01*
X80644172Y-126250771D02*
X80548934Y-126203152D01*
X80548934Y-126203152D02*
X80406077Y-126203152D01*
X80406077Y-126203152D02*
X80310839Y-126250771D01*
X80310839Y-126250771D02*
X80263220Y-126298390D01*
X80263220Y-126298390D02*
X80215601Y-126393628D01*
X80215601Y-126393628D02*
X80215601Y-126679342D01*
X80215601Y-126679342D02*
X80263220Y-126774580D01*
X80263220Y-126774580D02*
X80310839Y-126822200D01*
X80310839Y-126822200D02*
X80406077Y-126869819D01*
X80406077Y-126869819D02*
X80548934Y-126869819D01*
X79787029Y-126869819D02*
X79787029Y-126203152D01*
X79787029Y-126393628D02*
X79739410Y-126298390D01*
X79739410Y-126298390D02*
X79691791Y-126250771D01*
X79691791Y-126250771D02*
X79596553Y-126203152D01*
X79596553Y-126203152D02*
X79501315Y-126203152D01*
X78739410Y-126869819D02*
X78739410Y-126346009D01*
X78739410Y-126346009D02*
X78787029Y-126250771D01*
X78787029Y-126250771D02*
X78882267Y-126203152D01*
X78882267Y-126203152D02*
X79072743Y-126203152D01*
X79072743Y-126203152D02*
X79167981Y-126250771D01*
X78739410Y-126822200D02*
X78834648Y-126869819D01*
X78834648Y-126869819D02*
X79072743Y-126869819D01*
X79072743Y-126869819D02*
X79167981Y-126822200D01*
X79167981Y-126822200D02*
X79215600Y-126726961D01*
X79215600Y-126726961D02*
X79215600Y-126631723D01*
X79215600Y-126631723D02*
X79167981Y-126536485D01*
X79167981Y-126536485D02*
X79072743Y-126488866D01*
X79072743Y-126488866D02*
X78834648Y-126488866D01*
X78834648Y-126488866D02*
X78739410Y-126441247D01*
X78263219Y-126203152D02*
X78263219Y-126869819D01*
X78263219Y-126298390D02*
X78215600Y-126250771D01*
X78215600Y-126250771D02*
X78120362Y-126203152D01*
X78120362Y-126203152D02*
X77977505Y-126203152D01*
X77977505Y-126203152D02*
X77882267Y-126250771D01*
X77882267Y-126250771D02*
X77834648Y-126346009D01*
X77834648Y-126346009D02*
X77834648Y-126869819D01*
X76929886Y-126869819D02*
X76929886Y-125869819D01*
X76929886Y-126822200D02*
X77025124Y-126869819D01*
X77025124Y-126869819D02*
X77215600Y-126869819D01*
X77215600Y-126869819D02*
X77310838Y-126822200D01*
X77310838Y-126822200D02*
X77358457Y-126774580D01*
X77358457Y-126774580D02*
X77406076Y-126679342D01*
X77406076Y-126679342D02*
X77406076Y-126393628D01*
X77406076Y-126393628D02*
X77358457Y-126298390D01*
X77358457Y-126298390D02*
X77310838Y-126250771D01*
X77310838Y-126250771D02*
X77215600Y-126203152D01*
X77215600Y-126203152D02*
X77025124Y-126203152D01*
X77025124Y-126203152D02*
X76929886Y-126250771D01*
D11*
%TO.C,J205*%
X120921900Y-104880000D02*
G75*
G03*
X120921900Y-104880000I-381000J0D01*
G01*
%TO.C,K203*%
X103081000Y-92724000D02*
G75*
G03*
X103081000Y-92724000I-381000J0D01*
G01*
%TO.C,K201*%
X97531000Y-135074000D02*
G75*
G03*
X97531000Y-135074000I-381000J0D01*
G01*
%TD*%
M02*
